<?xml version="1.0" encoding="UTF-8" standalone="no"?>
<svg
   viewBox="0 0 16 16"
   version="1.1"
   id="svg5"
   sodipodi:docname="folder-network.svg"
   inkscape:version="1.2.2 (b0a8486541, 2022-12-01)"
   xmlns:inkscape="http://www.inkscape.org/namespaces/inkscape"
   xmlns:sodipodi="http://sodipodi.sourceforge.net/DTD/sodipodi-0.dtd"
   xmlns:xlink="http://www.w3.org/1999/xlink"
   xmlns="http://www.w3.org/2000/svg"
   xmlns:svg="http://www.w3.org/2000/svg"
   xmlns:rdf="http://www.w3.org/1999/02/22-rdf-syntax-ns#"
   xmlns:cc="http://creativecommons.org/ns#"
   xmlns:dc="http://purl.org/dc/elements/1.1/">
  <metadata
     id="metadata9">
    <rdf:RDF>
      <cc:Work
         rdf:about="">
        <dc:format>image/svg+xml</dc:format>
        <dc:type
           rdf:resource="http://purl.org/dc/dcmitype/StillImage" />
      </cc:Work>
    </rdf:RDF>
  </metadata>
  <sodipodi:namedview
     pagecolor="#ffffff"
     bordercolor="#666666"
     borderopacity="1"
     objecttolerance="10"
     gridtolerance="10"
     guidetolerance="10"
     inkscape:pageopacity="0"
     inkscape:pageshadow="2"
     inkscape:window-width="2560"
     inkscape:window-height="1361"
     id="namedview7"
     showgrid="false"
     inkscape:zoom="40.548096"
     inkscape:cx="2.6635036"
     inkscape:cy="8.039835"
     inkscape:window-x="0"
     inkscape:window-y="0"
     inkscape:window-maximized="1"
     inkscape:current-layer="svg5"
     inkscape:showpageshadow="0"
     inkscape:pagecheckerboard="0"
     inkscape:deskcolor="#d1d1d1" />
  <defs
     id="defs3051">
    <linearGradient
       inkscape:collect="always"
       id="linearGradient823">
      <stop
         style="stop-color:#ffb86c;stop-opacity:1;"
         offset="0"
         id="stop819" />
      <stop
         style="stop-color:#ff5555;stop-opacity:1;"
         offset="1"
         id="stop821" />
    </linearGradient>
    <style
       type="text/css"
       id="current-color-scheme">
      .ColorScheme-Text {
        color:#4d4d4d;
      }
      </style>
    <linearGradient
       inkscape:collect="always"
       xlink:href="#linearGradient823"
       id="linearGradient825"
       x1="2"
       y1="8"
       x2="14"
       y2="8"
       gradientUnits="userSpaceOnUse" />
  </defs>
  <path
     style="fill:url(#linearGradient825);fill-opacity:1;stroke:none"
     d="M 8 2 C 4.676 2 2 4.676 2 8 C 2 11.324 4.676 14 8 14 C 11.324 14 14 11.324 14 8 C 14 4.676 11.324 2 8 2 z M 8 3 C 10.9916 3 13 5.0084 13 8 C 13 10.9916 10.9916 13 8 13 C 5.0084 13 3 10.9916 3 8 C 3 5.0084 5.0084 3 8 3 z M 9.5 5 A 1 1 0 0 0 8.5 6 A 1 1 0 0 0 9.5 7 A 1 1 0 0 0 10.5 6 A 1 1 0 0 0 9.5 5 z M 7.5 6.5 A 0.5 0.5 0 0 0 7 7 A 0.5 0.5 0 0 0 7.5 7.5 A 0.5 0.5 0 0 0 8 7 A 0.5 0.5 0 0 0 7.5 6.5 z M 5.5 7 A 1 1 0 0 0 4.5 8 A 1 1 0 0 0 5.5 9 A 1 1 0 0 0 6.5 8 A 1 1 0 0 0 5.5 7 z M 7.5 8.5 A 0.5 0.5 0 0 0 7 9 A 0.5 0.5 0 0 0 7.5 9.5 A 0.5 0.5 0 0 0 8 9 A 0.5 0.5 0 0 0 7.5 8.5 z M 9.5 9 A 1 1 0 0 0 8.5 10 A 1 1 0 0 0 9.5 11 A 1 1 0 0 0 10.5 10 A 1 1 0 0 0 9.5 9 z "
     id="rect4175"
     class="ColorScheme-Text" />
</svg>
