<?xml version="1.0" encoding="UTF-8" standalone="no"?>
<svg
   width="22"
   height="22"
   version="1.1"
   id="svg22663"
   sodipodi:docname="application-vnd.ms-excel.template.macroenabled.12.svg"
   inkscape:version="1.2.2 (b0a8486541, 2022-12-01)"
   xmlns:inkscape="http://www.inkscape.org/namespaces/inkscape"
   xmlns:sodipodi="http://sodipodi.sourceforge.net/DTD/sodipodi-0.dtd"
   xmlns="http://www.w3.org/2000/svg"
   xmlns:svg="http://www.w3.org/2000/svg">
  <defs
     id="defs22667" />
  <sodipodi:namedview
     id="namedview22665"
     pagecolor="#505050"
     bordercolor="#eeeeee"
     borderopacity="1"
     inkscape:showpageshadow="0"
     inkscape:pageopacity="0"
     inkscape:pagecheckerboard="0"
     inkscape:deskcolor="#505050"
     showgrid="false"
     inkscape:zoom="46.318182"
     inkscape:cx="10.255152"
     inkscape:cy="11.010795"
     inkscape:window-width="1280"
     inkscape:window-height="1361"
     inkscape:window-x="0"
     inkscape:window-y="0"
     inkscape:window-maximized="0"
     inkscape:current-layer="svg22663" />
  <path
     d="M4.334 3C3.595 3 3 3.595 3 4.334v13.332C3 18.405 3.595 19 4.334 19h13.332c.739 0 1.334-.595 1.334-1.334V4.334C19 3.595 18.405 3 17.666 3H4.334zM4 4h14v14H4V4zm1 1v1h3V5H5zm4 0v1h4V5H9zm5 0v1h3V5h-3zM5 7v1h3V7H5zm4 0v1h4V7H9zm5 0v1h3V7h-3zM5 9v1h3V9H5zm4 0v1h4V9H9zm5 0v1h3V9h-3zm-9 2v1h3v-1H5zm4 0v1h4v-1H9zm5 0v1h3v-1h-3zm-9 2v1h3v-1H5zm4 0v1h4v-1H9zm5 0v1h3v-1h-3zm-9 2v1h3v-1H5zm4 0v1h4v-1H9zm5 0v1h3v-1h-3z"
     color="#000"
     fill="#44c367"
     id="path22661"
     style="fill:#44c367;opacity:1" />
</svg>
