<?xml version="1.0" encoding="UTF-8" standalone="no"?>
<svg
   width="22"
   height="22"
   version="1.1"
   id="svg4"
   sodipodi:docname="application-x-compressed-tar.svg"
   inkscape:version="1.2.2 (b0a8486541, 2022-12-01)"
   xmlns:inkscape="http://www.inkscape.org/namespaces/inkscape"
   xmlns:sodipodi="http://sodipodi.sourceforge.net/DTD/sodipodi-0.dtd"
   xmlns="http://www.w3.org/2000/svg"
   xmlns:svg="http://www.w3.org/2000/svg">
  <defs
     id="defs8" />
  <sodipodi:namedview
     id="namedview6"
     pagecolor="#505050"
     bordercolor="#eeeeee"
     borderopacity="1"
     inkscape:showpageshadow="0"
     inkscape:pageopacity="0"
     inkscape:pagecheckerboard="0"
     inkscape:deskcolor="#505050"
     showgrid="false"
     inkscape:zoom="46.318182"
     inkscape:cx="10.255152"
     inkscape:cy="11.010795"
     inkscape:window-width="1280"
     inkscape:window-height="1361"
     inkscape:window-x="0"
     inkscape:window-y="0"
     inkscape:window-maximized="0"
     inkscape:current-layer="svg4" />
  <path
     d="M3 3v16h16V3H3zm1 1h6v1h1V4h7v14H4V4zm7 1v1h1V5h-1zm0 1h-1v1h1V6zm0 1v1h1V7h-1zm0 1h-1v1h1V8zm0 1v1h1V9h-1zm0 1h-1v1h1v-1zm0 1v1h1v-1h-1zm0 1h-1v2h2v-1h-1v-1z"
     fill="#c6970c"
     id="path2"
     style="fill:#ffb86c" />
</svg>
