<?xml version="1.0" encoding="UTF-8" standalone="no"?>
<svg
   width="22"
   version="1.1"
   height="22"
   id="svg2"
   sodipodi:docname="application-x-ms-shortcut.svg"
   inkscape:version="1.2.2 (b0a8486541, 2022-12-01)"
   xmlns:inkscape="http://www.inkscape.org/namespaces/inkscape"
   xmlns:sodipodi="http://sodipodi.sourceforge.net/DTD/sodipodi-0.dtd"
   xmlns="http://www.w3.org/2000/svg"
   xmlns:svg="http://www.w3.org/2000/svg">
  <sodipodi:namedview
     id="namedview8"
     pagecolor="#505050"
     bordercolor="#eeeeee"
     borderopacity="1"
     inkscape:showpageshadow="0"
     inkscape:pageopacity="0"
     inkscape:pagecheckerboard="0"
     inkscape:deskcolor="#505050"
     showgrid="false"
     inkscape:zoom="46.318182"
     inkscape:cx="10.255152"
     inkscape:cy="11.010795"
     inkscape:window-width="1280"
     inkscape:window-height="1361"
     inkscape:window-x="0"
     inkscape:window-y="0"
     inkscape:window-maximized="0"
     inkscape:current-layer="svg2" />
  <defs
     id="defs3871">
    <style
       id="current-color-scheme"
       type="text/css" />
  </defs>
  <g
     id="layer1-8"
     transform="translate(0 -1030.362)"
     fill="#fd7e7c"
     style="fill:#44475a;fill-opacity:1">
    <g
       transform="translate(-421.714 503.571)"
       id="layer1"
       fill="#44475a"
       fill-opacity="1"
       style="fill:#44475a;fill-opacity:1">
      <path
         id="rect4144"
         transform="translate(421.714 525.79)"
         d="M4 6v1H3v8h1v1h14v-1h1V7h-1V6H4zm.908 1h12.184c.15.425.483.758.908.908V14.092a1.49 1.49 0 0 0-.908.908H4.908A1.49 1.49 0 0 0 4 14.092V7.908A1.49 1.49 0 0 0 4.908 7zM11 8c-1.662 0-3 1.338-3 3s1.338 3 3 3 3-1.338 3-3-1.338-3-3-3zm0 1c1.108 0 2 .892 2 2s-.892 2-2 2-2-.892-2-2 .892-2 2-2z"
         color="#4d4d4d"
         opacity="1"
         fill="#44475a"
         fill-opacity="1"
         stroke="none"
         stroke-width="2.8"
         stroke-miterlimit="4"
         stroke-dasharray="none"
         stroke-opacity=".55"
         style="fill:#44475a;fill-opacity:1" />
    </g>
  </g>
</svg>
