<?xml version="1.0" encoding="UTF-8" standalone="no"?>
<svg
   width="16"
   height="16"
   viewBox="0 0 4.233 4.233"
   version="1.1"
   id="svg4"
   sodipodi:docname="application-x-class-file.svg"
   inkscape:version="1.2.2 (b0a8486541, 2022-12-01)"
   xmlns:inkscape="http://www.inkscape.org/namespaces/inkscape"
   xmlns:sodipodi="http://sodipodi.sourceforge.net/DTD/sodipodi-0.dtd"
   xmlns="http://www.w3.org/2000/svg"
   xmlns:svg="http://www.w3.org/2000/svg">
  <defs
     id="defs8" />
  <sodipodi:namedview
     id="namedview6"
     pagecolor="#505050"
     bordercolor="#eeeeee"
     borderopacity="1"
     inkscape:showpageshadow="0"
     inkscape:pageopacity="0"
     inkscape:pagecheckerboard="0"
     inkscape:deskcolor="#505050"
     showgrid="false"
     inkscape:zoom="63.6875"
     inkscape:cx="7.4739941"
     inkscape:cy="8.0078508"
     inkscape:window-width="2560"
     inkscape:window-height="1361"
     inkscape:window-x="0"
     inkscape:window-y="0"
     inkscape:window-maximized="1"
     inkscape:current-layer="svg4" />
  <path
     d="M1.852.53v.793h.265V.529zm-.53.264v.529h.265v-.53zm1.06 0v.529h.264v-.53zm-1.588.264v.265h.264v-.265zm-.265.53v1.058c0 .48.267.794.794.794h-.53v.264H2.91V3.44h-.529c.416 0 .664-.193.794-.53h.265c.264 0 .264 0 .264-.289v-.29c0-.48 0-.48-.264-.48h-.265v-.264zm.265.264H2.91v.794c0 .4-.354.529-.793.529h-.53c-.44 0-.793-.13-.793-.53zm2.381.265h.265v.529h-.265z"
     fill="#c7925b"
     id="path2"
     style="fill:#c7925b" />
</svg>
