<?xml version="1.0" encoding="UTF-8" standalone="no"?>
<svg
   width="16"
   height="16"
   version="1.1"
   id="svg4"
   sodipodi:docname="application-x-ms-shortcut.svg"
   inkscape:version="1.2.2 (b0a8486541, 2022-12-01)"
   xmlns:inkscape="http://www.inkscape.org/namespaces/inkscape"
   xmlns:sodipodi="http://sodipodi.sourceforge.net/DTD/sodipodi-0.dtd"
   xmlns="http://www.w3.org/2000/svg"
   xmlns:svg="http://www.w3.org/2000/svg">
  <defs
     id="defs8" />
  <sodipodi:namedview
     id="namedview6"
     pagecolor="#505050"
     bordercolor="#eeeeee"
     borderopacity="1"
     inkscape:showpageshadow="0"
     inkscape:pageopacity="0"
     inkscape:pagecheckerboard="0"
     inkscape:deskcolor="#505050"
     showgrid="false"
     inkscape:zoom="63.6875"
     inkscape:cx="7.4739941"
     inkscape:cy="8.0078508"
     inkscape:window-width="2560"
     inkscape:window-height="1361"
     inkscape:window-x="0"
     inkscape:window-y="0"
     inkscape:window-maximized="1"
     inkscape:current-layer="svg4" />
  <path
     d="M6.977 2v1.125c-.882.078-1.578.291-2.093.688-.568.432-.85 1.072-.85 1.906 0 1.165.73 1.921 2.224 2.281l.72.188v3.688c-.929-.079-1.799-.273-2.617-.656l-.36.906c.333.195.787.379 1.341.531.487.129 1.035.186 1.636.219v1.125h1.047v-1.125c.89-.068 1.605-.327 2.126-.781.559-.483.85-1.183.85-2.094 0-.737-.209-1.289-.621-1.687-.412-.403-1.033-.693-1.832-.875l-.523-.125v-3.25c.404.029.824.083 1.21.188.444.114.776.262 1.047.406l.327-.906c-.67-.399-1.529-.637-2.584-.688V2.001H7.24zm-.229 2.094c.069-.011.156.008.229 0v2.969L6.683 7c-.492-.114-.864-.284-1.112-.5-.244-.22-.36-.515-.36-.875 0-.856.505-1.366 1.537-1.531m1.276 4.313l.196.063c.603.144 1.017.34 1.243.594.231.25.327.593.327 1 0 1.133-.589 1.735-1.766 1.844z"
     fill="#44475a"
     id="path2"
     style="fill:#44475a" />
</svg>
