<?xml version="1.0" encoding="UTF-8" standalone="no"?>
<svg
   width="16"
   height="16"
   version="1.1"
   id="svg4"
   sodipodi:docname="application-vnd.ms-excel.addin.macroenabled.12.svg"
   inkscape:version="1.2.2 (b0a8486541, 2022-12-01)"
   xmlns:inkscape="http://www.inkscape.org/namespaces/inkscape"
   xmlns:sodipodi="http://sodipodi.sourceforge.net/DTD/sodipodi-0.dtd"
   xmlns="http://www.w3.org/2000/svg"
   xmlns:svg="http://www.w3.org/2000/svg">
  <defs
     id="defs8" />
  <sodipodi:namedview
     id="namedview6"
     pagecolor="#505050"
     bordercolor="#eeeeee"
     borderopacity="1"
     inkscape:showpageshadow="0"
     inkscape:pageopacity="0"
     inkscape:pagecheckerboard="0"
     inkscape:deskcolor="#505050"
     showgrid="false"
     inkscape:zoom="63.6875"
     inkscape:cx="7.4739941"
     inkscape:cy="8.0078508"
     inkscape:window-width="2560"
     inkscape:window-height="1361"
     inkscape:window-x="0"
     inkscape:window-y="0"
     inkscape:window-maximized="1"
     inkscape:current-layer="svg4" />
  <path
     color="#000"
     d="M3 2c-.554 0-1 .446-1 1v10c0 .554.446 1 1 1h10c.554 0 1-.446 1-1V3c0-.554-.446-1-1-1zm0 1h10v10H3zm1 1v1h2V4zm3 0v1h2V4zm3 0v1h2V4zM4 5.998v1h2v-1zm3 0v1h2v-1zm3 0v1h2v-1zM4 7.996v1h2v-1zm3 0v1h2v-1zm3 0v1h2v-1zM4 9.994v1h2v-1zm3 0v1h2v-1zm3 0v1h2v-1z"
     fill="#44c367"
     id="path2"
     style="fill:#50fa7b" />
</svg>
