<?xml version="1.0" encoding="UTF-8" standalone="no"?>
<svg
   width="16"
   height="16"
   version="1.1"
   id="svg4"
   sodipodi:docname="color.svg"
   inkscape:version="1.2.2 (b0a8486541, 2022-12-01)"
   xmlns:inkscape="http://www.inkscape.org/namespaces/inkscape"
   xmlns:sodipodi="http://sodipodi.sourceforge.net/DTD/sodipodi-0.dtd"
   xmlns="http://www.w3.org/2000/svg"
   xmlns:svg="http://www.w3.org/2000/svg">
  <defs
     id="defs8" />
  <sodipodi:namedview
     id="namedview6"
     pagecolor="#505050"
     bordercolor="#eeeeee"
     borderopacity="1"
     inkscape:showpageshadow="0"
     inkscape:pageopacity="0"
     inkscape:pagecheckerboard="0"
     inkscape:deskcolor="#505050"
     showgrid="false"
     inkscape:zoom="63.6875"
     inkscape:cx="7.4739941"
     inkscape:cy="8.0078508"
     inkscape:window-width="2560"
     inkscape:window-height="1361"
     inkscape:window-x="0"
     inkscape:window-y="0"
     inkscape:window-maximized="1"
     inkscape:current-layer="svg4" />
  <path
     style="text-decoration-line:none;fill:#c7925b"
     d="M8 2c-1.072 3.818-4 6.073-4 8.182S5.79 14 8 14s4-1.71 4-3.818C12 8.073 9.072 5.818 8 2zm2.75 6.233a3.429 3.273 0 0 1 .679 1.949A3.429 3.273 0 0 1 8 13.454a3.429 3.273 0 0 1-2.038-.645 4 3.818 0 0 0 .895.1 4 3.818 0 0 0 4-3.818 4 3.818 0 0 0-.107-.858z"
     color="#000"
     overflow="visible"
     fill="#c7925b"
     id="path2" />
</svg>
