<?xml version="1.0" encoding="UTF-8" standalone="no"?>
<svg
   width="16"
   height="16"
   version="1.1"
   id="svg6"
   sodipodi:docname="contact.svg"
   inkscape:version="1.2.2 (b0a8486541, 2022-12-01)"
   xmlns:inkscape="http://www.inkscape.org/namespaces/inkscape"
   xmlns:sodipodi="http://sodipodi.sourceforge.net/DTD/sodipodi-0.dtd"
   xmlns="http://www.w3.org/2000/svg"
   xmlns:svg="http://www.w3.org/2000/svg">
  <defs
     id="defs10" />
  <sodipodi:namedview
     id="namedview8"
     pagecolor="#505050"
     bordercolor="#eeeeee"
     borderopacity="1"
     inkscape:showpageshadow="0"
     inkscape:pageopacity="0"
     inkscape:pagecheckerboard="0"
     inkscape:deskcolor="#505050"
     showgrid="false"
     inkscape:zoom="63.6875"
     inkscape:cx="7.4739941"
     inkscape:cy="8.0078508"
     inkscape:window-width="2560"
     inkscape:window-height="1361"
     inkscape:window-x="0"
     inkscape:window-y="0"
     inkscape:window-maximized="1"
     inkscape:current-layer="svg6" />
  <g
     fill="#13b1d5"
     id="g4"
     style="fill:#13b1d5">
    <path
       d="M6.5 2A2.495 2.495 0 0 0 4 4.5C4 5.885 5.115 7 6.5 7S9 5.885 9 4.5 7.885 2 6.5 2zm0 1C7.331 3 8 3.669 8 4.5S7.331 6 6.5 6 5 5.331 5 4.5 5.669 3 6.5 3zM6.5 8A4.49 4.49 0 0 0 2 12.5V14h9v-1.5A4.49 4.49 0 0 0 6.5 8zm0 1c1.939 0 3.5 1.561 3.5 3.5v.5H3v-.5C3 10.561 4.561 9 6.5 9zM12 4c-1.108 0-2 .892-2 2s.892 2 2 2 2-.892 2-2-.892-2-2-2zm0 1c.554 0 1 .446 1 1s-.446 1-1 1-1-.446-1-1 .446-1 1-1zM12 9c-.555 0-1.067.16-1.512.42.243.237.466.495.657.777A1.996 1.996 0 0 1 14 12h-2.1c.066.323.1.657.1 1h3v-1c0-1.662-1.338-3-3-3z"
       id="path2"
       style="fill:#13b1d5" />
  </g>
</svg>
