<?xml version="1.0" encoding="UTF-8" standalone="no"?>
<svg
   version="1.0"
   width="16"
   height="16"
   id="svg4"
   sodipodi:docname="extension.svg"
   inkscape:version="1.2.2 (b0a8486541, 2022-12-01)"
   xmlns:inkscape="http://www.inkscape.org/namespaces/inkscape"
   xmlns:sodipodi="http://sodipodi.sourceforge.net/DTD/sodipodi-0.dtd"
   xmlns="http://www.w3.org/2000/svg"
   xmlns:svg="http://www.w3.org/2000/svg">
  <defs
     id="defs8" />
  <sodipodi:namedview
     id="namedview6"
     pagecolor="#505050"
     bordercolor="#eeeeee"
     borderopacity="1"
     inkscape:showpageshadow="0"
     inkscape:pageopacity="0"
     inkscape:pagecheckerboard="0"
     inkscape:deskcolor="#505050"
     showgrid="false"
     inkscape:zoom="63.6875"
     inkscape:cx="7.4739941"
     inkscape:cy="8.0078508"
     inkscape:window-width="2560"
     inkscape:window-height="1361"
     inkscape:window-x="0"
     inkscape:window-y="0"
     inkscape:window-maximized="1"
     inkscape:current-layer="svg4" />
  <path
     d="M6.207 0a2.069 2.069 0 0 0-1.029 3.862H.552A.55.55 0 0 0 0 4.414v4.075a2.069 2.069 0 1 1 0 2.055v4.904A.55.55 0 0 0 .552 16h4.626a2.069 2.069 0 1 1 2.056 0h4.352a.55.55 0 0 0 .552-.552v-4.904a2.069 2.069 0 0 0 1.793 1.042 2.069 2.069 0 1 0-1.793-3.097V4.414a.55.55 0 0 0-.552-.552H7.234A2.069 2.069 0 0 0 8.276 2.07 2.069 2.069 0 0 0 6.206 0z"
     fill="#50fa7b"
     id="path2"
     style="fill:#7afa99" />
</svg>
