<?xml version="1.0" encoding="UTF-8" standalone="no"?>
<svg
   width="16"
   height="16"
   version="1.1"
   id="svg14"
   sodipodi:docname="source-ruby.svg"
   inkscape:version="1.2.2 (b0a8486541, 2022-12-01)"
   xmlns:inkscape="http://www.inkscape.org/namespaces/inkscape"
   xmlns:sodipodi="http://sodipodi.sourceforge.net/DTD/sodipodi-0.dtd"
   xmlns="http://www.w3.org/2000/svg"
   xmlns:svg="http://www.w3.org/2000/svg">
  <defs
     id="defs18" />
  <sodipodi:namedview
     id="namedview16"
     pagecolor="#505050"
     bordercolor="#eeeeee"
     borderopacity="1"
     inkscape:showpageshadow="0"
     inkscape:pageopacity="0"
     inkscape:pagecheckerboard="0"
     inkscape:deskcolor="#505050"
     showgrid="false"
     inkscape:zoom="63.6875"
     inkscape:cx="7.4739941"
     inkscape:cy="8.0078508"
     inkscape:window-width="2560"
     inkscape:window-height="1361"
     inkscape:window-x="0"
     inkscape:window-y="0"
     inkscape:window-maximized="1"
     inkscape:current-layer="svg14" />
  <g
     fill="#ed1515"
     id="g12"
     style="fill:#c7484a">
    <path
       style="text-indent:0;text-align:start;line-height:normal;text-transform:none;block-progression:tb;marker:none;-inkscape-font-specification:Sans;fill:#c7484a"
       d="M2 7l6 7 6-7H2zm2.156 1h7.688L8 12.469z"
       font-weight="400"
       color="#000"
       stroke-width="2"
       overflow="visible"
       font-family="Sans"
       id="path2" />
    <path
       style="text-indent:0;text-align:start;line-height:normal;text-transform:none;block-progression:tb;marker:none;-inkscape-font-specification:Sans;fill:#c7484a"
       d="M4 5L2 7l.719.719L4.438 6h7.125l1.718 1.719L14 7l-2-2H4z"
       font-weight="400"
       color="#000"
       stroke-width="2"
       overflow="visible"
       font-family="Sans"
       id="path4" />
    <path
       d="M7.5 6h1v7h-1z"
       id="path6"
       style="fill:#c7484a" />
    <path
       style="text-indent:0;text-align:start;line-height:normal;text-transform:none;block-progression:tb;marker:none;-inkscape-font-specification:Sans;fill:#c7484a"
       d="M13.078 1.995L11.984 3.9l.875.5 1.094-1.938-.875-.468zM2.914 2.062l-.844.5 1.125 1.906.844-.5-1.125-1.906z"
       font-weight="400"
       color="#000"
       overflow="visible"
       font-family="Sans"
       id="path8" />
    <path
       d="M5.5 2h1v2h-1zM9.5 2h1v2h-1z"
       id="path10"
       style="fill:#c7484a" />
  </g>
</svg>
