<?xml version="1.0" encoding="UTF-8" standalone="no"?>
<svg
   width="64"
   height="64"
   version="1.1"
   viewBox="0 0 16.933 16.933"
   id="svg16"
   sodipodi:docname="cs-user.svg"
   inkscape:version="1.2.2 (b0a8486541, 2022-12-01)"
   xmlns:inkscape="http://www.inkscape.org/namespaces/inkscape"
   xmlns:sodipodi="http://sodipodi.sourceforge.net/DTD/sodipodi-0.dtd"
   xmlns="http://www.w3.org/2000/svg"
   xmlns:svg="http://www.w3.org/2000/svg">
  <defs
     id="defs20" />
  <sodipodi:namedview
     id="namedview18"
     pagecolor="#505050"
     bordercolor="#eeeeee"
     borderopacity="1"
     inkscape:showpageshadow="0"
     inkscape:pageopacity="0"
     inkscape:pagecheckerboard="0"
     inkscape:deskcolor="#505050"
     showgrid="false"
     inkscape:zoom="15.921875"
     inkscape:cx="29.895976"
     inkscape:cy="32.031403"
     inkscape:window-width="2560"
     inkscape:window-height="1361"
     inkscape:window-x="0"
     inkscape:window-y="0"
     inkscape:window-maximized="1"
     inkscape:current-layer="svg16" />
  <g
     transform="translate(0 -280.07)"
     paint-order="stroke markers fill"
     id="g14">
    <circle
       cx="8.4665"
       cy="288.53"
       r="7.1436"
       fill="#71a5e8"
       id="circle2"
       style="fill:#6272a4" />
    <path
       d="M8.467 282.713a5.82 5.82 0 0 0-5.821 5.82 5.82 5.82 0 0 0 2.131 4.498h.915a5.292 5.292 0 0 0 2.775.794 5.292 5.292 0 0 0 2.78-.794h.908a5.82 5.82 0 0 0 2.132-4.498 5.82 5.82 0 0 0-5.82-5.82z"
       opacity=".15"
       id="path4" />
    <path
       d="M9.743 289.475a1.587 1.587 0 0 1-1.276.646 1.587 1.587 0 0 1-1.276-.645 3.704 2.381 0 0 0-2.429 2.232h7.409a3.704 2.381 0 0 0-2.428-2.233z"
       fill="#fff"
       id="path6"
       style="fill:#f8f8f2" />
    <g
       transform="translate(.265 1.323)"
       fill="#fff"
       id="g12"
       style="fill:#f8f8f2">
      <circle
         cx="8.202"
         cy="284.83"
         r="1.587"
         id="circle8"
         style="fill:#f8f8f2" />
      <path
         d="m6.615 284.83a1.587 2.646 0 0 0 1.587 2.645 1.587 2.646 0 0 0 1.588-2.646z"
         id="path10"
         style="fill:#f8f8f2" />
    </g>
  </g>
</svg>
