<?xml version="1.0" encoding="UTF-8" standalone="no"?>
<svg
   width="64"
   height="64"
   version="1.1"
   viewBox="0 0 16.933 16.933"
   id="svg4957"
   sodipodi:docname="fonts.svg"
   inkscape:version="1.2.2 (b0a8486541, 2022-12-01)"
   xmlns:inkscape="http://www.inkscape.org/namespaces/inkscape"
   xmlns:sodipodi="http://sodipodi.sourceforge.net/DTD/sodipodi-0.dtd"
   xmlns="http://www.w3.org/2000/svg"
   xmlns:svg="http://www.w3.org/2000/svg">
  <defs
     id="defs4961" />
  <sodipodi:namedview
     id="namedview4959"
     pagecolor="#505050"
     bordercolor="#eeeeee"
     borderopacity="1"
     inkscape:showpageshadow="0"
     inkscape:pageopacity="0"
     inkscape:pagecheckerboard="0"
     inkscape:deskcolor="#505050"
     showgrid="false"
     inkscape:zoom="15.921875"
     inkscape:cx="29.895976"
     inkscape:cy="32.031403"
     inkscape:window-width="2560"
     inkscape:window-height="1361"
     inkscape:window-x="0"
     inkscape:window-y="0"
     inkscape:window-maximized="1"
     inkscape:current-layer="svg4957" />
  <circle
     cx="8.4665"
     cy="8.4665"
     r="7.1436"
     fill="#f9f9f9"
     style="paint-order:stroke fill markers;fill:#f8f8f2"
     id="circle4949" />
  <g
     transform="translate(0 -280.07)"
     fill="#333"
     font-family="sans-serif"
     font-weight="400"
     letter-spacing="0"
     stroke-width=".265"
     word-spacing="0"
     id="g4955">
    <path
       d="M5.82 284.787h4.435v.878h-3.39v2.274h3.059v.879h-3.06v3.684H5.822z"
       font-size="10.583"
       aria-label="F"
       id="path4951"
       style="fill:#282a36" />
    <path
       d="M11.377 289.77q-.408 0-.645.32-.237.317-.237.871t.234.874q.237.317.648.317.405 0 .642-.32t.237-.87q0-.549-.237-.869-.237-.322-.642-.322zm0-.43q.662 0 1.04.43.377.43.377 1.191 0 .758-.378 1.191-.377.43-1.039.43-.664 0-1.042-.43-.375-.433-.375-1.19 0-.761.375-1.191.378-.43 1.042-.43z"
       font-size="5.644"
       aria-label="o"
       id="path4953"
       style="fill:#282a36" />
  </g>
</svg>
