<?xml version="1.0" encoding="UTF-8" standalone="no"?>
<svg
   width="64"
   height="64"
   viewBox="0 0 64 64"
   fill="none"
   version="1.1"
   id="svg44"
   sodipodi:docname="gimp.svg"
   inkscape:version="1.2.2 (b0a8486541, 2022-12-01)"
   xmlns:inkscape="http://www.inkscape.org/namespaces/inkscape"
   xmlns:sodipodi="http://sodipodi.sourceforge.net/DTD/sodipodi-0.dtd"
   xmlns="http://www.w3.org/2000/svg"
   xmlns:svg="http://www.w3.org/2000/svg">
  <defs
     id="defs48" />
  <sodipodi:namedview
     id="namedview46"
     pagecolor="#505050"
     bordercolor="#eeeeee"
     borderopacity="1"
     inkscape:showpageshadow="0"
     inkscape:pageopacity="0"
     inkscape:pagecheckerboard="0"
     inkscape:deskcolor="#505050"
     showgrid="false"
     inkscape:zoom="15.921875"
     inkscape:cx="29.895976"
     inkscape:cy="32.031403"
     inkscape:window-width="2560"
     inkscape:window-height="1361"
     inkscape:window-x="0"
     inkscape:window-y="0"
     inkscape:window-maximized="1"
     inkscape:current-layer="svg44" />
  <path
     d="M32 60C46.9117 60 59 47.9117 59 33C59 18.0883 46.9117 6 32 6C17.0883 6 5 18.0883 5 33C5 47.9117 17.0883 60 32 60Z"
     fill="#F9F9F9"
     id="path2" />
  <path
     d="M36.2432 36.2555C37.4241 38.0002 39.7957 38.4572 41.5404 37.2763C43.285 36.0954 43.742 33.7237 42.5611 31.9791C41.3802 30.2344 39.0085 29.7774 37.2639 30.9583C35.5192 32.1392 35.0622 34.5108 36.2432 36.2555Z"
     fill="#E6E2E2"
     id="path6" />
  <path
     d="M37.587 36.2181C38.5445 37.6327 40.4674 38.0033 41.8819 37.0458C43.2965 36.0883 43.6671 34.1653 42.7095 32.7507C41.752 31.3361 39.8291 30.9656 38.4145 31.9231C36.9999 32.8806 36.6294 34.8035 37.587 36.2181Z"
     fill="#E6E2E2"
     id="path8" />
  <path
     d="M27.5818 34.4326C28.7627 36.1773 31.1344 36.6343 32.879 35.4534C34.6236 34.2725 35.0806 31.9009 33.8997 30.1562C32.7188 28.4115 30.3471 27.9545 28.6025 29.1354C26.8579 30.3163 26.4009 32.688 27.5818 34.4326Z"
     fill="#E6E2E2"
     id="path10" />
  <path
     d="M28.9253 34.3953C29.8828 35.8099 31.8057 36.1804 33.2203 35.223C34.6349 34.2655 35.0054 32.3425 34.0479 30.9279C33.0904 29.5133 31.1674 29.1428 29.7529 30.1003C28.3383 31.0578 27.9678 32.9807 28.9253 34.3953Z"
     fill="#E6E2E2"
     id="path12" />
  <path
     d="M17.7671 38.6746C18.8687 37.6644 18.9161 35.9236 17.8732 34.7864C16.8303 33.6492 15.0919 33.5462 13.9904 34.5564C12.8888 35.5666 12.8413 37.3074 13.8842 38.4446C14.9272 39.5819 16.6656 39.6848 17.7671 38.6746Z"
     fill="#E6E2E2"
     id="path14"
     style="fill:#f8f8f2" />
  <path
     d="M27.651 17.1452C26.2853 19.8932 25.7473 26.4318 22.3386 30.6193C18.93 34.8069 13.8881 33.5497 14.6515 34.8848C18.8931 41.1688 28.4694 45.015 35.675 44.5599C42.3947 44.1355 46.9755 40.9718 49.0168 35.6316C50.471 31.09 52.4669 17.1619 50.3671 19.6231C49.1056 20.6157 47.1613 22.8511 44.5242 24.2272C42.5472 25.2589 39.7885 25.2415 37.1975 25.114C31.9335 24.8551 31.6167 24.1471 30.6252 22.1173C29.9153 20.6639 28.1783 16.1364 27.651 17.1452Z"
     fill="#FFCCAA"
     id="path24"
     style="fill:#ffb86c" />
  <path
     d="M35.2473 34.6376C36.4282 36.3823 38.7999 36.8393 40.5445 35.6584C42.2892 34.4775 42.7462 32.1059 41.5653 30.3612C40.3843 28.6166 38.0127 28.1595 36.268 29.3404C34.5234 30.5213 34.0664 32.893 35.2473 34.6376Z"
     fill="white"
     id="path26"
     style="fill:#f8f8f2" />
  <path
     d="M36.5911 34.6002C37.5486 36.0148 39.4715 36.3854 40.8861 35.4279C42.3006 34.4705 42.6712 32.5475 41.7137 31.1329C40.7562 29.7183 38.8332 29.3478 37.4186 30.3052C36.0041 31.2627 35.6336 33.1856 36.5911 34.6002Z"
     fill="#666666"
     id="path28"
     style="fill:#44475a" />
  <path
     d="M26.5859 32.8149C27.7669 34.5595 30.1385 35.0165 31.8832 33.8356C33.6278 32.6548 34.0848 30.2831 32.9039 28.5384C31.723 26.7938 29.3513 26.3368 27.6067 27.5177C25.862 28.6986 25.405 31.0702 26.5859 32.8149Z"
     fill="white"
     id="path30"
     style="fill:#f8f8f2" />
  <path
     d="M27.9297 32.7775C28.8872 34.1921 30.8101 34.5626 32.2247 33.6052C33.6393 32.6477 34.0098 30.7247 33.0523 29.3101C32.0948 27.8955 30.1718 27.525 28.7573 28.4825C27.3427 29.4399 26.9722 31.3629 27.9297 32.7775Z"
     fill="#666666"
     id="path32"
     style="fill:#44475a" />
  <path
     d="M16.7713 37.0569C17.8728 36.0467 17.9203 34.3059 16.8774 33.1686C15.8344 32.0314 14.096 31.9284 12.9945 32.9386C11.893 33.9488 11.8455 35.6897 12.8884 36.8269C13.9313 37.9641 15.6698 38.0671 16.7713 37.0569Z"
     fill="#666666"
     id="path34"
     style="fill:#44475a" />
  <path
     d="M35.2252 41.2512C35.2252 41.2512 34.1586 42.239 32.9932 42.6506L44.5135 45.5572C45.1034 45.6958 45.5872 45.3337 45.7257 44.7437C45.8642 44.1538 45.5007 43.6699 44.9108 43.5314L35.2252 41.2512Z"
     fill="#737373"
     id="path36"
     style="fill:#44475a" />
  <path
     d="M25.2764 42.3273C27.2446 43.3262 29.37 43.9617 31.9743 43.1326C34.0661 42.4638 36.4879 40.7194 37.6593 39.2274C36.2759 40.2775 34.5669 41.1466 32.7271 41.7356C30.1268 42.565 27.4474 42.7777 25.2764 42.3273Z"
     fill="#666666"
     id="path38"
     style="fill:#282a36" />
  <path
     d="M51.9427 46.8865C51.2266 47.576 48.3347 47.6438 47.1311 47.4237C45.9074 47.1998 44.6917 46.4123 44.6917 45.2752C44.6917 44.1381 45.7477 43.4023 46.9968 43.4848C48.5097 43.5847 51.3161 45.7942 51.9427 46.8865Z"
     fill="white"
     id="path40"
     style="fill:#6272a4" />
  <path
     d="M48.9132 44.6718C48.363 45.1541 46.7505 45.8044 47.3691 46.6005C47.6248 46.8971 47.0858 47.4475 47.555 47.5513C48.9086 47.6935 51.2993 47.5062 51.9428 46.8865C51.5356 46.1766 49.6249 43.945 48.9132 44.6718Z"
     fill="#757575"
     id="path42"
     style="fill:#44475a" />
</svg>
