<?xml version="1.0" encoding="UTF-8" standalone="no"?>
<svg
   width="64"
   height="64"
   version="1.1"
   viewBox="0 0 16.933 16.933"
   id="svg14"
   sodipodi:docname="golang.svg"
   inkscape:version="1.2.2 (b0a8486541, 2022-12-01)"
   xmlns:inkscape="http://www.inkscape.org/namespaces/inkscape"
   xmlns:sodipodi="http://sodipodi.sourceforge.net/DTD/sodipodi-0.dtd"
   xmlns="http://www.w3.org/2000/svg"
   xmlns:svg="http://www.w3.org/2000/svg">
  <defs
     id="defs18" />
  <sodipodi:namedview
     id="namedview16"
     pagecolor="#505050"
     bordercolor="#eeeeee"
     borderopacity="1"
     inkscape:showpageshadow="0"
     inkscape:pageopacity="0"
     inkscape:pagecheckerboard="0"
     inkscape:deskcolor="#505050"
     showgrid="false"
     inkscape:zoom="15.921875"
     inkscape:cx="29.83317"
     inkscape:cy="32.031403"
     inkscape:window-width="1280"
     inkscape:window-height="1361"
     inkscape:window-x="1280"
     inkscape:window-y="0"
     inkscape:window-maximized="0"
     inkscape:current-layer="svg14" />
  <path
     d="m15.61 8.4665a7.1436 7.1436 0 0 1-7.1436 7.1436 7.1436 7.1436 0 0 1-7.1436-7.1436 7.1436 7.1436 0 0 1 7.1436-7.1436 7.1436 7.1436 0 0 1 7.1436 7.1436z"
     fill="#8b7ef1"
     stroke-width=".26458"
     id="path2"
     style="fill:#7b7bbd" />
  <rect
     x="4.4978"
     y="4.4978"
     width="7.9373"
     height="7.9373"
     rx="1.3229"
     ry="1.3229"
     fill="#282a36"
     style="paint-order:markers stroke fill"
     id="rect4" />
  <path
     d="m5.05 10.952h3.1059v0.62118h-3.1059z"
     fill="#f8f8f2"
     stroke-width=".26458"
     id="path6" />
  <g
     transform="matrix(.93886 0 0 .93886 .51767 .32783)"
     fill="#f8f8f2"
     stroke-width=".12043"
     aria-label="GO"
     id="g12">
    <path
       d="m6.7997 8.8011c0.50099 0 0.93455-0.14933 1.291-0.44319v-1.4837h-1.4259v0.5299h0.82375v0.71295c-0.1686 0.08671-0.37575 0.1397-0.60697 0.1397-0.6985 0-1.1465-0.46727-1.1465-1.2139 0-0.72259 0.4191-1.1321 1.161-1.1321 0.29385 0 0.63588 0.062624 0.89601 0.15415l0.17342-0.48654c-0.28904-0.1397-0.65515-0.21678-1.0309-0.21678-1.1224 0-1.8498 0.70332-1.8498 1.7535 0 1.0116 0.68405 1.686 1.7149 1.686z"
       id="path8" />
    <path
       d="m10.172 8.7963c1.0068 0 1.6764-0.6985 1.6764-1.7438 0-1.0116-0.65033-1.6909-1.6234-1.6909-0.99717 0-1.6571 0.6985-1.6571 1.7438 0 1.0164 0.64069 1.6909 1.6041 1.6909zm0.05299-0.54435c-0.60697 0-1.0068-0.47691-1.0068-1.1995 0-0.68887 0.38056-1.1417 0.95382-1.1417 0.62143 0 1.0261 0.47209 1.0261 1.1947 0 0.68887-0.38538 1.1465-0.97308 1.1465z"
       id="path10" />
  </g>
</svg>
