<?xml version="1.0" encoding="UTF-8" standalone="no"?>
<svg
   width="64"
   height="64"
   version="1.1"
   viewBox="0 0 16.933 16.933"
   id="svg16"
   sodipodi:docname="google-chrome.svg"
   inkscape:version="1.2.2 (b0a8486541, 2022-12-01)"
   xmlns:inkscape="http://www.inkscape.org/namespaces/inkscape"
   xmlns:sodipodi="http://sodipodi.sourceforge.net/DTD/sodipodi-0.dtd"
   xmlns="http://www.w3.org/2000/svg"
   xmlns:svg="http://www.w3.org/2000/svg">
  <defs
     id="defs20" />
  <sodipodi:namedview
     id="namedview18"
     pagecolor="#505050"
     bordercolor="#eeeeee"
     borderopacity="1"
     inkscape:showpageshadow="0"
     inkscape:pageopacity="0"
     inkscape:pagecheckerboard="0"
     inkscape:deskcolor="#505050"
     showgrid="false"
     inkscape:zoom="15.921875"
     inkscape:cx="25.625123"
     inkscape:cy="32.09421"
     inkscape:window-width="1280"
     inkscape:window-height="1361"
     inkscape:window-x="0"
     inkscape:window-y="0"
     inkscape:window-maximized="0"
     inkscape:current-layer="svg16" />
  <g
     transform="matrix(1.0001 0 0 1 .0019958 -.001996)"
     id="g14">
    <g
       fill-rule="evenodd"
       stroke-width=".28962"
       id="g8">
      <path
         d="m8.4624 1.3248c-2.3452 0-4.4126 1.1239-5.7136 2.8589l3.5705 5.3564 4.6433 0.92842-2.1431-5.215h6.021c-1.1729-2.332-3.5798-3.9287-6.3783-3.9287z"
         fill="#db4437"
         id="path2"
         style="fill:#c7484a" />
      <path
         d="m2.7511 4.182a7.1828 7.1828 0 0 0-1.4304 4.3085c0 3.9576 3.1861 7.1212 7.1437 7.1212l2.5001-5.1209-4.6433-0.95127z"
         fill="#0f9d58"
         id="path4"
         style="fill:#44c367" />
      <path
         d="m 8.8203,5.2526 2.1428,5.215 -2.5001,5.1431 a 7.1278,7.1278 0 0 0 7.1437,-7.1434 c 0,-1.1594 -0.2797,-2.2487 -0.76541,-3.215 z"
         fill="#ffcd40"
         id="path6"
         style="mix-blend-mode:darken;fill:#fdc88e;opacity:0.99999999" />
    </g>
    <path
       d="m8.4659 5.0273c1.9053 0 3.4392 1.534 3.4392 3.4394 0 1.9054-1.5338 3.4394-3.4392 3.4394-1.9053 0-3.4392-1.534-3.4392-3.4394 0-1.9054 1.5338-3.4394 3.4392-3.4394z"
       fill="#f8f8f2"
       stroke-width=".27889"
       id="path10"
       style="fill:#f8f8f2" />
    <path
       d="m8.4659 5.821c1.4659 0 2.6455 1.18 2.6455 2.6457 0 1.4657-1.1796 2.6457-2.6455 2.6457a2.6396 2.6398 0 0 1-2.6455-2.6457c0-1.4657 1.1799-2.6457 2.6455-2.6457z"
       fill="#2566d3"
       stroke-width=".27889"
       id="path12"
       style="fill:#168daa" />
  </g>
</svg>
