<?xml version="1.0" encoding="UTF-8" standalone="no"?>
<svg
   width="64"
   height="64"
   version="1.1"
   viewBox="0 0 16.933 16.933"
   id="svg13645"
   sodipodi:docname="krusader_user.svg"
   inkscape:version="1.2.2 (b0a8486541, 2022-12-01)"
   xmlns:inkscape="http://www.inkscape.org/namespaces/inkscape"
   xmlns:sodipodi="http://sodipodi.sourceforge.net/DTD/sodipodi-0.dtd"
   xmlns:xlink="http://www.w3.org/1999/xlink"
   xmlns="http://www.w3.org/2000/svg"
   xmlns:svg="http://www.w3.org/2000/svg">
  <sodipodi:namedview
     id="namedview13647"
     pagecolor="#505050"
     bordercolor="#eeeeee"
     borderopacity="1"
     inkscape:showpageshadow="0"
     inkscape:pageopacity="0"
     inkscape:pagecheckerboard="0"
     inkscape:deskcolor="#505050"
     showgrid="false"
     inkscape:zoom="15.921875"
     inkscape:cx="29.895976"
     inkscape:cy="32.031403"
     inkscape:window-width="2560"
     inkscape:window-height="1361"
     inkscape:window-x="0"
     inkscape:window-y="0"
     inkscape:window-maximized="1"
     inkscape:current-layer="svg13645" />
  <defs
     id="defs13629">
    <linearGradient
       id="b">
      <stop
         offset="0"
         id="stop13622" />
      <stop
         stop-opacity="0"
         offset="1"
         id="stop13624" />
    </linearGradient>
    <linearGradient
       id="c"
       x1="32"
       x2="32"
       y1="13"
       y2="9"
       gradientTransform="scale(.26458)"
       gradientUnits="userSpaceOnUse"
       xlink:href="#b" />
    <linearGradient
       id="a"
       x1="30"
       x2="57"
       y1="44"
       y2="44"
       gradientUnits="userSpaceOnUse"
       xlink:href="#b" />
  </defs>
  <circle
     cx="8.4665"
     cy="8.4665"
     r="6.6145"
     fill="#3578c7"
     style="paint-order:stroke markers fill;fill:#44475a"
     id="circle13631" />
  <path
     transform="scale(.26458)"
     d="m19.398 14a22 22 0 0 0-9.3984 18 22 22 0 0 0 22 22 22 22 0 0 0 22-22 22 22 0 0 0-9.3711-18z"
     fill="#f8f8f2"
     stroke-width="3.7796"
     style="paint-order:stroke markers fill;fill:#8894b8"
     id="path13633" />
  <path
     d="m8.4665 1.852a6.6145 6.6145 0 0 0-3.9444 1.3229h7.8976a6.6145 6.6145 0 0 0-3.9532-1.3229z"
     fill="url(#c)"
     opacity=".15"
     style="paint-order:stroke markers fill"
     id="path13635" />
  <path
     d="m8.466 4.2332c-0.29211 6.879e-4 -0.38134 0.27599-0.52916 0.52967l-0.30799 0.52812-5.5525 5.167e-4a7.1436 7.1436 0 0 0-0.75343 3.1749 7.1436 7.1436 0 0 0 7.1436 7.1436 7.1436 7.1436 0 0 0 7.1436-7.1436 7.1436 7.1436 0 0 0-1.3999-4.2332h-5.7432z"
     fill="#6272a4"
     style="paint-order:stroke markers fill;fill:#44475a"
     id="path13637" />
  <rect
     x="9.2599"
     y="4.762"
     width="3.969"
     height=".529"
     ry=".265"
     opacity=".25"
     style="paint-order:stroke markers fill"
     id="rect13639" />
  <path
     transform="scale(.26458)"
     d="m59 32-27 27a27 27 0 0 0 27-27z"
     fill="url(#a)"
     opacity=".15"
     stroke-width="3.7796"
     style="paint-order:stroke markers fill"
     id="path13641" />
  <path
     d="m8.2287 10.939c-0.30383 0.22536-0.76843 0.95881-0.91354 0.67199-0.072555-0.040972-0.18798-3.3313-0.029681-3.4583 0.1381-0.11063 3.1533 1.7332 3.0106 1.9258-0.01773 0.19668-0.70412 0.25814-1.0558 0.38926l0.75894 1.2579-0.94322 0.52448z"
     fill="#3d6fab"
     stroke="#f8f8f2"
     stroke-linejoin="round"
     stroke-width=".52916"
     style="paint-order:stroke fill markers;fill:#6272a4"
     id="path13643" />
</svg>
