<?xml version="1.0" encoding="UTF-8" standalone="no"?>
<svg
   width="64"
   height="64"
   version="1.1"
   viewBox="0 0 16.933 16.933"
   id="svg12"
   sodipodi:docname="kuickshow.svg"
   inkscape:version="1.2.2 (b0a8486541, 2022-12-01)"
   xmlns:inkscape="http://www.inkscape.org/namespaces/inkscape"
   xmlns:sodipodi="http://sodipodi.sourceforge.net/DTD/sodipodi-0.dtd"
   xmlns="http://www.w3.org/2000/svg"
   xmlns:svg="http://www.w3.org/2000/svg">
  <defs
     id="defs16" />
  <sodipodi:namedview
     id="namedview14"
     pagecolor="#505050"
     bordercolor="#eeeeee"
     borderopacity="1"
     inkscape:showpageshadow="0"
     inkscape:pageopacity="0"
     inkscape:pagecheckerboard="0"
     inkscape:deskcolor="#505050"
     showgrid="false"
     inkscape:zoom="12.96875"
     inkscape:cx="29.378313"
     inkscape:cy="32"
     inkscape:window-width="1920"
     inkscape:window-height="1001"
     inkscape:window-x="0"
     inkscape:window-y="0"
     inkscape:window-maximized="1"
     inkscape:current-layer="svg12" />
  <circle
     cx="8.4665"
     cy="8.4665"
     r="7.1436"
     fill="#ef746d"
     style="paint-order:stroke fill markers;fill:#ff5555"
     id="circle2" />
  <path
     d="m0 0h16.933v16.933h-16.933z"
     fill="none"
     id="path4" />
  <circle
     cx="12.171"
     cy="6.08"
     r="1.323"
     fill="#ffdb8a"
     style="paint-order:stroke markers fill;fill:#ffb86c"
     id="circle6" />
  <path
     d="m2.1487 5.1429a7.1437 7.1437 0 0 0-0.82578 3.3237 7.1437 7.1437 0 0 0 7.1437 7.1437 7.1437 7.1437 0 0 0 3.4618-0.90433 13.229 13.229 0 0 0-9.7797-9.5632z"
     fill="#f00"
     opacity=".15"
     stroke-width="1.8519"
     style="paint-order:stroke fill markers;fill:#b7474b;opacity:1"
     id="path8" />
  <path
     d="m15.584 8.9947a10.583 10.583 0 0 0-8.126 6.5349 7.1437 7.1437 0 0 0 1.0087 0.08061 7.1437 7.1437 0 0 0 7.1172-6.6156z"
     fill="#f00"
     opacity=".1"
     stroke-width="1.4815"
     style="paint-order:stroke fill markers;fill:#fd8b89;opacity:1"
     id="path10" />
</svg>
