<?xml version="1.0" encoding="UTF-8" standalone="no"?>
<svg
   width="64"
   height="64"
   viewBox="0 0 16.933 16.933"
   version="1.1"
   id="svg25"
   sodipodi:docname="login.svg"
   inkscape:version="1.2.2 (b0a8486541, 2022-12-01)"
   xmlns:inkscape="http://www.inkscape.org/namespaces/inkscape"
   xmlns:sodipodi="http://sodipodi.sourceforge.net/DTD/sodipodi-0.dtd"
   xmlns="http://www.w3.org/2000/svg"
   xmlns:svg="http://www.w3.org/2000/svg">
  <sodipodi:namedview
     id="namedview27"
     pagecolor="#505050"
     bordercolor="#eeeeee"
     borderopacity="1"
     inkscape:showpageshadow="0"
     inkscape:pageopacity="0"
     inkscape:pagecheckerboard="0"
     inkscape:deskcolor="#505050"
     showgrid="false"
     inkscape:zoom="15.921875"
     inkscape:cx="27.76055"
     inkscape:cy="32.031403"
     inkscape:window-width="2560"
     inkscape:window-height="1361"
     inkscape:window-x="0"
     inkscape:window-y="0"
     inkscape:window-maximized="1"
     inkscape:current-layer="svg25" />
  <defs
     id="defs7">
    <linearGradient
       id="a"
       x1="34.539"
       x2="43.998"
       y1="36.888"
       y2="36.888"
       gradientUnits="userSpaceOnUse">
      <stop
         offset="0"
         id="stop2"
         style="stop-color:#282a36;stop-opacity:1;" />
      <stop
         offset="1"
         stop-opacity="0"
         id="stop4"
         style="stop-color:#282a36;stop-opacity:0;" />
    </linearGradient>
  </defs>
  <path
     fill="#44475a"
     d="M8.38 1.323a7.144 7.144 0 1 1 0 14.286 7.144 7.144 0 0 1 0-14.286z"
     id="path9"
     style="fill:#44475a" />
  <path
     d="M8.467 3.175a5.26 5.26 0 0 0-2.643.712h-.947a5.809 5.809 0 0 0-2.231 4.58 5.81 5.81 0 0 0 2.23 4.58h.948a5.26 5.26 0 0 0 5.285 0h.948a5.809 5.809 0 0 0 2.23-4.58c0-1.86-.873-3.515-2.23-4.58h-.948a5.26 5.26 0 0 0-2.642-.712z"
     opacity=".15"
     id="path11" />
  <path
     fill="#f8f8f2"
     fill-opacity=".987"
     d="M6.086 5.821h4.761c.439 0 .794.356.794.794v3.703c0 .44-.355.794-.794.794H6.086a.793.793 0 0 1-.794-.794V6.615c0-.438.356-.794.794-.794m0 0"
     opacity=".35"
     id="path13"
     style="fill:#f8f8f2" />
  <path
     d="M7.673 8.864a.397.397 0 1 1-.794 0 .397.397 0 0 1 .794 0m1.058 0a.397.397 0 1 1-.794 0 .397.397 0 0 1 .794 0m1.059 0a.397.397 0 1 1-.794 0 .397.397 0 0 1 .794 0m0 0"
     opacity=".1"
     id="path15" />
  <path
     fill="#f8f8f2"
     d="M6.615 7.938h3.704c.146 0 .264.118.264.264v.794a.265.265 0 0 1-.264.264H6.615a.265.265 0 0 1-.265-.264v-.794c0-.146.119-.264.265-.264m0 0"
     id="path17"
     style="fill:#cbcccc" />
  <path
     fill="#2d2d2d"
     d="M7.408 8.599a.397.397 0 1 1-.794 0 .397.397 0 0 1 .794 0m1.059 0a.397.397 0 1 1-.794 0 .397.397 0 0 1 .794 0m1.058 0a.397.397 0 1 1-.794 0 .397.397 0 0 1 .794 0m0 0"
     id="path19"
     style="fill:#282a36" />
  <path
     fill="#f8f8f2"
     d="M6.414 7.144h1.99c.035 0 .064.028.064.063v.137a.064.064 0 0 1-.064.064h-1.99a.064.064 0 0 1-.064-.064v-.137c0-.035.029-.063.064-.063m0 0"
     id="path21"
     style="fill:#cbcccc" />
  <path
     fill="url(#a)"
     d="M43.998 31.777a17.5 17.5 0 0 1-9.459 10.221h6.459c1.656 0 3-1.34 3-3v-7.22z"
     opacity=".25"
     transform="scale(.26458)"
     id="path23" />
</svg>
