<?xml version="1.0" encoding="UTF-8" standalone="no"?>
<svg
   width="64"
   height="64"
   version="1.1"
   viewBox="0 0 16.933 16.933"
   id="svg16244"
   sodipodi:docname="nemo.svg"
   inkscape:version="1.2.2 (b0a8486541, 2022-12-01)"
   xmlns:inkscape="http://www.inkscape.org/namespaces/inkscape"
   xmlns:sodipodi="http://sodipodi.sourceforge.net/DTD/sodipodi-0.dtd"
   xmlns:xlink="http://www.w3.org/1999/xlink"
   xmlns="http://www.w3.org/2000/svg"
   xmlns:svg="http://www.w3.org/2000/svg">
  <sodipodi:namedview
     id="namedview16246"
     pagecolor="#505050"
     bordercolor="#eeeeee"
     borderopacity="1"
     inkscape:showpageshadow="0"
     inkscape:pageopacity="0"
     inkscape:pagecheckerboard="0"
     inkscape:deskcolor="#505050"
     showgrid="false"
     inkscape:zoom="15.921875"
     inkscape:cx="31.968597"
     inkscape:cy="32.031403"
     inkscape:window-width="1280"
     inkscape:window-height="1361"
     inkscape:window-x="0"
     inkscape:window-y="0"
     inkscape:window-maximized="0"
     inkscape:current-layer="svg16244" />
  <defs
     id="defs16230">
    <linearGradient
       id="b">
      <stop
         offset="0"
         id="stop16223" />
      <stop
         stop-opacity="0"
         offset="1"
         id="stop16225" />
    </linearGradient>
    <linearGradient
       id="c"
       x1="32"
       x2="32"
       y1="13"
       y2="9"
       gradientTransform="scale(.26458)"
       gradientUnits="userSpaceOnUse"
       xlink:href="#b" />
    <linearGradient
       id="a"
       x1="30"
       x2="57"
       y1="44"
       y2="44"
       gradientUnits="userSpaceOnUse"
       xlink:href="#b" />
  </defs>
  <circle
     cx="8.4665"
     cy="8.4665"
     r="6.6145"
     fill="#3fbd68"
     style="paint-order:stroke markers fill;fill:#44c367"
     id="circle16232" />
  <path
     transform="scale(.26458)"
     d="m19.398 14a22 22 0 0 0-9.3984 18 22 22 0 0 0 22 22 22 22 0 0 0 22-22 22 22 0 0 0-9.3711-18z"
     fill="#f8f8f2"
     stroke-width="3.7796"
     style="paint-order:stroke markers fill;fill:#f8f8f2"
     id="path16234" />
  <path
     d="m8.4665 1.852a6.6145 6.6145 0 0 0-3.9444 1.3229h7.8976a6.6145 6.6145 0 0 0-3.9532-1.3229z"
     fill="url(#c)"
     opacity=".15"
     style="paint-order:stroke markers fill"
     id="path16236" />
  <path
     d="m8.466 4.2332c-0.29211 6.879e-4 -0.38134 0.27599-0.52916 0.52967l-0.30799 0.52812-5.5525 5.167e-4a7.1436 7.1436 0 0 0-0.75343 3.1749 7.1436 7.1436 0 0 0 7.1436 7.1436 7.1436 7.1436 0 0 0 7.1436-7.1436 7.1436 7.1436 0 0 0-1.3999-4.2332h-5.7432z"
     fill="#52e27a"
     style="paint-order:stroke markers fill;fill:#50fa7b"
     id="path16238" />
  <rect
     x="9.2599"
     y="4.762"
     width="3.969"
     height=".529"
     ry=".265"
     opacity=".25"
     style="paint-order:stroke markers fill"
     id="rect16240" />
  <path
     transform="scale(.26458)"
     d="m59 32-27 27a27 27 0 0 0 27-27z"
     fill="url(#a)"
     opacity=".15"
     stroke-width="3.7796"
     style="paint-order:stroke markers fill"
     id="path16242" />
</svg>
