<?xml version="1.0" encoding="UTF-8" standalone="no"?>
<svg
   width="64"
   height="64"
   version="1"
   id="svg16"
   sodipodi:docname="obsidian.svg"
   inkscape:version="1.2.2 (b0a8486541, 2022-12-01)"
   xmlns:inkscape="http://www.inkscape.org/namespaces/inkscape"
   xmlns:sodipodi="http://sodipodi.sourceforge.net/DTD/sodipodi-0.dtd"
   xmlns="http://www.w3.org/2000/svg"
   xmlns:svg="http://www.w3.org/2000/svg">
  <defs
     id="defs20" />
  <sodipodi:namedview
     id="namedview18"
     pagecolor="#505050"
     bordercolor="#eeeeee"
     borderopacity="1"
     inkscape:showpageshadow="0"
     inkscape:pageopacity="0"
     inkscape:pagecheckerboard="0"
     inkscape:deskcolor="#505050"
     showgrid="false"
     inkscape:zoom="15.921875"
     inkscape:cx="29.895976"
     inkscape:cy="32.031403"
     inkscape:window-width="2560"
     inkscape:window-height="1361"
     inkscape:window-x="0"
     inkscape:window-y="0"
     inkscape:window-maximized="1"
     inkscape:current-layer="svg16" />
  <circle
     cx="32"
     cy="32"
     r="27"
     fill="#e7e2f6"
     id="circle2"
     style="fill:#f8f8f2" />
  <path
     fill="#251c50"
     d="M37.142 11.321a.84.84 0 0 0-.38.114L24.073 18.84a.925.925 0 0 0-.377.424v.002l-.008.017-4.714 10.63c-.11.25-.115.54-.01.792l7.37 17.785.097.234c.108.26.316.449.563.526l11.05 3.395a.83.83 0 0 0 .609-.048.918.918 0 0 0 .443-.47l1.95-4.584v-.002c.03-.072.054-.15.067-.228l3.983-24.498h.002a1.023 1.023 0 0 0-.156-.719L37.9 11.711a.879.879 0 0 0-.577-.38.828.828 0 0 0-.18-.01z"
     id="path4"
     style="fill:#f8f8f2" />
  <path
     fill="#4a37a0"
     d="m25.534 26.153.318 22.54.096.233a1.41 1.48 0 0 0 .896.83l11.05 3.396a1.41 1.48 0 0 0 .985-.077z"
     id="path6"
     style="fill:#6272a4" />
  <path
     fill="#6d55d2"
     d="m37.425 17.188-11.89 8.965 13.344 26.923a1.41 1.48 0 0 0 .699-.74l1.95-4.584a1.41 1.48 0 0 0 .105-.354l3.982-24.497a1.41 1.48 0 0 0 .02-.275z"
     id="path8"
     style="fill:#8894b8" />
  <path
     fill="#4a37a0"
     d="M37.116 10.79a1.41 1.48 0 0 0-.617.185L23.812 18.38a1.41 1.48 0 0 0-.594.669l-.009.018 2.326 7.087 11.89-8.966-.016-6.38a1.41 1.48 0 0 0-.293-.016z"
     id="path10"
     style="fill:#6272a4" />
  <path
     fill="#412e8b"
     d="m23.21 19.067-4.714 10.628a1.41 1.48 0 0 0-.015 1.214l7.371 17.783-.317-22.539z"
     id="path12"
     style="fill:#515d85" />
  <path
     fill="#9782f1"
     d="m37.408 10.808.017 6.38 8.21 5.437a1.41 1.48 0 0 0-.26-.83L38.333 11.41a1.41 1.48 0 0 0-.924-.603z"
     id="path14"
     style="fill:#8894b8;opacity:0.8" />
</svg>
