<?xml version="1.0" encoding="UTF-8" standalone="no"?>
<svg
   width="64"
   height="64"
   version="1.1"
   viewBox="0 0 16.933 16.933"
   id="svg12070"
   sodipodi:docname="securefx.svg"
   inkscape:version="1.2.2 (b0a8486541, 2022-12-01)"
   xmlns:inkscape="http://www.inkscape.org/namespaces/inkscape"
   xmlns:sodipodi="http://sodipodi.sourceforge.net/DTD/sodipodi-0.dtd"
   xmlns:xlink="http://www.w3.org/1999/xlink"
   xmlns="http://www.w3.org/2000/svg"
   xmlns:svg="http://www.w3.org/2000/svg">
  <sodipodi:namedview
     id="namedview12072"
     pagecolor="#505050"
     bordercolor="#eeeeee"
     borderopacity="1"
     inkscape:showpageshadow="0"
     inkscape:pageopacity="0"
     inkscape:pagecheckerboard="0"
     inkscape:deskcolor="#505050"
     showgrid="false"
     inkscape:zoom="15.921875"
     inkscape:cx="29.83317"
     inkscape:cy="32.031403"
     inkscape:window-width="1280"
     inkscape:window-height="1361"
     inkscape:window-x="0"
     inkscape:window-y="0"
     inkscape:window-maximized="0"
     inkscape:current-layer="svg12070" />
  <defs
     id="defs12042">
    <linearGradient
       id="a"
       x1="30"
       x2="57"
       y1="44"
       y2="44"
       gradientTransform="scale(.26458)"
       gradientUnits="userSpaceOnUse"
       xlink:href="#b" />
    <linearGradient
       id="b">
      <stop
         offset="0"
         id="stop12036" />
      <stop
         stop-opacity="0"
         offset="1"
         id="stop12038" />
    </linearGradient>
    <linearGradient
       id="c"
       x1="32"
       x2="32"
       y1="13"
       y2="9"
       gradientTransform="scale(.26458)"
       gradientUnits="userSpaceOnUse"
       xlink:href="#b" />
  </defs>
  <circle
     cx="8.4665"
     cy="8.4665"
     r="6.6145"
     fill="#3578c7"
     style="paint-order:stroke markers fill;fill:#44475a"
     id="circle12044" />
  <path
     d="m5.1323 3.7041a5.8208 5.8208 0 0 0-2.4866 4.7624 5.8208 5.8208 0 0 0 5.8208 5.8208 5.8208 5.8208 0 0 0 5.8208-5.8208 5.8208 5.8208 0 0 0-2.4794-4.7624z"
     fill="#f8f8f2"
     style="paint-order:stroke markers fill;fill:#8894b8"
     id="path12046" />
  <path
     d="m8.4665 1.852a6.6145 6.6145 0 0 0-3.9444 1.3229h7.8976a6.6145 6.6145 0 0 0-3.9532-1.3229z"
     fill="url(#c)"
     opacity=".15"
     style="paint-order:stroke markers fill"
     id="path12048" />
  <path
     d="m8.466 4.2332c-0.29211 6.879e-4 -0.38134 0.27599-0.52916 0.52967l-0.30799 0.52812-5.5525 5.167e-4a7.1436 7.1436 0 0 0-0.75343 3.1749 7.1436 7.1436 0 0 0 7.1436 7.1436 7.1436 7.1436 0 0 0 7.1436-7.1436 7.1436 7.1436 0 0 0-1.3999-4.2332h-5.7432z"
     fill="#6272a4"
     style="paint-order:stroke markers fill;fill:#44475a"
     id="path12050" />
  <rect
     x="9.2599"
     y="4.762"
     width="3.969"
     height=".529"
     ry=".265"
     opacity=".25"
     style="paint-order:stroke markers fill"
     id="rect12052" />
  <path
     d="m15.61 8.4666-7.1437 7.1437a7.1437 7.1437 0 0 0 7.1437-7.1437z"
     fill="url(#a)"
     opacity=".15"
     style="paint-order:stroke markers fill"
     id="path12054" />
  <path
     d="m6.3499 6.3499v1.0583c2.3381 0 4.2332 1.8952 4.2332 4.2332h1.0583c0-2.9235-2.3691-5.2916-5.2916-5.2916m0 2.1167v1.0583c1.1689 0 2.1167 0.94772 2.1167 2.1167h1.0583c0-1.7534-1.4216-3.1749-3.1749-3.1749m0 2.1167c-0.58445 0-1.0583 0.47386-1.0583 1.0583 0 0.58445 0.47386 1.0583 1.0583 1.0583 0.58445 0 1.0583-0.47386 1.0583-1.0583 0-0.58445-0.47386-1.0583-1.0583-1.0583"
     opacity=".15"
     stroke-width=".19843"
     id="path12056" />
  <g
     transform="translate(-1.0578)"
     id="g12068">
    <circle
       cx="13.493"
       cy="12.435"
       r="3.4395"
       fill="#44475a"
       style="paint-order:stroke fill markers;fill:#282a36"
       id="circle12058" />
    <path
       d="m13.493 10.451a1.3229 1.3229 0 0 0-1.3229 1.3229h-0.22014c-0.17106 0-0.30903 0.13796-0.30903 0.30903v2.0283c0 0.17106 0.13796 0.3085 0.30903 0.3085h3.0866c0.17106 0 0.3085-0.13745 0.3085-0.3085v-2.0283c0-0.17106-0.13745-0.30903-0.3085-0.30903h-0.22066a1.3229 1.3229 0 0 0-1.3229-1.3229zm0 0.26458a0.92603 0.92603 0 0 1 0.92603 0.92603 0.92603 0.92603 0 0 1-0.01085 0.13229h-1.8309a0.92603 0.92603 0 0 1-0.01033-0.13229 0.92603 0.92603 0 0 1 0.92603-0.92603z"
       fill="#f8f8f2"
       stroke-width=".26458"
       id="path12060" />
    <circle
       cx="13.493"
       cy="13.097"
       r="1.0583"
       fill="#717380"
       stroke-width=".26458"
       id="circle12062"
       style="fill:#717380" />
    <rect
       x="13.229"
       y="13.097"
       width=".52916"
       height=".79374"
       fill="#1a1a1a"
       stroke-width=".26458"
       id="rect12064"
       style="fill:#282a36" />
    <circle
       cx="13.493"
       cy="12.832"
       r=".52916"
       fill="#1a1a1a"
       stroke-width=".26458"
       id="circle12066"
       style="fill:#282a36" />
  </g>
</svg>
