<?xml version="1.0" encoding="UTF-8" standalone="no"?>
<svg
   width="64"
   height="64"
   version="1.1"
   viewBox="0 0 16.933 16.933"
   id="svg2254"
   sodipodi:docname="wine-winefile.svg"
   inkscape:version="1.2.2 (b0a8486541, 2022-12-01)"
   xmlns:inkscape="http://www.inkscape.org/namespaces/inkscape"
   xmlns:sodipodi="http://sodipodi.sourceforge.net/DTD/sodipodi-0.dtd"
   xmlns:xlink="http://www.w3.org/1999/xlink"
   xmlns="http://www.w3.org/2000/svg"
   xmlns:svg="http://www.w3.org/2000/svg">
  <sodipodi:namedview
     id="namedview2256"
     pagecolor="#505050"
     bordercolor="#eeeeee"
     borderopacity="1"
     inkscape:showpageshadow="0"
     inkscape:pageopacity="0"
     inkscape:pagecheckerboard="0"
     inkscape:deskcolor="#505050"
     showgrid="false"
     inkscape:zoom="15.921875"
     inkscape:cx="35.86261"
     inkscape:cy="32.031403"
     inkscape:window-width="1280"
     inkscape:window-height="1361"
     inkscape:window-x="1280"
     inkscape:window-y="0"
     inkscape:window-maximized="0"
     inkscape:current-layer="svg2254" />
  <defs
     id="defs2238">
    <linearGradient
       id="b">
      <stop
         offset="0"
         id="stop2231" />
      <stop
         stop-opacity="0"
         offset="1"
         id="stop2233" />
    </linearGradient>
    <linearGradient
       id="c"
       x1="32"
       x2="32"
       y1="13"
       y2="9"
       gradientTransform="scale(.26458)"
       gradientUnits="userSpaceOnUse"
       xlink:href="#b" />
    <linearGradient
       id="a"
       x1="30"
       x2="57"
       y1="44"
       y2="44"
       gradientUnits="userSpaceOnUse"
       xlink:href="#b" />
  </defs>
  <circle
     cx="8.4665"
     cy="8.4665"
     r="6.6145"
     fill="#44475a"
     style="paint-order:stroke markers fill"
     id="circle2240" />
  <path
     transform="scale(.26458)"
     d="m19.398 14a22 22 0 0 0-9.3984 18 22 22 0 0 0 22 22 22 22 0 0 0 22-22 22 22 0 0 0-9.3711-18z"
     fill="#7E82A0"
     stroke-width="3.7796"
     style="paint-order:stroke markers fill;fill:#8894b8"
     id="path2242" />
  <path
     d="m8.4665 1.852a6.6145 6.6145 0 0 0-3.9444 1.3229h7.8976a6.6145 6.6145 0 0 0-3.9532-1.3229z"
     fill="url(#c)"
     opacity=".15"
     style="paint-order:stroke markers fill"
     id="path2244" />
  <path
     d="m8.466 4.2332c-0.29211 6.879e-4 -0.38134 0.27599-0.52916 0.52967l-0.30799 0.52812-5.5525 5.167e-4a7.1436 7.1436 0 0 0-0.75343 3.1749 7.1436 7.1436 0 0 0 7.1436 7.1436 7.1436 7.1436 0 0 0 7.1436-7.1436 7.1436 7.1436 0 0 0-1.3999-4.2332h-5.7432z"
     fill="#44475a"
     style="paint-order:stroke markers fill"
     id="path2246" />
  <rect
     x="9.2599"
     y="4.762"
     width="3.969"
     height=".529"
     ry=".265"
     opacity=".25"
     style="paint-order:stroke markers fill"
     id="rect2248" />
  <path
     transform="scale(.26458)"
     d="m59 32-27 27a27 27 0 0 0 27-27z"
     fill="url(#a)"
     opacity=".15"
     stroke-width="3.7796"
     style="paint-order:stroke markers fill"
     id="path2250" />
  <path
     d="m6.087 9.441-2e-3 -1.699 1.905-0.284v1.983zm2.22-2.033 2.54-0.406v2.439h-2.54zm2.54 2.381v2.439l-2.54-0.392v-2.047zm-2.857 2.002-1.903-0.286v-1.716h1.903z"
     fill="#fff"
     id="path2252"
     style="fill:#f8f8f2" />
</svg>
