<?xml version="1.0" encoding="UTF-8" standalone="no"?>
<svg
   width="64"
   height="64"
   version="1"
   id="svg26"
   sodipodi:docname="audio-headphones.svg"
   inkscape:version="1.2.2 (b0a8486541, 2022-12-01)"
   xmlns:inkscape="http://www.inkscape.org/namespaces/inkscape"
   xmlns:sodipodi="http://sodipodi.sourceforge.net/DTD/sodipodi-0.dtd"
   xmlns="http://www.w3.org/2000/svg"
   xmlns:svg="http://www.w3.org/2000/svg">
  <sodipodi:namedview
     id="namedview28"
     pagecolor="#505050"
     bordercolor="#eeeeee"
     borderopacity="1"
     inkscape:showpageshadow="0"
     inkscape:pageopacity="0"
     inkscape:pagecheckerboard="0"
     inkscape:deskcolor="#505050"
     showgrid="false"
     inkscape:zoom="15.921875"
     inkscape:cx="29.895976"
     inkscape:cy="32.031403"
     inkscape:window-width="2560"
     inkscape:window-height="1361"
     inkscape:window-x="0"
     inkscape:window-y="0"
     inkscape:window-maximized="1"
     inkscape:current-layer="svg26" />
  <defs
     id="defs8">
    <clipPath
       id="a">
      <circle
         cx="8.467"
         cy="288.53"
         r="6.879"
         fill="#d86eb0"
         stroke-opacity=".039"
         stroke-width=".491"
         paint-order="stroke markers fill"
         id="circle2" />
    </clipPath>
    <clipPath
       id="b">
      <circle
         cx="8.467"
         cy="288.53"
         r="6.879"
         fill="#d86eb0"
         stroke-opacity=".039"
         stroke-width=".491"
         style="paint-order:stroke markers fill"
         id="circle5" />
    </clipPath>
  </defs>
  <circle
     cx="32"
     cy="32"
     r="27"
     fill="#f55"
     style="paint-order:stroke markers fill;fill:#c7484a"
     id="circle10" />
  <g
     fill="#fff"
     id="g16"
     style="fill:#f8f8f2">
    <path
       d="m32 17c-7.732 0-14 6.268-14 14v9c0 3.57 2.542 4.541 4 4.807v-13.807c0-5.54 4.46-10 10-10s10 4.46 10 10v13.812c1.458-.268 4-1.242 4-4.812v-9c0-7.732-6.268-14-14-14z"
       id="path12"
       style="fill:#f8f8f2" />
    <path
       d="m22 33v14h5v-14zm15 0v14h5v-14z"
       opacity=".75"
       id="path14"
       style="fill:#f8f8f2" />
  </g>
  <g
     transform="matrix(3.9251,0,0,3.9251,-1.2322,-1101)"
     clip-path="url(#b)"
     fill="none"
     stroke="#fff"
     stroke-opacity=".937"
     stroke-width=".127"
     id="g24">
    <path
       d="m1.4854 287.74c.719.15538 1.3906.6252 1.9826 1.9807.674 1.544 1.623 2.229 2.772 2.283 1.48.07 2.673-1.226 3.459-2.385 1.602-2.362 4.5188-2.1357 5.8165-1.2509"
       opacity=".35"
       id="path18" />
    <path
       d="m1.4927 288.13c.89388-.34988 2.0828-.42377 2.8723.82673.722 1.143 1.576 2.867 4.049 2.709 1.478-.095 2.956-.71 3.718-2.15.52913-.93299 1.2601-1.8714 2.2929-2.1036.38219-.0816.65524-.0703.97604.0566"
       opacity=".35"
       id="path20" />
    <path
       d="m1.7748 290.25c.94712-.44412 2.7457-.95337 4.1972-.52987 1.297.379 2.937 1.847 6.056 1.504.824-.09 1.522-.563 2.183-1.464.4785-.6525.75018-1.0197 1.3056-1.1669"
       opacity=".35"
       id="path22" />
  </g>
</svg>
