<?xml version="1.0" encoding="UTF-8" standalone="no"?>
<svg
   width="64"
   height="64"
   version="1"
   id="svg32"
   sodipodi:docname="audio-speakers.svg"
   inkscape:version="1.2.2 (b0a8486541, 2022-12-01)"
   xmlns:inkscape="http://www.inkscape.org/namespaces/inkscape"
   xmlns:sodipodi="http://sodipodi.sourceforge.net/DTD/sodipodi-0.dtd"
   xmlns="http://www.w3.org/2000/svg"
   xmlns:svg="http://www.w3.org/2000/svg"
   xmlns:rdf="http://www.w3.org/1999/02/22-rdf-syntax-ns#"
   xmlns:cc="http://creativecommons.org/ns#"
   xmlns:dc="http://purl.org/dc/elements/1.1/">
  <metadata
     id="metadata36">
    <rdf:RDF>
      <cc:Work
         rdf:about="">
        <dc:format>image/svg+xml</dc:format>
        <dc:type
           rdf:resource="http://purl.org/dc/dcmitype/StillImage" />
        <dc:title />
      </cc:Work>
    </rdf:RDF>
  </metadata>
  <sodipodi:namedview
     pagecolor="#f8f8f2"
     bordercolor="#717380"
     borderopacity="1"
     objecttolerance="10"
     gridtolerance="10"
     guidetolerance="10"
     inkscape:pageopacity="0"
     inkscape:pageshadow="2"
     inkscape:window-width="1280"
     inkscape:window-height="1361"
     id="namedview34"
     showgrid="false"
     inkscape:zoom="6.620345"
     inkscape:cx="19.636439"
     inkscape:cy="26.282618"
     inkscape:window-x="0"
     inkscape:window-y="0"
     inkscape:window-maximized="0"
     inkscape:current-layer="svg32"
     inkscape:showpageshadow="0"
     inkscape:pagecheckerboard="0"
     inkscape:deskcolor="#f8f8f2" />
  <defs
     id="defs8" />
  <circle
     cx="32"
     cy="32"
     r="26"
     fill="#ebeeef"
     paint-order="markers stroke fill"
     id="circle10"
     style="fill:#f8f8f2" />
  <path
     d="M48 38a16 15.986 0 1 1-32 0 16 15.986 0 1 1 32 0z"
     fill="#334d5c"
     id="path12"
     style="fill:#282a36" />
  <path
     d="M44 38a12 11.995 0 1 1-24 0 12 11.995 0 1 1 24 0z"
     fill="#efc84a"
     id="path14"
     style="fill:#ffb86c" />
  <path
     d="M38 38a6 5.995 0 1 1-12 0 6 5.995 0 1 1 12 0z"
     fill="#334d5c"
     id="path16"
     style="fill:#282a36" />
  <path
     d="M35 38a3 3 NaN 1 1-6 0 3 3 NaN 1 1 6 0z"
     fill="#f0f0f0"
     id="path18" />
  <path
     d="M38 14a6 5.998 0 1 1-12 0 6 5.998 0 1 1 12 0z"
     fill="#fff"
     id="path20"
     style="fill:#cbcccc" />
  <path
     d="M36 14a4 3.997 0 1 1-8 0 4 3.997 0 1 1 8 0z"
     fill="#334d5c"
     id="path22"
     style="fill:#282a36" />
  <path
     d="M34 14.001a2 1.998 0 1 1-4 0 2 1.998 0 1 1 4 0z"
     fill="#efc84a"
     id="path24"
     style="fill:#ffb86c" />
  <path
     d="M22 15a1 1 0 1 1-2 0 1 1 0 1 1 2 0zM44 15a1 1 0 1 1-2 0 1 1 0 1 1 2 0zM54 39a1 1 0 1 1-2 0 1 1 0 1 1 2 0zM13 39a1 1 0 1 1-2 0 1 1 0 1 1 2 0z"
     fill="#334d5c"
     id="path26"
     style="fill:#282a36" />
  <path
     d="M13.629 13.623A26 26 0 0 0 6 32a26 26 0 0 0 .426 4.633A16 15.986 0 0 0 16 22a16 15.986 0 0 0-2.371-8.377zM50.38 13.633A16 15.986 0 0 0 48 22a16 15.986 0 0 0 9.563 14.639A26 26 0 0 0 58 32a26 26 0 0 0-7.62-18.367z"
     opacity=".25"
     fill="#334d5c"
     id="path28"
     style="fill:#cbcccc;opacity:1" />
</svg>
