<?xml version="1.0" encoding="UTF-8" standalone="no"?>
<svg
   width="64"
   height="64"
   version="1"
   id="svg6662"
   sodipodi:docname="camera-web.svg"
   inkscape:version="1.2.2 (b0a8486541, 2022-12-01)"
   xmlns:inkscape="http://www.inkscape.org/namespaces/inkscape"
   xmlns:sodipodi="http://sodipodi.sourceforge.net/DTD/sodipodi-0.dtd"
   xmlns:xlink="http://www.w3.org/1999/xlink"
   xmlns="http://www.w3.org/2000/svg"
   xmlns:svg="http://www.w3.org/2000/svg">
  <sodipodi:namedview
     id="namedview6664"
     pagecolor="#505050"
     bordercolor="#eeeeee"
     borderopacity="1"
     inkscape:showpageshadow="0"
     inkscape:pageopacity="0"
     inkscape:pagecheckerboard="0"
     inkscape:deskcolor="#505050"
     showgrid="false"
     inkscape:zoom="15.921875"
     inkscape:cx="29.895976"
     inkscape:cy="32.031403"
     inkscape:window-width="2560"
     inkscape:window-height="1361"
     inkscape:window-x="0"
     inkscape:window-y="0"
     inkscape:window-maximized="1"
     inkscape:current-layer="svg6662" />
  <defs
     id="defs6646">
    <linearGradient
       id="a">
      <stop
         offset="0"
         id="stop6640"
         style="stop-color:#282a36;stop-opacity:1;" />
      <stop
         offset="1"
         stop-opacity="0"
         id="stop6642"
         style="stop-color:#282a36;stop-opacity:0;" />
    </linearGradient>
    <linearGradient
       xlink:href="#a"
       id="b"
       x1="27.166"
       y1="35.067"
       x2="58"
       y2="35.067"
       gradientUnits="userSpaceOnUse" />
  </defs>
  <g
     transform="matrix(.9286 0 0 .9286 2.286 2.284)"
     id="g6660">
    <path
       d="M32 4.002C16.487 4.002 4 16.489 4 32c0 15.511 12.488 28 28 28 15.51 0 27.998-12.489 27.998-28C59.998 16.489 47.511 4 32 4z"
       fill="#4f4f4f"
       id="path6648"
       style="fill:#44475a" />
    <circle
       r="17.999"
       cy="32.001"
       cx="31.999"
       opacity=".4"
       id="circle6650" />
    <circle
       transform="scale(1 -1)"
       r="14"
       cy="-32.001"
       cx="31.999"
       fill="#ba174e"
       id="circle6652"
       style="fill:#9576c5" />
    <circle
       r="8"
       cy="32.001"
       cx="31.999"
       fill="#d67495"
       id="circle6654"
       style="fill:#bd93f9" />
    <path
       d="M48.803 12.135a34.704 34.704 0 0 1 2.302 12.46 34.545 34.545 0 0 1-23.939 32.952A26.31 26.31 0 0 0 32 58c14.404 0 26-11.596 26-26a25.92 25.92 0 0 0-9.197-19.865z"
       transform="translate(-2.461 -2.46) scale(1.07689)"
       fill="url(#b)"
       opacity=".25"
       id="path6656" />
    <circle
       cx="35.23"
       cy="28.77"
       r="2.154"
       fill="#fff"
       opacity=".5"
       id="circle6658"
       style="fill:#f8f8f2" />
  </g>
</svg>
