<?xml version="1.0" encoding="UTF-8" standalone="no"?>
<svg
   width="64"
   height="64"
   version="1"
   id="svg6137"
   sodipodi:docname="camera-video.svg"
   inkscape:version="1.2.2 (b0a8486541, 2022-12-01)"
   xmlns:inkscape="http://www.inkscape.org/namespaces/inkscape"
   xmlns:sodipodi="http://sodipodi.sourceforge.net/DTD/sodipodi-0.dtd"
   xmlns="http://www.w3.org/2000/svg"
   xmlns:svg="http://www.w3.org/2000/svg">
  <defs
     id="defs6141" />
  <sodipodi:namedview
     id="namedview6139"
     pagecolor="#505050"
     bordercolor="#eeeeee"
     borderopacity="1"
     inkscape:showpageshadow="0"
     inkscape:pageopacity="0"
     inkscape:pagecheckerboard="0"
     inkscape:deskcolor="#505050"
     showgrid="false"
     inkscape:zoom="15.921875"
     inkscape:cx="29.895976"
     inkscape:cy="32.031403"
     inkscape:window-width="2560"
     inkscape:window-height="1361"
     inkscape:window-x="0"
     inkscape:window-y="0"
     inkscape:window-maximized="1"
     inkscape:current-layer="svg6137" />
  <circle
     cx="32"
     cy="32"
     r="27"
     fill="#4f4f4f"
     style="paint-order:stroke fill markers;fill:#44475a"
     id="circle6109" />
  <circle
     transform="matrix(0,-1,-1,0,0,0)"
     cx="-17"
     cy="-47"
     r="2"
     fill="#fff"
     stroke-width=".8"
     id="circle6111"
     style="fill:#f8f8f2" />
  <circle
     transform="matrix(0 -1 -1 0 0 0)"
     cx="-30.5"
     cy="-35.5"
     r="11.5"
     fill="#fff"
     id="circle6113"
     style="fill:#f8f8f2" />
  <circle
     transform="rotate(-90)"
     cx="-30.5"
     cy="35.5"
     r="8.5"
     fill="#007095"
     id="circle6115"
     style="fill:#6272a4" />
  <circle
     transform="matrix(0 -1 -1 0 0 0)"
     cx="-30.5"
     cy="-35.5"
     r="4.5"
     fill="#49acdc"
     id="circle6117"
     style="fill:#8894b8" />
  <path
     d="m15 13.699a25 25 0 0 0-8 18.301 25 25 0 0 0 8 18.287v-36.588z"
     fill="#3f3f3f"
     stroke-width="1.9003"
     id="path6119"
     style="opacity:0.5;fill:#282a36" />
  <circle
     cx="23.5"
     cy="50.5"
     r="1.5"
     opacity=".5"
     id="circle6121" />
  <circle
     cx="29.5"
     cy="50.5"
     r="1.5"
     opacity=".5"
     id="circle6123" />
  <circle
     cx="35.5"
     cy="50.5"
     r="1.5"
     opacity=".5"
     id="circle6125" />
  <circle
     cx="41.5"
     cy="50.5"
     r="1.5"
     opacity=".5"
     id="circle6127" />
  <circle
     cx="26.5"
     cy="54.5"
     r="1.5"
     opacity=".5"
     id="circle6129" />
  <circle
     cx="32.5"
     cy="54.5"
     r="1.5"
     opacity=".5"
     id="circle6131" />
  <circle
     cx="38.5"
     cy="54.5"
     r="1.5"
     opacity=".5"
     id="circle6133" />
  <circle
     transform="matrix(0,-1,-1,0,0,0)"
     cx="-17"
     cy="-47"
     r="1"
     fill="#ff4d4d"
     stroke-width=".66667"
     id="circle6135"
     style="fill:#ff5555" />
</svg>
