<?xml version="1.0" encoding="UTF-8" standalone="no"?>
<svg
   width="64"
   height="64"
   version="1"
   id="svg7694"
   sodipodi:docname="computer-laptop.svg"
   inkscape:version="1.2.2 (b0a8486541, 2022-12-01)"
   xmlns:inkscape="http://www.inkscape.org/namespaces/inkscape"
   xmlns:sodipodi="http://sodipodi.sourceforge.net/DTD/sodipodi-0.dtd"
   xmlns="http://www.w3.org/2000/svg"
   xmlns:svg="http://www.w3.org/2000/svg">
  <defs
     id="defs7698" />
  <sodipodi:namedview
     id="namedview7696"
     pagecolor="#505050"
     bordercolor="#eeeeee"
     borderopacity="1"
     inkscape:showpageshadow="0"
     inkscape:pageopacity="0"
     inkscape:pagecheckerboard="0"
     inkscape:deskcolor="#505050"
     showgrid="false"
     inkscape:zoom="15.921875"
     inkscape:cx="29.895976"
     inkscape:cy="32.031403"
     inkscape:window-width="2560"
     inkscape:window-height="1361"
     inkscape:window-x="0"
     inkscape:window-y="0"
     inkscape:window-maximized="1"
     inkscape:current-layer="svg7694" />
  <circle
     cx="32"
     cy="32"
     r="27"
     fill="#f2f2f2"
     style="paint-order:stroke fill markers;fill:#f8f8f2"
     id="circle7684" />
  <rect
     x="15"
     y="20"
     width="34"
     height="22"
     rx="1"
     ry="1"
     fill="#2f3337"
     stroke-width=".55827"
     id="rect7686"
     style="fill:#282a36" />
  <path
     d="m16 21h32v20h-32z"
     fill="#5294e2"
     fill-rule="evenodd"
     stroke-width=".59041"
     id="path7688"
     style="fill:#13b1d5" />
  <path
     d="m11 42v1c0 0.554 0.446 1 1 1h40c0.554 0 1-0.446 1-1v-1h-41z"
     fill="#fff"
     style="paint-order:stroke fill markers;fill:#f8f8f2"
     id="path7690" />
  <path
     d="m11 42v1c0 0.554 0.446 1 1 1h40c0.554 0 1-0.446 1-1v-1h-14c0 0.554-0.446 1-1 1h-12c-0.554 0-1-0.446-1-1h-13z"
     fill="#ccc"
     style="paint-order:stroke fill markers;fill:#cbcccc"
     id="path7692" />
</svg>
