<?xml version="1.0" encoding="UTF-8" standalone="no"?>
<svg
   width="64"
   height="64"
   version="1"
   id="svg8700"
   sodipodi:docname="drive-harddisk.svg"
   inkscape:version="1.2.2 (b0a8486541, 2022-12-01)"
   xmlns:inkscape="http://www.inkscape.org/namespaces/inkscape"
   xmlns:sodipodi="http://sodipodi.sourceforge.net/DTD/sodipodi-0.dtd"
   xmlns="http://www.w3.org/2000/svg"
   xmlns:svg="http://www.w3.org/2000/svg">
  <defs
     id="defs8704" />
  <sodipodi:namedview
     id="namedview8702"
     pagecolor="#505050"
     bordercolor="#eeeeee"
     borderopacity="1"
     inkscape:showpageshadow="0"
     inkscape:pageopacity="0"
     inkscape:pagecheckerboard="0"
     inkscape:deskcolor="#505050"
     showgrid="false"
     inkscape:zoom="15.921875"
     inkscape:cx="29.895976"
     inkscape:cy="32.031403"
     inkscape:window-width="2560"
     inkscape:window-height="1361"
     inkscape:window-x="0"
     inkscape:window-y="0"
     inkscape:window-maximized="1"
     inkscape:current-layer="svg8700" />
  <circle
     cx="32"
     cy="32"
     r="27"
     fill="#666"
     style="paint-order:stroke fill markers;fill:#717380"
     id="circle8692" />
  <circle
     cx="32"
     cy="32"
     r="21"
     fill="#fff"
     stroke-width="1.3125"
     style="paint-order:markers stroke fill;fill:#f8f8f2"
     id="circle8694" />
  <circle
     cx="32"
     cy="32"
     r="18"
     fill="#7eba72"
     stroke-width="1.2857"
     style="paint-order:markers stroke fill;fill:#44c367"
     id="circle8696" />
  <path
     d="m32 22a10 10 0 0 0-10 10v10h10a10 10 0 0 0 10-10 10 10 0 0 0-10-10zm0 5a5 5 0 0 1 5 5 5 5 0 0 1-5 5 5 5 0 0 1-5-5 5 5 0 0 1 5-5z"
     fill="#fff"
     style="paint-order:stroke fill markers;fill:#f8f8f2"
     id="path8698" />
</svg>
