<?xml version="1.0" encoding="UTF-8" standalone="no"?>
<svg
   width="64"
   height="64"
   version="1.0"
   id="svg9707"
   sodipodi:docname="drive-harddisk-solidstate.svg"
   inkscape:version="1.2.2 (b0a8486541, 2022-12-01)"
   xmlns:inkscape="http://www.inkscape.org/namespaces/inkscape"
   xmlns:sodipodi="http://sodipodi.sourceforge.net/DTD/sodipodi-0.dtd"
   xmlns="http://www.w3.org/2000/svg"
   xmlns:svg="http://www.w3.org/2000/svg"
   xmlns:rdf="http://www.w3.org/1999/02/22-rdf-syntax-ns#"
   xmlns:cc="http://creativecommons.org/ns#"
   xmlns:dc="http://purl.org/dc/elements/1.1/">
  <defs
     id="defs9711" />
  <sodipodi:namedview
     id="namedview9709"
     pagecolor="#505050"
     bordercolor="#eeeeee"
     borderopacity="1"
     inkscape:showpageshadow="0"
     inkscape:pageopacity="0"
     inkscape:pagecheckerboard="0"
     inkscape:deskcolor="#505050"
     showgrid="false"
     inkscape:zoom="15.921875"
     inkscape:cx="27.76055"
     inkscape:cy="32.031403"
     inkscape:window-width="2560"
     inkscape:window-height="1361"
     inkscape:window-x="0"
     inkscape:window-y="0"
     inkscape:window-maximized="1"
     inkscape:current-layer="svg9707" />
  <metadata
     id="metadata9697">
    <rdf:RDF>
      <cc:Work
         rdf:about="">
        <dc:format>image/svg+xml</dc:format>
        <dc:type
           rdf:resource="http://purl.org/dc/dcmitype/StillImage" />
        <dc:title />
      </cc:Work>
    </rdf:RDF>
  </metadata>
  <circle
     cx="32"
     cy="32"
     r="27"
     fill="#666"
     style="paint-order:stroke fill markers;fill:#717380"
     id="circle9699" />
  <circle
     cx="32"
     cy="32"
     r="21"
     fill="#fff"
     stroke-width="1.3125"
     style="paint-order:markers stroke fill;fill:#f8f8f2"
     id="circle9701" />
  <circle
     cx="32"
     cy="32"
     r="18"
     fill="#7297ba"
     stroke-width="1.2857"
     style="paint-order:markers stroke fill;fill:#168daa"
     id="circle9703" />
  <path
     d="m32 22a10 10 0 0 0-10 10v10h10a10 10 0 0 0 10-10 10 10 0 0 0-10-10zm0 5a5 5 0 0 1 5 5 5 5 0 0 1-5 5 5 5 0 0 1-5-5 5 5 0 0 1 5-5z"
     fill="#fff"
     style="paint-order:stroke fill markers;fill:#f8f8f2"
     id="path9705" />
</svg>
