<?xml version="1.0" encoding="UTF-8" standalone="no"?>
<svg
   width="64"
   height="64"
   version="1"
   id="svg20"
   sodipodi:docname="input-gaming.svg"
   inkscape:version="1.2.2 (b0a8486541, 2022-12-01)"
   xmlns:inkscape="http://www.inkscape.org/namespaces/inkscape"
   xmlns:sodipodi="http://sodipodi.sourceforge.net/DTD/sodipodi-0.dtd"
   xmlns="http://www.w3.org/2000/svg"
   xmlns:svg="http://www.w3.org/2000/svg">
  <defs
     id="defs24" />
  <sodipodi:namedview
     id="namedview22"
     pagecolor="#505050"
     bordercolor="#eeeeee"
     borderopacity="1"
     inkscape:showpageshadow="0"
     inkscape:pageopacity="0"
     inkscape:pagecheckerboard="0"
     inkscape:deskcolor="#505050"
     showgrid="false"
     inkscape:zoom="15.921875"
     inkscape:cx="29.07949"
     inkscape:cy="32.09421"
     inkscape:window-width="1280"
     inkscape:window-height="1361"
     inkscape:window-x="0"
     inkscape:window-y="0"
     inkscape:window-maximized="0"
     inkscape:current-layer="svg20" />
  <circle
     cx="32"
     cy="32"
     r="26"
     fill="#4d4d4d"
     paint-order="stroke markers fill"
     id="circle2"
     style="fill:#717380" />
  <path
     d="M15.385 29.5L14.08 39.658c-.053.21-.08.425-.081.641 0 1.491 1.24 2.7 2.77 2.7.822 0 1.602-.358 2.128-.976l.002.004 7.562-8.479zm33.23 0l-11.077 4.05 7.562 8.479.003-.004a2.798 2.798 0 0 0 2.128.976C48.76 43 50 41.79 50 40.3a2.62 2.62 0 0 0-.081-.64z"
     fill="#fff"
     id="path4"
     style="fill:#f8f8f2" />
  <path
     d="M23.5 19a8.5 8.5 0 0 0 0 17 8.498 8.498 0 0 0 4.69-1.417h7.62A8.5 8.5 0 0 0 40.5 36a8.5 8.5 0 0 0 0-17h-9.917z"
     fill="#fff"
     id="path6"
     style="fill:#f8f8f2" />
  <path
     d="M41 22a1.5 1.5 0 0 0-1.5 1.5A1.5 1.5 0 0 0 41 25a1.5 1.5 0 0 0 1.5-1.5A1.5 1.5 0 0 0 41 22z"
     fill="#27ae60"
     id="path8"
     style="fill:#46c66a" />
  <path
     d="M38 25a1.5 1.5 0 0 0-1.5 1.5A1.5 1.5 0 0 0 38 28a1.5 1.5 0 0 0 1.5-1.5A1.5 1.5 0 0 0 38 25z"
     fill="#f36137"
     id="path10"
     style="fill:#ff5555" />
  <path
     d="M44 25a1.5 1.5 0 0 0-1.5 1.5A1.5 1.5 0 0 0 44 28a1.5 1.5 0 0 0 1.5-1.5A1.5 1.5 0 0 0 44 25z"
     fill="#f05242"
     id="path12"
     style="fill:#c7484a" />
  <path
     d="M41 28a1.5 1.5 0 0 0-1.5 1.5A1.5 1.5 0 0 0 41 31a1.5 1.5 0 0 0 1.5-1.5A1.5 1.5 0 0 0 41 28z"
     fill="#2980b9"
     id="path14"
     style="fill:#6272a4" />
  <circle
     cx="23"
     cy="26"
     r="3"
     fill="#f88e45"
     paint-order="stroke markers fill"
     id="circle16"
     style="fill:#ffb86c" />
  <path
     d="M27 32a2 2 0 0 0-2 2 2 2 0 0 0 2 2 2 2 0 0 0 2-2 2 2 0 0 0-2-2zM37 32a2 2 0 0 0-2 2 2 2 0 0 0 2 2 2 2 0 0 0 2-2 2 2 0 0 0-2-2z"
     fill="#666"
     stroke="#e1e1e1"
     stroke-width="2"
     stroke-linecap="square"
     paint-order="markers stroke fill"
     id="path18"
     style="fill:#44475a;stroke:#cbcccc" />
</svg>
