<?xml version="1.0" encoding="UTF-8" standalone="no"?>
<svg
   width="64"
   height="64"
   version="1"
   id="svg30"
   sodipodi:docname="input-dialpad.svg"
   inkscape:version="1.2.2 (b0a8486541, 2022-12-01)"
   xmlns:inkscape="http://www.inkscape.org/namespaces/inkscape"
   xmlns:sodipodi="http://sodipodi.sourceforge.net/DTD/sodipodi-0.dtd"
   xmlns="http://www.w3.org/2000/svg"
   xmlns:svg="http://www.w3.org/2000/svg">
  <defs
     id="defs34" />
  <sodipodi:namedview
     id="namedview32"
     pagecolor="#505050"
     bordercolor="#eeeeee"
     borderopacity="1"
     inkscape:showpageshadow="0"
     inkscape:pageopacity="0"
     inkscape:pagecheckerboard="0"
     inkscape:deskcolor="#505050"
     showgrid="false"
     inkscape:zoom="15.921875"
     inkscape:cx="29.895976"
     inkscape:cy="32.031403"
     inkscape:window-width="2560"
     inkscape:window-height="1361"
     inkscape:window-x="0"
     inkscape:window-y="0"
     inkscape:window-maximized="1"
     inkscape:current-layer="svg30" />
  <circle
     cx="32"
     cy="32"
     r="27"
     fill="#4f4f4f"
     stroke-width="3.7796"
     style="paint-order:stroke fill markers;fill:#44475a"
     id="circle2" />
  <rect
     x="39"
     y="44"
     width="8"
     height="8"
     rx="1"
     ry="1"
     fill="#ff5a5a"
     id="rect4"
     style="fill:#ff5555" />
  <rect
     x="17"
     y="44"
     width="8"
     height="8"
     rx="1"
     ry="1"
     fill="#64c90e"
     id="rect6"
     style="fill:#44c367" />
  <g
     fill="#fff"
     id="g28"
     style="fill:#f8f8f2">
    <rect
       x="28"
       y="22"
       width="8"
       height="8"
       rx="1"
       ry="1"
       id="rect8"
       style="fill:#f8f8f2" />
    <rect
       x="39"
       y="22"
       width="8"
       height="8"
       rx="1"
       ry="1"
       id="rect10"
       style="fill:#f8f8f2" />
    <rect
       x="17"
       y="22"
       width="8"
       height="8"
       rx="1"
       ry="1"
       id="rect12"
       style="fill:#f8f8f2" />
    <rect
       x="28"
       y="33"
       width="8"
       height="8"
       rx="1"
       ry="1"
       id="rect14"
       style="fill:#f8f8f2" />
    <rect
       x="39"
       y="33"
       width="8"
       height="8"
       rx="1"
       ry="1"
       id="rect16"
       style="fill:#f8f8f2" />
    <rect
       x="17"
       y="33"
       width="8"
       height="8"
       rx="1"
       ry="1"
       id="rect18"
       style="fill:#f8f8f2" />
    <rect
       x="28"
       y="11"
       width="8"
       height="8"
       rx="1"
       ry="1"
       id="rect20"
       style="fill:#f8f8f2" />
    <rect
       x="39"
       y="11"
       width="8"
       height="8"
       rx="1"
       ry="1"
       id="rect22"
       style="fill:#f8f8f2" />
    <rect
       x="17"
       y="11"
       width="8"
       height="8"
       rx="1"
       ry="1"
       id="rect24"
       style="fill:#f8f8f2" />
    <rect
       x="28"
       y="44"
       width="8"
       height="8"
       rx="1"
       ry="1"
       id="rect26"
       style="fill:#f8f8f2" />
  </g>
</svg>
