<?xml version="1.0" encoding="UTF-8" standalone="no"?>
<svg
   width="64"
   height="64"
   version="1"
   id="svg18"
   sodipodi:docname="input-mouse.svg"
   inkscape:version="1.2.2 (b0a8486541, 2022-12-01)"
   xmlns:inkscape="http://www.inkscape.org/namespaces/inkscape"
   xmlns:sodipodi="http://sodipodi.sourceforge.net/DTD/sodipodi-0.dtd"
   xmlns="http://www.w3.org/2000/svg"
   xmlns:svg="http://www.w3.org/2000/svg">
  <defs
     id="defs22" />
  <sodipodi:namedview
     id="namedview20"
     pagecolor="#505050"
     bordercolor="#eeeeee"
     borderopacity="1"
     inkscape:showpageshadow="0"
     inkscape:pageopacity="0"
     inkscape:pagecheckerboard="0"
     inkscape:deskcolor="#505050"
     showgrid="false"
     inkscape:zoom="15.921875"
     inkscape:cx="29.83317"
     inkscape:cy="32.031403"
     inkscape:window-width="1280"
     inkscape:window-height="1361"
     inkscape:window-x="0"
     inkscape:window-y="0"
     inkscape:window-maximized="0"
     inkscape:current-layer="svg18" />
  <circle
     cx="32"
     cy="32"
     r="27"
     fill="#f9f9f9"
     stroke-width="3.7796"
     style="paint-order:stroke fill markers;fill:#cbcccc"
     id="circle2" />
  <g
     transform="matrix(.88889 0 0 .88889 3.5556 3.5556)"
     id="g16">
    <g
       stroke-width="1.0022"
       id="g10">
      <path
         d="m32 3.875c-0.024 0-0.05 0.00402-0.074 0.00402h-8e-3c-8.972 0.056248-17.918 9.3958-17.918 16.405v23.173c0 9.5243 6.75 16.668 18 16.668 11.25 2e-3 18-7.1397 18-16.664v-22.538c0-7.2844-8.988-16.981-18-17.04z"
         fill="#4f4f4f"
         id="path4"
         style="fill:#44475a" />
      <path
         d="m32 3.883-0.073 0.00301h-8e-3c-8.972 0.056253-17.919 9.3958-17.919 16.405v11.717h36v-11.077c0-7.2844-8.988-16.981-18-17.04z"
         opacity=".1"
         id="path6" />
      <path
         d="m32 3.883-0.073 0.00301h-8e-3c-8.972 0.056253-17.919 9.3958-17.919 16.405v11.717h18v-28.117z"
         opacity=".1"
         id="path8" />
    </g>
    <path
       d="m32 10.5c1.8596 0 3.375 1.297 3.375 2.8942v7.7147c0 1.5951-1.5154 2.8911-3.375 2.8911s-3.375-1.296-3.375-2.8932v-7.7158c0-1.5951 1.5154-2.8911 3.375-2.8911"
       fill="#1dd0d0"
       stroke-width="1.0809"
       id="path12"
       style="fill:#8be9fd" />
    <circle
       cx="32"
       cy="54.5"
       r="1.125"
       fill="#1dd0d0"
       stroke-width="1.125"
       style="paint-order:markers stroke fill;fill:#8be9fd"
       id="circle14" />
  </g>
</svg>
