<?xml version="1.0" encoding="UTF-8" standalone="no"?>
<svg
   width="64"
   height="64"
   version="1"
   id="svg12"
   sodipodi:docname="input-touchpad.svg"
   inkscape:version="1.2.2 (b0a8486541, 2022-12-01)"
   xmlns:inkscape="http://www.inkscape.org/namespaces/inkscape"
   xmlns:sodipodi="http://sodipodi.sourceforge.net/DTD/sodipodi-0.dtd"
   xmlns="http://www.w3.org/2000/svg"
   xmlns:svg="http://www.w3.org/2000/svg">
  <defs
     id="defs16" />
  <sodipodi:namedview
     id="namedview14"
     pagecolor="#505050"
     bordercolor="#eeeeee"
     borderopacity="1"
     inkscape:showpageshadow="0"
     inkscape:pageopacity="0"
     inkscape:pagecheckerboard="0"
     inkscape:deskcolor="#505050"
     showgrid="false"
     inkscape:zoom="15.921875"
     inkscape:cx="29.895976"
     inkscape:cy="32.031403"
     inkscape:window-width="2560"
     inkscape:window-height="1361"
     inkscape:window-x="0"
     inkscape:window-y="0"
     inkscape:window-maximized="1"
     inkscape:current-layer="svg12" />
  <circle
     cx="32"
     cy="32"
     r="27"
     fill="#4f4f4f"
     stroke-width="3.7796"
     style="paint-order:stroke fill markers;fill:#44475a"
     id="circle2" />
  <g
     stroke-width="2"
     id="g10">
    <path
       d="m11.5 44c-0.44407 0-0.85414 0.12477-1.2148 0.32617a25 25 0 0 0 14.785 11.674h3.4297c1.385 0 2.5-1.115 2.5-2.5v-7c0-1.385-1.115-2.5-2.5-2.5h-17z"
       opacity=".35"
       id="path4" />
    <path
       d="m35.5 44c-1.385 0-2.5 1.115-2.5 2.5v7c0 1.385 1.115 2.5 2.5 2.5h3.457a25 25 0 0 0 14.77-11.668c-0.36332-0.20537-0.77781-0.33203-1.2266-0.33203h-17z"
       opacity=".35"
       id="path6" />
    <path
       d="m48 14v2h3.1797a25 25 0 0 0-1.8711-2h-1.3086zm0 4v2h5.9004a25 25 0 0 0-1.2148-2h-4.6855zm0 4v2h7.6523a25 25 0 0 0-0.77344-2h-6.8789zm0 4v2h8v-2h-8zm0 4v2h8v-2h-8zm0 4v2h8v-2h-8z"
       opacity=".35"
       id="path8" />
  </g>
</svg>
