<?xml version="1.0" encoding="UTF-8" standalone="no"?>
<svg
   width="64"
   height="64"
   version="1"
   id="svg10"
   sodipodi:docname="media-floppy.svg"
   inkscape:version="1.2.2 (b0a8486541, 2022-12-01)"
   xmlns:inkscape="http://www.inkscape.org/namespaces/inkscape"
   xmlns:sodipodi="http://sodipodi.sourceforge.net/DTD/sodipodi-0.dtd"
   xmlns="http://www.w3.org/2000/svg"
   xmlns:svg="http://www.w3.org/2000/svg">
  <defs
     id="defs14" />
  <sodipodi:namedview
     id="namedview12"
     pagecolor="#505050"
     bordercolor="#eeeeee"
     borderopacity="1"
     inkscape:showpageshadow="0"
     inkscape:pageopacity="0"
     inkscape:pagecheckerboard="0"
     inkscape:deskcolor="#505050"
     showgrid="false"
     inkscape:zoom="15.921875"
     inkscape:cx="29.895976"
     inkscape:cy="32.031403"
     inkscape:window-width="2560"
     inkscape:window-height="1361"
     inkscape:window-x="0"
     inkscape:window-y="0"
     inkscape:window-maximized="1"
     inkscape:current-layer="svg10" />
  <circle
     cx="32"
     cy="32"
     r="27"
     fill="#4f4f4f"
     stroke-width="3.7796"
     style="paint-order:stroke fill markers;fill:#44475a"
     id="circle2" />
  <path
     d="m14.5 30c-1.385 0-2.5 1.115-2.5 2.5v14.459a25 25 0 0 0 8.1387 7.041h23.689a25 25 0 0 0 8.1719-7.0508v-14.449c0-1.385-1.115-2.5-2.5-2.5h-35z"
     fill="#fff"
     id="path4"
     style="fill:#f8f8f2" />
  <path
     d="m12.82 48a25 25 0 0 0 19.18 9 25 25 0 0 0 19.201-9h-38.381z"
     fill="#ffae3f"
     stroke-width="1.4284"
     id="path6"
     style="fill:#ffb86c" />
  <path
     d="m32 7a25 25 0 0 0-12 3.0996v13.4c0 1.386 1.114 2.5 2.5 2.5h27c1.384 0 2.5-1.114 2.5-2.5v-6.459a25 25 0 0 0-20-10.041zm5 3.5996a22 22 0 0 1 12 7.4609v2.9395c0 1.108-0.892 2-2 2h-8c-1.108 0-2-0.892-2-2v-10.4z"
     fill="#fff"
     opacity=".35"
     id="path8"
     style="fill:#f8f8f2" />
</svg>
