<?xml version="1.0" encoding="UTF-8" standalone="no"?>
<svg
   width="64"
   height="64"
   version="1.1"
   id="svg20"
   sodipodi:docname="media-tape.svg"
   inkscape:version="1.2.2 (b0a8486541, 2022-12-01)"
   xmlns:inkscape="http://www.inkscape.org/namespaces/inkscape"
   xmlns:sodipodi="http://sodipodi.sourceforge.net/DTD/sodipodi-0.dtd"
   xmlns="http://www.w3.org/2000/svg"
   xmlns:svg="http://www.w3.org/2000/svg">
  <defs
     id="defs24" />
  <sodipodi:namedview
     id="namedview22"
     pagecolor="#505050"
     bordercolor="#eeeeee"
     borderopacity="1"
     inkscape:showpageshadow="0"
     inkscape:pageopacity="0"
     inkscape:pagecheckerboard="0"
     inkscape:deskcolor="#505050"
     showgrid="false"
     inkscape:zoom="15.921875"
     inkscape:cx="27.76055"
     inkscape:cy="32.031403"
     inkscape:window-width="2560"
     inkscape:window-height="1361"
     inkscape:window-x="0"
     inkscape:window-y="0"
     inkscape:window-maximized="1"
     inkscape:current-layer="svg20" />
  <circle
     cx="32"
     cy="32"
     r="27"
     fill="#3f3f3f"
     stroke-width="3.7796"
     style="paint-order:stroke fill markers;fill:#282a36"
     id="circle2" />
  <path
     d="m14.412 45-2.625 4.8496a27 27 0 0 0 20.213 9.1504 27 27 0 0 0 20.217-9.1406l-2.6289-4.8594h-35.176z"
     fill="#4f4f4f"
     id="path4"
     style="fill:#44475a" />
  <path
     d="m32 7a25 25 0 0 0-23 15.207v2.793h46v-2.7305a25 25 0 0 0-23-15.27z"
     fill="#0071e2"
     stroke-width="1.4394"
     style="paint-order:markers fill stroke;fill:#13b1d5"
     id="path6" />
  <path
     d="m9 25v14.45c0 1.414 1.028 2.55 2.307 2.55h41.386c1.28 0 2.307-1.136 2.307-2.55v-14.45zm11 1.5a4.5 4.5 0 0 1 4.5 4.5 4.5 4.5 0 0 1-4.5 4.5 4.5 4.5 0 0 1-4.5-4.5 4.5 4.5 0 0 1 4.5-4.5zm24 0a4.5 4.5 0 0 1 4.5 4.5 4.5 4.5 0 0 1-4.5 4.5 4.5 4.5 0 0 1-4.5-4.5 4.5 4.5 0 0 1 4.5-4.5z"
     fill="#1eb29b"
     style="paint-order:markers fill stroke;fill:#44c367"
     id="path8" />
  <circle
     cx="19.5"
     cy="49.5"
     r="2.5"
     opacity=".4"
     style="paint-order:markers fill stroke"
     id="circle10" />
  <path
     d="m20 25a6 6 0 0 0-6 6 6 6 0 0 0 6 6h24a6 6 0 0 0 6-6 6 6 0 0 0-6-6zm0 2a4 4 0 0 1 4 4 4 4 0 0 1-4 4 4 4 0 0 1-4-4 4 4 0 0 1 4-4zm24 0a4 4 0 0 1 4 4 4 4 0 0 1-4 4 4 4 0 0 1-4-4 4 4 0 0 1 4-4z"
     fill="#3f3f3f"
     id="path12"
     style="fill:#44475a" />
  <path
     d="m24.995 27.998h14v6h-14z"
     fill="#ccc"
     style="paint-order:markers fill stroke;fill:#cbcccc"
     id="path14" />
  <path
     d="m25 28v6h5.51a9.58 9.58 0 0 0 0.49-3 9.58 9.58 0 0 0-0.49-3z"
     fill="#874f29"
     style="paint-order:markers fill stroke;fill:#c7925b"
     id="path16" />
  <circle
     cx="44.5"
     cy="49.5"
     r="2.5"
     opacity=".4"
     style="paint-order:markers fill stroke"
     id="circle18" />
</svg>
