<?xml version="1.0" encoding="UTF-8" standalone="no"?>
<svg
   width="64"
   height="64"
   version="1"
   id="svg18"
   sodipodi:docname="network-vpn.svg"
   inkscape:version="1.2.2 (b0a8486541, 2022-12-01)"
   xmlns:inkscape="http://www.inkscape.org/namespaces/inkscape"
   xmlns:sodipodi="http://sodipodi.sourceforge.net/DTD/sodipodi-0.dtd"
   xmlns:xlink="http://www.w3.org/1999/xlink"
   xmlns="http://www.w3.org/2000/svg"
   xmlns:svg="http://www.w3.org/2000/svg">
  <sodipodi:namedview
     id="namedview20"
     pagecolor="#505050"
     bordercolor="#eeeeee"
     borderopacity="1"
     inkscape:showpageshadow="0"
     inkscape:pageopacity="0"
     inkscape:pagecheckerboard="0"
     inkscape:deskcolor="#505050"
     showgrid="false"
     inkscape:zoom="15.921875"
     inkscape:cx="29.895976"
     inkscape:cy="32.031403"
     inkscape:window-width="2560"
     inkscape:window-height="1361"
     inkscape:window-x="0"
     inkscape:window-y="0"
     inkscape:window-maximized="1"
     inkscape:current-layer="svg18" />
  <defs
     id="defs8">
    <linearGradient
       xlink:href="#a"
       id="b"
       gradientUnits="userSpaceOnUse"
       gradientTransform="matrix(1 0 0 1.0909 60 -2.182)"
       x1="24"
       y1="14"
       x2="24"
       y2="33" />
    <linearGradient
       id="a">
      <stop
         offset="0"
         stop-color="#2d2d2d"
         id="stop3" />
      <stop
         offset="1"
         stop-color="#3f3f3f"
         id="stop5" />
    </linearGradient>
  </defs>
  <circle
     cx="32"
     cy="32"
     r="26"
     fill="#f7c42a"
     paint-order="markers stroke fill"
     id="circle10"
     style="fill:#bcc373" />
  <g
     stroke-width=".857"
     color="#000"
     fill="#fff"
     id="g16"
     style="fill:#f8f8f2">
    <path
       d="M32 15.084l-14 4.58c0 9.64-.043 14.925 1.652 18.75 1.696 3.828 5.176 6.347 12.348 10.502 7.172-4.155 10.652-6.674 12.348-10.502C46.043 34.59 46 29.304 46 19.664zm.292 10.5a3.208 3.208 0 0 1 3.208 3.208 3.191 3.191 0 0 1-1.948 2.95l1.948 6.675h-6.417l1.949-6.674a3.19 3.19 0 0 1-1.949-2.951 3.208 3.208 0 0 1 3.209-3.209z"
       style="isolation:auto;mix-blend-mode:normal;solid-color:#000;solid-opacity:1;marker:none;fill:#f8f8f2"
       overflow="visible"
       opacity=".5"
       id="path12" />
    <path
       d="M32 18l-11.664 4.083c0 15.714-.453 16.92 11.664 23.917 12.017-6.946 11.664-8.197 11.664-23.917zm.292 7.583a3.208 3.208 0 0 1 3.208 3.209 3.191 3.191 0 0 1-1.948 2.95l1.948 6.675h-6.417l1.949-6.674a3.19 3.19 0 0 1-1.949-2.951 3.208 3.208 0 0 1 3.209-3.209z"
       style="isolation:auto;mix-blend-mode:normal;solid-color:#000;solid-opacity:1;marker:none;fill:#f8f8f2"
       overflow="visible"
       id="path14" />
  </g>
</svg>
