<?xml version="1.0" encoding="UTF-8" standalone="no"?>
<svg
   width="64"
   height="64"
   version="1"
   id="svg10"
   sodipodi:docname="network-wired.svg"
   inkscape:version="1.2.2 (b0a8486541, 2022-12-01)"
   xmlns:inkscape="http://www.inkscape.org/namespaces/inkscape"
   xmlns:sodipodi="http://sodipodi.sourceforge.net/DTD/sodipodi-0.dtd"
   xmlns="http://www.w3.org/2000/svg"
   xmlns:svg="http://www.w3.org/2000/svg">
  <defs
     id="defs14" />
  <sodipodi:namedview
     id="namedview12"
     pagecolor="#505050"
     bordercolor="#eeeeee"
     borderopacity="1"
     inkscape:showpageshadow="0"
     inkscape:pageopacity="0"
     inkscape:pagecheckerboard="0"
     inkscape:deskcolor="#505050"
     showgrid="false"
     inkscape:zoom="15.921875"
     inkscape:cx="29.895976"
     inkscape:cy="32.031403"
     inkscape:window-width="2560"
     inkscape:window-height="1361"
     inkscape:window-x="0"
     inkscape:window-y="0"
     inkscape:window-maximized="1"
     inkscape:current-layer="svg10" />
  <circle
     cx="32"
     cy="32"
     r="26"
     fill="#1c7cbf"
     paint-order="markers stroke fill"
     id="circle2"
     style="fill:#6272a4" />
  <path
     d="M17.23 18c-.681 0-1.23.567-1.23 1.272v22.456c0 .705.549 1.27 1.23 1.272H22l2.615 3h14.77L42 43h4.77c.681 0 1.23-.567 1.23-1.272V19.272c0-.705-.549-1.272-1.23-1.272zM20 22h24v17h-4l-3 3H27l-2-3h-5z"
     fill="#fff"
     paint-order="markers stroke fill"
     id="path4"
     style="fill:#f8f8f2" />
  <path
     d="M27 42l-2-3h-5V22h24v17h-4l-3 3z"
     opacity=".35"
     fill="#fff"
     id="path6"
     style="fill:#f8f8f2" />
  <path
     opacity=".5"
     fill="#fff"
     d="M23 25h3v-3h-3zM28 25h3v-3h-3zM33 25h3v-3h-3zM38 25h3v-3h-3z"
     id="path8"
     style="fill:#f8f8f2" />
</svg>
