<?xml version="1.0" encoding="UTF-8" standalone="no"?>
<svg
   width="64"
   height="64"
   version="1"
   id="svg17"
   sodipodi:docname="scanner.svg"
   inkscape:version="1.2.2 (b0a8486541, 2022-12-01)"
   xmlns:inkscape="http://www.inkscape.org/namespaces/inkscape"
   xmlns:sodipodi="http://sodipodi.sourceforge.net/DTD/sodipodi-0.dtd"
   xmlns="http://www.w3.org/2000/svg"
   xmlns:svg="http://www.w3.org/2000/svg">
  <sodipodi:namedview
     id="namedview19"
     pagecolor="#505050"
     bordercolor="#eeeeee"
     borderopacity="1"
     inkscape:showpageshadow="0"
     inkscape:pageopacity="0"
     inkscape:pagecheckerboard="0"
     inkscape:deskcolor="#505050"
     showgrid="false"
     inkscape:zoom="15.921875"
     inkscape:cx="29.895976"
     inkscape:cy="32.031403"
     inkscape:window-width="2560"
     inkscape:window-height="1361"
     inkscape:window-x="0"
     inkscape:window-y="0"
     inkscape:window-maximized="1"
     inkscape:current-layer="svg17" />
  <defs
     id="defs7">
    <linearGradient
       id="d"
       x1="-55"
       x2="-22"
       y1="-32"
       y2="-32"
       gradientTransform="matrix(0 1 -1.7778 0 -24.889 77)"
       gradientUnits="userSpaceOnUse">
      <stop
         stop-color="#388dd4"
         offset="0"
         id="stop2"
         style="stop-color:#13b1d5;stop-opacity:1;" />
      <stop
         stop-color="#388dd4"
         stop-opacity="0"
         offset="1"
         id="stop4"
         style="stop-color:#13b1d5;stop-opacity:0;" />
    </linearGradient>
  </defs>
  <circle
     cx="32"
     cy="32"
     r="27"
     fill="#4f4f4f"
     stroke-width="3.7796"
     style="paint-order:stroke fill markers;fill:#44475a"
     id="circle9" />
  <circle
     cx="32"
     cy="32"
     r="23"
     fill="#fff"
     stroke-width="3.2197"
     style="paint-order:stroke fill markers;fill:#f8f8f2"
     id="circle11" />
  <path
     d="m11.32 22a23 23 0 0 0-2.3203 10 23 23 0 0 0 23 23 23 23 0 0 0 23-23 23 23 0 0 0-2.3086-10h-41.371z"
     fill="url(#d)"
     opacity=".5"
     stroke-width="1.3333"
     id="path13" />
  <path
     d="m7.3652 21a27 27 0 0 0-1.1523 3h51.545a27 27 0 0 0-1.1367-3h-49.256z"
     fill="#388dd4"
     id="path15"
     style="fill:#13b1d5" />
</svg>
