<?xml version="1.0" encoding="UTF-8" standalone="no"?>
<svg
   width="64"
   height="64"
   version="1"
   id="svg1700"
   sodipodi:docname="smartphone.svg"
   inkscape:version="1.2.2 (b0a8486541, 2022-12-01)"
   xmlns:inkscape="http://www.inkscape.org/namespaces/inkscape"
   xmlns:sodipodi="http://sodipodi.sourceforge.net/DTD/sodipodi-0.dtd"
   xmlns="http://www.w3.org/2000/svg"
   xmlns:svg="http://www.w3.org/2000/svg">
  <defs
     id="defs1704" />
  <sodipodi:namedview
     id="namedview1702"
     pagecolor="#505050"
     bordercolor="#eeeeee"
     borderopacity="1"
     inkscape:showpageshadow="0"
     inkscape:pageopacity="0"
     inkscape:pagecheckerboard="0"
     inkscape:deskcolor="#505050"
     showgrid="false"
     inkscape:zoom="15.921875"
     inkscape:cx="27.76055"
     inkscape:cy="32.031403"
     inkscape:window-width="2560"
     inkscape:window-height="1361"
     inkscape:window-x="0"
     inkscape:window-y="0"
     inkscape:window-maximized="1"
     inkscape:current-layer="svg1700" />
  <circle
     cx="32"
     cy="32"
     r="27"
     fill="#ececec"
     style="paint-order:stroke fill markers;fill:#f8f8f2"
     id="circle1692" />
  <rect
     x="19"
     y="11"
     width="26"
     height="42"
     rx="3"
     ry="3"
     fill="#333"
     id="rect1694"
     style="fill:#282a36" />
  <path
     d="M22 12c-1.108 0-2 .892-2 2v36c0 1.108.892 2 2 2h20c1.108 0 2-.892 2-2V14c0-1.108-.892-2-2-2h-4.33l-.688 1h-9.966l-.686-1H22z"
     fill="#bd93f9"
     id="path1696"
     style="fill:#bd93f9" />
  <path
     d="m28 21.152-.865.5 1.523 2.637A5 5 0 0 0 27 27.999h10a5 5 0 0 0-1.658-3.71l1.523-2.637-.865-.5-1.469 2.543A5 5 0 0 0 32 23a5 5 0 0 0-2.533.695zM29.5 26a.5.5 0 0 1 .5.5.5.5 0 0 1-.5.5.5.5 0 0 1-.5-.5.5.5 0 0 1 .5-.5zm5 0a.5.5 0 0 1 .5.5.5.5 0 0 1-.5.5.5.5 0 0 1-.5-.5.5.5 0 0 1 .5-.5zM25 29c-.554 0-1 .446-1 1v5c0 .554.446 1 1 1s1-.446 1-1v-5c0-.554-.446-1-1-1zm2 0v10h2v3c0 .554.446 1 1 1s1-.446 1-1v-3h2v3c0 .554.446 1 1 1s1-.446 1-1v-3h2V29zm12 0c-.554 0-1 .446-1 1v5c0 .554.446 1 1 1s1-.446 1-1v-5c0-.554-.446-1-1-1z"
     fill="#fff"
     style="paint-order:stroke fill markers;fill:#f8f8f2"
     id="path1698" />
</svg>
