<?xml version="1.0" encoding="UTF-8" standalone="no"?>
<svg
   width="64"
   height="64"
   version="1"
   id="svg5517"
   sodipodi:docname="wiimotedev.svg"
   inkscape:version="1.2.2 (b0a8486541, 2022-12-01)"
   xmlns:inkscape="http://www.inkscape.org/namespaces/inkscape"
   xmlns:sodipodi="http://sodipodi.sourceforge.net/DTD/sodipodi-0.dtd"
   xmlns="http://www.w3.org/2000/svg"
   xmlns:svg="http://www.w3.org/2000/svg">
  <defs
     id="defs5521" />
  <sodipodi:namedview
     id="namedview5519"
     pagecolor="#505050"
     bordercolor="#eeeeee"
     borderopacity="1"
     inkscape:showpageshadow="0"
     inkscape:pageopacity="0"
     inkscape:pagecheckerboard="0"
     inkscape:deskcolor="#505050"
     showgrid="false"
     inkscape:zoom="15.921875"
     inkscape:cx="29.895976"
     inkscape:cy="32.031403"
     inkscape:window-width="2560"
     inkscape:window-height="1361"
     inkscape:window-x="0"
     inkscape:window-y="0"
     inkscape:window-maximized="1"
     inkscape:current-layer="svg5517" />
  <circle
     cx="32"
     cy="32"
     r="27"
     fill="#333"
     style="paint-order:stroke fill markers;fill:#282a36"
     id="circle5501" />
  <rect
     transform="rotate(90)"
     x="10"
     y="-42"
     width="44"
     height="20"
     rx="2"
     ry="2"
     fill="#e4e4e4"
     stroke-width=".77743"
     id="rect5503"
     style="fill:#cbcccc" />
  <g
     fill="#999"
     stroke-width=".66667"
     id="g5511"
     style="fill:#9ea0a6">
    <circle
       transform="rotate(90)"
       cx="48"
       cy="-35"
       r="2"
       id="circle5505"
       style="fill:#9ea0a6" />
    <circle
       transform="rotate(90)"
       cx="41"
       cy="-35"
       r="2"
       id="circle5507"
       style="fill:#9ea0a6" />
    <circle
       transform="rotate(90)"
       cx="48"
       cy="-29"
       r="2"
       id="circle5509"
       style="fill:#9ea0a6" />
  </g>
  <circle
     transform="rotate(90)"
     cx="41"
     cy="-29"
     r="2"
     fill="#d35f5f"
     stroke-width=".66667"
     id="circle5513"
     style="fill:#c7484a" />
  <path
     d="m31 14c-0.554 0-1 0.446-1 1v3h-3c-0.554 0-1 0.446-1 1v2c0 0.554 0.446 1 1 1h3v3c0 0.554 0.446 1 1 1h2c0.554 0 1-0.446 1-1v-3h3c0.554 0 1-0.446 1-1v-2c0-0.554-0.446-1-1-1h-3v-3c0-0.554-0.446-1-1-1h-2z"
     fill="#666"
     style="paint-order:stroke fill markers;fill:#717380"
     id="path5515" />
</svg>
