<?xml version="1.0" encoding="UTF-8" standalone="no"?>
<svg
   width="64"
   height="64"
   viewBox="0 0 16.933 16.933"
   version="1.1"
   id="svg21"
   sodipodi:docname="default-folder-unity.svg"
   inkscape:version="1.2.2 (b0a8486541, 2022-12-01)"
   xmlns:inkscape="http://www.inkscape.org/namespaces/inkscape"
   xmlns:sodipodi="http://sodipodi.sourceforge.net/DTD/sodipodi-0.dtd"
   xmlns="http://www.w3.org/2000/svg"
   xmlns:svg="http://www.w3.org/2000/svg">
  <sodipodi:namedview
     id="namedview23"
     pagecolor="#505050"
     bordercolor="#eeeeee"
     borderopacity="1"
     inkscape:showpageshadow="0"
     inkscape:pageopacity="0"
     inkscape:pagecheckerboard="0"
     inkscape:deskcolor="#505050"
     showgrid="false"
     inkscape:zoom="15.921875"
     inkscape:cx="28.70265"
     inkscape:cy="36.679097"
     inkscape:window-width="1280"
     inkscape:window-height="1361"
     inkscape:window-x="1280"
     inkscape:window-y="0"
     inkscape:window-maximized="0"
     inkscape:current-layer="svg21" />
  <defs
     id="defs7">
    <linearGradient
       id="a"
       x1="42"
       x2="44"
       y1="51"
       y2="55"
       gradientTransform="scale(.26458)"
       gradientUnits="userSpaceOnUse">
      <stop
         offset="0"
         id="stop2" />
      <stop
         offset="1"
         stop-opacity="0"
         id="stop4" />
    </linearGradient>
  </defs>
  <circle
     cx="8.466"
     cy="8.466"
     r="7.408"
     fill="#44475a"
     style="paint-order:stroke fill markers"
     id="circle9" />
  <path
     fill="url(#a)"
     d="m15.164 11.613-7.327 4.23a7.408 7.408 0 0 0 .63.032 7.408 7.408 0 0 0 6.697-4.262z"
     opacity=".1"
     style="paint-order:stroke fill markers"
     id="path11" />
  <path
     d="M8.466 1.058a7.408 7.408 0 0 0-6.692 4.234h5.052l.318-.53c.15-.251.443-.529.793-.529h6.608a7.408 7.408 0 0 0-6.079-3.175z"
     fill="#7b7bbd"
     id="path13" />
  <path
     fill="#fff"
     d="M4.278 3.704a6.35 6.35 0 0 0-1.29 1.588h3.838l.318-.53c.15-.251.443-.529.793-.529h5.244a6.35 6.35 0 0 0-.523-.529z"
     style="paint-order:stroke fill markers;fill:#8894b8"
     id="path15" />
  <path
     d="M8.467 1.058A7.408 7.408 0 0 0 3.58 2.91h9.776a7.408 7.408 0 0 0-4.89-1.852z"
     opacity=".15"
     style="paint-order:stroke fill markers"
     id="path17" />
  <rect
     width="3.969"
     height=".529"
     x="9.26"
     y="4.762"
     opacity=".25"
     ry=".265"
     style="paint-order:stroke markers fill"
     id="rect19" />
  <path
     class="ColorScheme-Background"
     d="M 8.2608963,7.2758984 5.9030025,8.630406 8.4783001,10.1176 11.029891,8.630406 8.6961008,7.2758984 v 1.0401095 l 0.9191709,0.5318284 c 0.03635,0.012065 0.03635,0.072701 0,0.096986 L 8.5270619,9.5733281 c -0.03635,0.012218 -0.072854,0.012218 -0.096986,0 L 7.3418657,8.9448227 c -0.03635,-0.012218 -0.03635,-0.072854 0,-0.096986 L 8.2610365,8.3158491 Z M 11.02997,8.630406 8.4783795,10.117918 5.9030819,8.630406 v 2.696581 L 6.797647,10.806932 V 9.7550215 c 0,-0.0362 0.048264,-0.06064 0.072547,-0.04857 l 1.0885008,0.6287975 c 0.036353,0.01222 0.048264,0.04826 0.048264,0.09668 v 1.257805 c 0.024286,0.0362 -0.024286,0.06033 -0.060483,0.04827 L 7.0273061,11.206178 6.132741,11.725783 8.4783319,13.08029 10.812122,11.725783 9.9173987,11.206178 8.9982279,11.75023 c -0.036197,0.02429 -0.072397,-0.01222 -0.072397,-0.04856 v -1.257487 c 0,-0.0362 0.024132,-0.0724 0.048264,-0.09668 L 10.062305,9.7187055 c 0.03635,-0.02414 0.07285,0.01206 0.07285,0.04826 v 1.0519095 l 0.894564,0.520055 z"
     fill="#ffffff"
     id="path56815"
     style="color:#f8f8f2;stroke-width:0.264578;fill:#8894b8" />
</svg>
