<?xml version="1.0" encoding="UTF-8" standalone="no"?>
<svg
   width="64"
   height="64"
   version="1.1"
   viewBox="0 0 64 64"
   id="svg5580"
   sodipodi:docname="default-folder-open.svg"
   inkscape:version="1.2.2 (b0a8486541, 2022-12-01)"
   xmlns:inkscape="http://www.inkscape.org/namespaces/inkscape"
   xmlns:sodipodi="http://sodipodi.sourceforge.net/DTD/sodipodi-0.dtd"
   xmlns="http://www.w3.org/2000/svg"
   xmlns:svg="http://www.w3.org/2000/svg">
  <sodipodi:namedview
     id="namedview5582"
     pagecolor="#505050"
     bordercolor="#eeeeee"
     borderopacity="1"
     inkscape:showpageshadow="0"
     inkscape:pageopacity="0"
     inkscape:pagecheckerboard="0"
     inkscape:deskcolor="#505050"
     showgrid="false"
     inkscape:zoom="15.921875"
     inkscape:cx="29.895976"
     inkscape:cy="32.031403"
     inkscape:window-width="2560"
     inkscape:window-height="1361"
     inkscape:window-x="0"
     inkscape:window-y="0"
     inkscape:window-maximized="1"
     inkscape:current-layer="svg5580" />
  <defs
     id="defs5569">
    <style
       id="current-color-scheme"
       type="text/css">.ColorScheme-Text {
        color:#333333;
      }
      .ColorScheme-Background{
        color:#f8f8f2;
      }
      .ColorScheme-Highlight {
        color:#44475a;
      }</style>
    <linearGradient
       id="a"
       x1="42"
       x2="44"
       y1="51"
       y2="55"
       gradientTransform="matrix(.99995 0 0 .99995 .0013517 -.0033909)"
       gradientUnits="userSpaceOnUse">
      <stop
         offset="0"
         id="stop5564" />
      <stop
         stop-opacity="0"
         offset="1"
         id="stop5566" />
    </linearGradient>
  </defs>
  <circle
     cx="32"
     cy="32"
     r="28"
     class="ColorScheme-Highlight"
     fill="#44475a"
     id="circle5571" />
  <path
     id="shadow"
     d="m31.998 4a28 28 0 0 0-27.492 23.002h21.293l1.2031-2c0.56691-0.95241 1.6733-2.0039 2.9961-2.0039h28.504a28 28 0 0 0-26.504-18.998z"
     fill="#bd93f9"
     style="fill:#7b7bbd" />
  <path
     d="m32.002 4a28 28 0 0 0-18.47 6.9994h36.947a28 28 0 0 0-18.481-6.9994z"
     opacity=".15"
     id="path5574" />
  <path
     d="m32.002 9-9.0039 8.998h5.002v5.8262c0.55581-0.47493 1.2389-0.82617 1.998-0.82617h6.002v-5h5l-8.998-8.9941v-0.0039062z"
     class="ColorScheme-Background"
     fill="#ffffff"
     id="path5576"
     style="fill:#f8f8f2" />
  <path
     d="m57.312 43.892-27.692 15.987a28 28 0 0 0 2.381 0.12094 28 28 0 0 0 25.311-16.108z"
     fill="url(#a)"
     opacity=".1"
     id="path5578" />
</svg>
