<?xml version="1.0" encoding="UTF-8" standalone="no"?>
<svg
   width="64"
   height="64"
   version="1.1"
   viewBox="0 0 64 64"
   id="svg57947"
   sodipodi:docname="default-user-desktop.svg"
   inkscape:version="1.2.2 (b0a8486541, 2022-12-01)"
   xmlns:inkscape="http://www.inkscape.org/namespaces/inkscape"
   xmlns:sodipodi="http://sodipodi.sourceforge.net/DTD/sodipodi-0.dtd"
   xmlns="http://www.w3.org/2000/svg"
   xmlns:svg="http://www.w3.org/2000/svg">
  <sodipodi:namedview
     id="namedview57949"
     pagecolor="#505050"
     bordercolor="#eeeeee"
     borderopacity="1"
     inkscape:showpageshadow="0"
     inkscape:pageopacity="0"
     inkscape:pagecheckerboard="0"
     inkscape:deskcolor="#505050"
     showgrid="false"
     inkscape:zoom="15.921875"
     inkscape:cx="27.76055"
     inkscape:cy="32.031403"
     inkscape:window-width="2560"
     inkscape:window-height="1361"
     inkscape:window-x="0"
     inkscape:window-y="0"
     inkscape:window-maximized="1"
     inkscape:current-layer="svg57947" />
  <defs
     id="defs57933">
    <style
       id="current-color-scheme"
       type="text/css">.ColorScheme-Text {
        color:#333333;
      }
      .ColorScheme-Background {
        color:#f8f8f2;
      }
      .ColorScheme-Highlight {
        color:#dd86e0;
      }</style>
  </defs>
  <rect
     class="ColorScheme-Highlight"
     x="4"
     y="4"
     width="56"
     height="56"
     ry="28"
     fill="#dd86e0"
     id="rect57935"
     style="fill:#7b7bbd" />
  <rect
     x="4"
     y="4"
     width="56"
     height="56"
     ry="28"
     fill="#ffffff"
     opacity=".25"
     id="rect57937"
     style="fill:#f8f8f2" />
  <path
     class="ColorScheme-Background"
     d="m14 42c-0.554 0-1 0.446-1 1v3c0 0.554 0.446 1 1 1h36c0.554 0 1-0.446 1-1v-3c0-0.554-0.446-1-1-1h-3.0039v2c0 0.554-0.446 1-1 1h-4c-0.554 0-1-0.446-1-1v-2h-2v2c0 0.554-0.446 1-1 1h-4c-0.554 0-1-0.446-1-1v-2h-2v2c0 0.554-0.446 1-1 1h-4c-0.554 0-1-0.446-1-1v-2h-1.9961v2c0 0.554-0.446 1-1 1h-4c-0.554 0-1-0.446-1-1v-2h-3z"
     fill="#ffffff"
     opacity=".35"
     id="path57939"
     style="fill:#f8f8f2" />
  <path
     d="m32.002 4.0012c-5.9602 0-11.47 1.8501-16.001 5.0002h32.001c-4.5301-3.1501-10.04-5.0002-16.001-5.0002z"
     opacity=".35"
     id="path57941" />
  <rect
     x="27"
     y="6"
     width="10"
     height="2"
     ry="1"
     opacity=".35"
     id="rect57943" />
  <path
     class="ColorScheme-Background"
     d="m18 39c-0.554 0-1 0.446-1 1v4c0 0.554 0.446 1 1 1h4c0.554 0 1-0.446 1-1v-4c0-0.554-0.446-1-1-1zm7.9961 0c-0.554 0-1 0.446-1 1v4c0 0.554 0.446 1 1 1h4c0.554 0 1-0.446 1-1v-4c0-0.554-0.446-1-1-1zm8 0c-0.554 0-1 0.446-1 1v4c0 0.554 0.446 1 1 1h4c0.554 0 1-0.446 1-1v-4c0-0.554-0.446-1-1-1zm8 0c-0.554 0-1 0.446-1 1v4c0 0.554 0.446 1 1 1h4c0.554 0 1-0.446 1-1v-4c0-0.554-0.446-1-1-1z"
     fill="#ffffff"
     opacity=".65"
     id="path57945"
     style="fill:#f8f8f2" />
</svg>
