<?xml version="1.0" encoding="UTF-8" standalone="no"?>
<svg
   width="64"
   height="64"
   viewBox="0 0 16.933 16.933"
   version="1.1"
   id="svg21"
   sodipodi:docname="default-folder-decrypted.svg"
   inkscape:version="1.2.2 (b0a8486541, 2022-12-01)"
   xmlns:inkscape="http://www.inkscape.org/namespaces/inkscape"
   xmlns:sodipodi="http://sodipodi.sourceforge.net/DTD/sodipodi-0.dtd"
   xmlns="http://www.w3.org/2000/svg"
   xmlns:svg="http://www.w3.org/2000/svg">
  <sodipodi:namedview
     id="namedview23"
     pagecolor="#505050"
     bordercolor="#eeeeee"
     borderopacity="1"
     inkscape:showpageshadow="0"
     inkscape:pageopacity="0"
     inkscape:pagecheckerboard="0"
     inkscape:deskcolor="#505050"
     showgrid="false"
     inkscape:zoom="15.921875"
     inkscape:cx="24.745829"
     inkscape:cy="32.09421"
     inkscape:window-width="1280"
     inkscape:window-height="1361"
     inkscape:window-x="1280"
     inkscape:window-y="0"
     inkscape:window-maximized="0"
     inkscape:current-layer="svg21" />
  <defs
     id="defs7">
    <linearGradient
       id="a"
       x1="42"
       x2="44"
       y1="51"
       y2="55"
       gradientTransform="scale(.26458)"
       gradientUnits="userSpaceOnUse">
      <stop
         offset="0"
         id="stop2" />
      <stop
         offset="1"
         stop-opacity="0"
         id="stop4" />
    </linearGradient>
  </defs>
  <circle
     cx="8.466"
     cy="8.466"
     r="7.408"
     fill="#44475a"
     style="paint-order:stroke fill markers"
     id="circle9" />
  <path
     fill="url(#a)"
     d="m15.164 11.613-7.327 4.23a7.408 7.408 0 0 0 .63.032 7.408 7.408 0 0 0 6.697-4.262z"
     opacity=".1"
     style="paint-order:stroke fill markers"
     id="path11" />
  <path
     d="M8.466 1.058a7.408 7.408 0 0 0-6.692 4.234h5.052l.318-.53c.15-.251.443-.529.793-.529h6.608a7.408 7.408 0 0 0-6.079-3.175z"
     fill="#7b7bbd"
     id="path13" />
  <path
     fill="#fff"
     d="M4.278 3.704a6.35 6.35 0 0 0-1.29 1.588h3.838l.318-.53c.15-.251.443-.529.793-.529h5.244a6.35 6.35 0 0 0-.523-.529z"
     style="paint-order:stroke fill markers;fill:#8894b8"
     id="path15" />
  <path
     d="M8.467 1.058A7.408 7.408 0 0 0 3.58 2.91h9.776a7.408 7.408 0 0 0-4.89-1.852z"
     opacity=".15"
     style="paint-order:stroke fill markers"
     id="path17" />
  <rect
     width="3.969"
     height=".529"
     x="9.26"
     y="4.762"
     opacity=".25"
     ry=".265"
     style="paint-order:stroke markers fill"
     id="rect19" />
  <path
     class="ColorScheme-Background"
     d="m 8.4664999,7.1436094 c -0.7328814,0 -1.3228906,0.5900092 -1.3228906,1.3228906 V 8.7310781 H 7.6727656 V 8.4665 c 0,-0.4397288 0.3540055,-0.7937343 0.7937343,-0.7937343 0.4397286,0 0.7937346,0.3540055 0.7937346,0.7937343 V 9.2602344 H 6.6144531 c -0.1465763,0 -0.2645781,0.1180018 -0.2645781,0.2645781 v 2.1166245 c 0,0.146577 0.1180018,0.264578 0.2645781,0.264578 h 3.7040929 c 0.146577,0 0.264578,-0.118001 0.264578,-0.264578 V 9.5248125 c 0,-0.1465763 -0.118001,-0.2645781 -0.264578,-0.2645781 H 9.7893905 V 8.4665 c 0,-0.7328814 -0.590009,-1.3228906 -1.3228906,-1.3228906 z"
     fill="#ffffff"
     id="path24820"
     style="color:#f8f8f2;stroke-width:0.264578;fill:#8894b8" />
</svg>
