<?xml version="1.0" encoding="UTF-8" standalone="no"?>
<svg
   width="64"
   height="64"
   viewBox="0 0 16.933 16.933"
   version="1.1"
   id="svg21"
   sodipodi:docname="default-network.svg"
   inkscape:version="1.2.2 (b0a8486541, 2022-12-01)"
   xmlns:inkscape="http://www.inkscape.org/namespaces/inkscape"
   xmlns:sodipodi="http://sodipodi.sourceforge.net/DTD/sodipodi-0.dtd"
   xmlns="http://www.w3.org/2000/svg"
   xmlns:svg="http://www.w3.org/2000/svg">
  <sodipodi:namedview
     id="namedview23"
     pagecolor="#505050"
     bordercolor="#eeeeee"
     borderopacity="1"
     inkscape:showpageshadow="0"
     inkscape:pageopacity="0"
     inkscape:pagecheckerboard="0"
     inkscape:deskcolor="#505050"
     showgrid="false"
     inkscape:zoom="15.921875"
     inkscape:cx="28.70265"
     inkscape:cy="36.679097"
     inkscape:window-width="1280"
     inkscape:window-height="1361"
     inkscape:window-x="1280"
     inkscape:window-y="0"
     inkscape:window-maximized="0"
     inkscape:current-layer="svg21" />
  <defs
     id="defs7">
    <linearGradient
       id="a"
       x1="42"
       x2="44"
       y1="51"
       y2="55"
       gradientTransform="scale(.26458)"
       gradientUnits="userSpaceOnUse">
      <stop
         offset="0"
         id="stop2" />
      <stop
         offset="1"
         stop-opacity="0"
         id="stop4" />
    </linearGradient>
  </defs>
  <circle
     cx="8.466"
     cy="8.466"
     r="7.408"
     fill="#44475a"
     style="paint-order:stroke fill markers"
     id="circle9" />
  <path
     fill="url(#a)"
     d="m15.164 11.613-7.327 4.23a7.408 7.408 0 0 0 .63.032 7.408 7.408 0 0 0 6.697-4.262z"
     opacity=".1"
     style="paint-order:stroke fill markers"
     id="path11" />
  <path
     d="M8.466 1.058a7.408 7.408 0 0 0-6.692 4.234h5.052l.318-.53c.15-.251.443-.529.793-.529h6.608a7.408 7.408 0 0 0-6.079-3.175z"
     fill="#7b7bbd"
     id="path13" />
  <path
     fill="#fff"
     d="M4.278 3.704a6.35 6.35 0 0 0-1.29 1.588h3.838l.318-.53c.15-.251.443-.529.793-.529h5.244a6.35 6.35 0 0 0-.523-.529z"
     style="paint-order:stroke fill markers;fill:#8894b8"
     id="path15" />
  <path
     d="M8.467 1.058A7.408 7.408 0 0 0 3.58 2.91h9.776a7.408 7.408 0 0 0-4.89-1.852z"
     opacity=".15"
     style="paint-order:stroke fill markers"
     id="path17" />
  <rect
     width="3.969"
     height=".529"
     x="9.26"
     y="4.762"
     opacity=".25"
     ry=".265"
     style="paint-order:stroke markers fill"
     id="rect19" />
  <path
     class="ColorScheme-Background"
     d="M 8.4675054,7.1436096 A 2.3812031,2.3812031 0 0 0 6.0852969,9.5248126 2.3812031,2.3812031 0 0 0 8.4675054,11.906016 2.3812031,2.3812031 0 0 0 10.847703,9.525818 2.3812031,2.3812031 0 0 0 8.4675054,7.1436096 Z m 0.212017,0.2540214 c 0.2320191,0.021002 0.4560268,0.074008 0.6600695,0.1630145 a 0.20001577,0.20001577 0 0 0 -0.039004,0.070007 C 9.2375811,7.8186674 9.144574,7.7286606 9.2545829,7.9646828 9.3645919,8.1997022 9.4555988,8.2607192 9.4876022,8.1506997 9.5186054,8.0406908 9.4075964,7.8856718 9.533607,7.9486837 9.6596176,8.0116904 9.7516247,7.9316819 9.6576174,8.0726941 9.5636102,8.2147064 9.5656104,8.2907118 9.4556014,8.2597112 9.3455925,8.2277078 9.3485928,8.4457281 9.2385839,8.4767287 9.128575,8.507732 9.090571,8.4297238 9.090571,8.507732 c 0,0.079006 0.063007,0.006 0.047005,0.1320113 -0.005,0.039004 -0.004,0.046005 -0.008,0.062006 -0.1030091,-0.030003 -0.149014,-0.045004 -0.2250193,-0.015001 -0.078006,0.031003 -0.1700153,0.2320191 -0.1700153,0.2320191 0.097008,0.098008 0.1430124,0.1690152 0.1780161,0.202016 -0.022002,0.011001 -0.048005,0.016002 -0.070007,0.031003 -0.1570139,0.1100089 -0.2790241,0.130011 -0.3260396,0.2880197 -0.047005,0.1570139 -0.031003,0.013001 -0.031003,0.2010159 0,0.1890173 -0.048005,0.061006 0.046005,0.2340193 0.094007,0.1720157 0.3250342,0.2550217 0.4350458,0.3500367 0.1100089,0.09301 0.2230182,-0.206016 0.4430361,0.077 0.2200178,0.282014 0.2340193,0.169015 0.1550136,0.32604 -0.078005,0.157013 -0.1550136,0.209016 -0.1860143,0.271033 -0.032003,0.06301 0.060006,0.28003 0.1700153,0.32604 h 0.008 l -0.015002,0.04 c -0.1420124,0.06401 -0.3170175,0.153013 -0.3500369,0.163015 -0.077006,0.022 -0.3510422,0.06801 -0.5500579,0.12401 -0.026003,0.007 -0.046005,0.007 -0.055006,0.008 0.024002,-0.027 0.221018,-0.130011 0.3180229,-0.187017 0.1330114,-0.07701 -0.008,-0.07001 -0.008,-0.07001 0,0 -0.211017,-0.023 -0.6440626,-0.023 -0.2160174,0 -0.3100326,0.01 -0.3570217,0.023 a 0.1220102,0.1220102 0 0 0 -0.047005,0.024 c -0.012001,0.01 -0.020002,0.02 -0.039004,0.031 -0.078006,0.04401 0.046005,0.09001 -0.054006,0.124011 -0.075005,0.025 -0.084006,0 -0.148013,-0.04701 0.046005,-0.045 0.1090089,-0.100008 0.1870171,-0.194015 0.1400121,-0.170016 0.1860143,-0.140013 0.2330192,-0.295032 0.047005,-0.155013 -0.3960205,-0.109008 -0.3960205,-0.202015 0,-0.09301 -0.077005,-0.155014 -0.2180177,-0.217018 -0.141012,-0.06199 -0.045004,-0.09299 -0.2020157,-0.139993 -0.1570139,-0.04601 -0.3330245,0.233019 -0.3800401,0.140012 -0.047005,-0.09301 0.1470129,-0.09301 0.1470129,-0.202016 0,-0.106009 -0.2230182,0.08001 -0.2640225,-0.05401 0,-0.005 -0.007,-0.005 -0.007,-0.008 -0.004,-0.02 -0.00201,-0.032 0,-0.04701 0.010001,-0.112009 0.139012,-0.155014 0.1940152,-0.2640226 0.062007,-0.1240104 0.030003,0.093007 0.1090088,0.2020156 0.078006,0.109009 0.047005,-0.140012 0,-0.2800291 -0.048006,-0.1400125 0.030002,-0.1400125 0.1400113,-0.32604 0.1090088,-0.1860143 0.1080087,-0.295031 0.1080087,-0.4340404 0,-0.1400121 0.076005,-0.1560138 0.2330193,-0.2960364 0.072008,-0.064007 0.1280108,-0.12001 0.1700152,-0.1700153 0.011001,-0.005 0.021002,-0.005 0.032003,-0.008 C 7.8594466,8.5727309 7.9294514,8.472723 8.0734718,8.1737101 8.2174843,7.8736785 8.0174659,8.153708 7.9734639,8.1427068 7.9284592,8.1317056 7.863455,8.0527 7.708436,7.9636906 A 0.24702072,0.24702072 0 0 0 7.62343,7.9336876 l 0.2870144,-0.47505 c 0.092007,-0.024002 0.1900147,-0.041004 0.2870143,-0.054006 0.036004,0.2010159 0.016002,0.3890357 0.016002,0.3890357 0,0 -0.055006,0.064007 -0.055006,0.1080087 0,0.045005 0.2980208,-0.3660438 0.3420201,-0.3880302 0.045005,-0.022002 0.1570139,0.1170096 0.1790162,-0.093007 z m 0.3930308,0.8380777 a 0.17601589,0.17601589 0 0 0 -0.028003,0.009 c 0,0.054006 -0.022002,0.094007 -0.031003,0.1160096 -0.006,-0.010001 -0.023002,-0.024003 -0.023002,-0.024003 -0.024002,0.044005 -0.075005,0.082006 -0.024002,0.070007 0.051005,-0.010001 0.090007,0.020002 0.055006,-0.023002 l -0.008,-0.008 c 0.006,0.005 0.020002,0.008 0.047005,0.008 h 0.070005 c -0.039004,0.028003 -0.080006,0.040004 -0.024002,0.055006 0.075005,0.020002 0.1090088,0.023002 0.1090088,0.008 A 0.36202224,0.36202224 0 0 0 9.191564,8.3767193 c 0.015002,-0.006 0.028003,-0.014002 0.016002,-0.040004 C 9.183564,8.2907103 9.14756,8.2437083 9.0985572,8.2367075 a 0.07000472,0.07000472 0 0 0 -0.026003,-0.00201 z m 1.2140958,0.1320112 c 0.039,0.060006 0.076,0.1220102 0.109009,0.1870171 -0.022,0.1250105 -0.07701,0.2100168 0.015,0.2100168 0.026,0 0.05001,-0.006 0.07001,-0.009 l 0.008,0.023002 c -0.157014,0 -0.232019,0.047005 -0.310033,0.032003 -0.079,-0.016002 -0.2970142,-0.030003 -0.156013,-0.1710155 0.08301,-0.083006 0.186017,-0.2140173 0.264023,-0.2720128 z M 9.3085569,8.6547343 c 0.014001,0.006 0.027003,0.020002 0.039004,0.047005 0.047005,0.1100089 0.1250105,0.202016 0.062006,0.2170176 a 0.47602895,0.47602895 0 0 0 -0.093007,0.032003 c 0,0 0.2170175,0.1410122 0.2330192,-0.016002 0.015002,-0.1570138 -0.062006,-0.2480208 -0.062006,-0.2480208 0,0 0.1080087,0.1080087 0.1400121,0.1700153 0.030003,0.063007 0.030003,0 0.1080087,0.078006 0.078008,0.079006 0.060006,-0.311038 0.1700152,-0.2020159 0.1100089,0.1100089 0.1800159,0.1080087 0.1480129,0.1860169 -0.031,0.079006 0.202016,-0.094007 0.202016,0.063007 0,0.1510133 0.09701,0.2120171 -0.09301,0.2870144 -0.072,-0.005 -0.129011,-0.017002 -0.140012,-0.039004 -0.031,-0.063007 -0.210014,-0.015002 -0.210014,-0.015002 C 9.3435579,9.097765 9.1395417,9.059761 9.0055329,9.0827634 c 0.00201,-0.005 0.005,-0.005 0.008,-0.008 0.068007,-0.1240104 0.1970155,-0.2950311 0.1550137,-0.3570217 0.060006,-0.035004 0.1070086,-0.072005 0.1400121,-0.062006 z m 1.3201121,0.7850562 v 0.093007 c 0,0.089007 -0.005,0.1780161 -0.015,0.2640225 C 10.471657,9.6708095 10.27165,9.6728097 10.27165,9.6728097 c 0,0 0.12201,-0.1400121 0.295031,-0.202016 a 0.27201277,0.27201277 0 0 0 0.06201,-0.031003 z"
     fill="#ffffff"
     id="path57237"
     style="color:#f8f8f2;fill:#8894b8;stroke-width:0.264578" />
</svg>
