<?xml version="1.0" encoding="UTF-8" standalone="no"?>
<svg
   width="64"
   height="64"
   viewBox="0 0 16.933 16.933"
   version="1.1"
   id="svg21"
   sodipodi:docname="default-folder-github.svg"
   inkscape:version="1.2.2 (b0a8486541, 2022-12-01)"
   xmlns:inkscape="http://www.inkscape.org/namespaces/inkscape"
   xmlns:sodipodi="http://sodipodi.sourceforge.net/DTD/sodipodi-0.dtd"
   xmlns="http://www.w3.org/2000/svg"
   xmlns:svg="http://www.w3.org/2000/svg">
  <sodipodi:namedview
     id="namedview23"
     pagecolor="#505050"
     bordercolor="#eeeeee"
     borderopacity="1"
     inkscape:showpageshadow="0"
     inkscape:pageopacity="0"
     inkscape:pagecheckerboard="0"
     inkscape:deskcolor="#505050"
     showgrid="false"
     inkscape:zoom="15.921875"
     inkscape:cx="24.745829"
     inkscape:cy="32.09421"
     inkscape:window-width="1280"
     inkscape:window-height="1361"
     inkscape:window-x="1280"
     inkscape:window-y="0"
     inkscape:window-maximized="0"
     inkscape:current-layer="svg21" />
  <defs
     id="defs7">
    <linearGradient
       id="a"
       x1="42"
       x2="44"
       y1="51"
       y2="55"
       gradientTransform="scale(.26458)"
       gradientUnits="userSpaceOnUse">
      <stop
         offset="0"
         id="stop2" />
      <stop
         offset="1"
         stop-opacity="0"
         id="stop4" />
    </linearGradient>
  </defs>
  <circle
     cx="8.466"
     cy="8.466"
     r="7.408"
     fill="#44475a"
     style="paint-order:stroke fill markers"
     id="circle9" />
  <path
     fill="url(#a)"
     d="m15.164 11.613-7.327 4.23a7.408 7.408 0 0 0 .63.032 7.408 7.408 0 0 0 6.697-4.262z"
     opacity=".1"
     style="paint-order:stroke fill markers"
     id="path11" />
  <path
     d="M8.466 1.058a7.408 7.408 0 0 0-6.692 4.234h5.052l.318-.53c.15-.251.443-.529.793-.529h6.608a7.408 7.408 0 0 0-6.079-3.175z"
     fill="#7b7bbd"
     id="path13" />
  <path
     fill="#fff"
     d="M4.278 3.704a6.35 6.35 0 0 0-1.29 1.588h3.838l.318-.53c.15-.251.443-.529.793-.529h5.244a6.35 6.35 0 0 0-.523-.529z"
     style="paint-order:stroke fill markers;fill:#8894b8"
     id="path15" />
  <path
     d="M8.467 1.058A7.408 7.408 0 0 0 3.58 2.91h9.776a7.408 7.408 0 0 0-4.89-1.852z"
     opacity=".15"
     style="paint-order:stroke fill markers"
     id="path17" />
  <rect
     width="3.969"
     height=".529"
     x="9.26"
     y="4.762"
     opacity=".25"
     ry=".265"
     style="paint-order:stroke markers fill"
     id="rect19" />
  <path
     class="ColorScheme-Background"
     d="m 7.2572932,12.964315 c 0.060128,-0.0074 0.1091359,-0.03099 0.1507249,-0.0727 0.035287,-0.03539 0.058017,-0.07727 0.067692,-0.124709 0.00549,-0.02691 0.006,-0.05697 0.00554,-0.324055 l -4.81e-4,-0.265317 -0.1782859,-0.0011 c -0.098058,-6.08e-4 -0.1816752,-0.0015 -0.1858185,-0.0021 -0.00416,-5.55e-4 -0.018835,-0.0018 -0.032646,-0.0028 -0.056408,-0.004 -0.121706,-0.0124 -0.1766112,-0.02272 -0.2037731,-0.03822 -0.3633719,-0.113981 -0.4766907,-0.226199 -0.070955,-0.07026 -0.1187347,-0.14773 -0.1561276,-0.25314 -0.058234,-0.164174 -0.1436103,-0.297624 -0.2736531,-0.42777 -0.054363,-0.05441 -0.089247,-0.08479 -0.1894221,-0.164967 -0.093325,-0.0747 -0.1177928,-0.10041 -0.1177928,-0.123765 0,-0.01529 0.011594,-0.02663 0.042602,-0.04169 0.043613,-0.02118 0.086144,-0.0298 0.1387553,-0.02815 0.062859,0.002 0.1238438,0.01933 0.1948512,0.05547 0.083559,0.04252 0.1685072,0.106574 0.2588394,0.195184 0.055313,0.05425 0.094574,0.09818 0.1572124,0.175892 0.1892209,0.234757 0.309186,0.322653 0.4808178,0.352206 0.050958,0.0087 0.072354,0.01013 0.1607074,0.01013 0.083906,0 0.1038628,-10e-4 0.1565191,-0.0076 0.072949,-0.0092 0.1397449,-0.02604 0.1817784,-0.04586 l 0.015213,-0.0072 0.00108,-0.02995 c 0.00632,-0.175849 0.074206,-0.329294 0.1979679,-0.447402 0.020037,-0.01913 0.051855,-0.04561 0.069701,-0.058 0.00525,-0.0037 0.00959,-0.0071 0.00963,-0.0077 3.57e-5,-6.09e-4 -0.00379,-0.0015 -0.0085,-0.0022 -0.017721,-0.0023 -0.1041724,-0.01788 -0.1404222,-0.02522 C 7.2766021,10.973386 7.0009117,10.868042 6.77438,10.721449 6.6360479,10.631948 6.5158739,10.52531 6.4203744,10.407263 6.2507984,10.197725 6.1486792,9.9479289 6.112432,9.6539295 6.0948402,9.5112848 6.0936019,9.3373617 6.1090242,9.1759955 6.1437315,8.8128621 6.259421,8.4999984 6.4591404,8.2292027 c 0.00319,-0.0043 0.00319,-0.00435 -0.00614,-0.038501 -0.088361,-0.3243198 -0.082339,-0.6690651 0.017981,-1.0293941 l 0.00395,-0.014229 0.032511,2.622e-4 c 0.1348502,0.00108 0.3109587,0.041285 0.4794685,0.1094084 0.1672928,0.067624 0.3439251,0.16992 0.4715576,0.273124 0.00892,0.00721 0.017158,0.013115 0.018298,0.013115 0.00114,0 0.017018,-0.00454 0.035274,-0.010102 0.2011958,-0.061223 0.4321883,-0.1038787 0.6659431,-0.1229653 0.1063736,-0.00869 0.1838448,-0.011586 0.3096887,-0.011586 0.1295401,0 0.2106677,0.00316 0.3197426,0.012443 0.2359005,0.020087 0.452799,0.060274 0.6626889,0.1227907 l 0.030765,0.00916 0.026156,-0.020404 c 0.037554,-0.029297 0.064173,-0.048426 0.110191,-0.079191 C 9.903884,7.2648687 10.212329,7.1546375 10.466509,7.146806 l 0.03446,-0.00108 0.0025,0.00988 c 0.0014,0.00544 0.006,0.02269 0.01022,0.038343 0.07254,0.2694728 0.08932,0.5466978 0.04872,0.8043704 -0.0091,0.057943 -0.02448,0.1314477 -0.03751,0.1796935 -0.0037,0.013666 -0.0067,0.025989 -0.0067,0.027384 0,0.0014 0.0077,0.012814 0.01725,0.025373 0.129765,0.1717244 0.225365,0.3638214 0.286406,0.5754839 0.0486,0.1685151 0.07374,0.3381308 0.07995,0.5391573 0.0062,0.2016852 -0.01631,0.3933218 -0.06636,0.5646098 -0.05835,0.1996721 -0.152796,0.3728701 -0.288469,0.5289981 -0.0256,0.02945 -0.09684,0.101108 -0.126709,0.127442 -0.224855,0.198245 -0.5124354,0.340962 -0.8763626,0.43486 -0.089578,0.02311 -0.2259391,0.05133 -0.3046881,0.06303 -0.010588,0.0015 -0.019825,0.0033 -0.020521,0.004 -6.879e-4,6.35e-4 0.00683,0.0072 0.016742,0.01464 0.06806,0.05103 0.12913,0.118986 0.17101,0.1903 0.036922,0.06288 0.064618,0.139359 0.077069,0.212861 0.00984,0.05807 0.00905,0.0067 0.01016,0.660361 9.789e-4,0.558021 0.00119,0.599428 0.00389,0.61271 0.00783,0.03852 0.019007,0.06609 0.039364,0.09709 0.012269,0.01869 0.046587,0.05306 0.065536,0.06563 0.037194,0.02468 0.076683,0.03895 0.119211,0.04306 0.00766,7.67e-4 -0.5477296,0.0013 -1.2341245,0.0014 -1.0237587,3.9e-5 -1.2448137,-3.44e-4 -1.2304207,-0.0021 z"
     fill="#ffffff"
     id="path40567"
     style="color:#f8f8f2;stroke-width:0.264578;fill:#8894b8" />
</svg>
