<?xml version="1.0" encoding="UTF-8" standalone="no"?>
<svg
   width="64"
   height="64"
   viewBox="0 0 16.933 16.933"
   version="1.1"
   id="svg21"
   sodipodi:docname="default-folder-gradle.svg"
   inkscape:version="1.2.2 (b0a8486541, 2022-12-01)"
   xmlns:inkscape="http://www.inkscape.org/namespaces/inkscape"
   xmlns:sodipodi="http://sodipodi.sourceforge.net/DTD/sodipodi-0.dtd"
   xmlns="http://www.w3.org/2000/svg"
   xmlns:svg="http://www.w3.org/2000/svg">
  <sodipodi:namedview
     id="namedview23"
     pagecolor="#505050"
     bordercolor="#eeeeee"
     borderopacity="1"
     inkscape:showpageshadow="0"
     inkscape:pageopacity="0"
     inkscape:pagecheckerboard="0"
     inkscape:deskcolor="#505050"
     showgrid="false"
     inkscape:zoom="15.921875"
     inkscape:cx="24.745829"
     inkscape:cy="32.09421"
     inkscape:window-width="1280"
     inkscape:window-height="1361"
     inkscape:window-x="1280"
     inkscape:window-y="0"
     inkscape:window-maximized="0"
     inkscape:current-layer="svg21" />
  <defs
     id="defs7">
    <linearGradient
       id="a"
       x1="42"
       x2="44"
       y1="51"
       y2="55"
       gradientTransform="scale(.26458)"
       gradientUnits="userSpaceOnUse">
      <stop
         offset="0"
         id="stop2" />
      <stop
         offset="1"
         stop-opacity="0"
         id="stop4" />
    </linearGradient>
  </defs>
  <circle
     cx="8.466"
     cy="8.466"
     r="7.408"
     fill="#44475a"
     style="paint-order:stroke fill markers"
     id="circle9" />
  <path
     fill="url(#a)"
     d="m15.164 11.613-7.327 4.23a7.408 7.408 0 0 0 .63.032 7.408 7.408 0 0 0 6.697-4.262z"
     opacity=".1"
     style="paint-order:stroke fill markers"
     id="path11" />
  <path
     d="M8.466 1.058a7.408 7.408 0 0 0-6.692 4.234h5.052l.318-.53c.15-.251.443-.529.793-.529h6.608a7.408 7.408 0 0 0-6.079-3.175z"
     fill="#7b7bbd"
     id="path13" />
  <path
     fill="#fff"
     d="M4.278 3.704a6.35 6.35 0 0 0-1.29 1.588h3.838l.318-.53c.15-.251.443-.529.793-.529h5.244a6.35 6.35 0 0 0-.523-.529z"
     style="paint-order:stroke fill markers;fill:#8894b8"
     id="path15" />
  <path
     d="M8.467 1.058A7.408 7.408 0 0 0 3.58 2.91h9.776a7.408 7.408 0 0 0-4.89-1.852z"
     opacity=".15"
     style="paint-order:stroke fill markers"
     id="path17" />
  <rect
     width="3.969"
     height=".529"
     x="9.26"
     y="4.762"
     opacity=".25"
     ry=".265"
     style="paint-order:stroke markers fill"
     id="rect19" />
  <path
     class="ColorScheme-Background"
     d="m 4.9319077,12.286065 c -0.044579,-0.0057 -0.080728,-0.03523 -0.094637,-0.0771 -0.00543,-0.01635 -0.025944,-0.136041 -0.038467,-0.224399 -0.059392,-0.419119 -0.057268,-0.823817 0.00632,-1.205789 C 4.8749625,10.359235 5.018475,9.9722628 5.2295872,9.6341849 5.4104977,9.3444454 5.6380164,9.0954774 5.9039439,8.8961971 c 0.024264,-0.018179 0.057308,-0.042015 0.058181,-0.041967 4.233e-4,2.22e-5 0.1046592,0.1798602 0.2317202,0.3996452 0.127061,0.2197903 0.2351596,0.4060481 0.240221,0.4139589 0.02345,0.036517 0.04768,0.066822 0.079043,0.098854 0.086962,0.088824 0.1980209,0.1490209 0.3203248,0.1736188 0.082948,0.016679 0.1719599,0.015909 0.2533891,-0.0022 0.049529,-0.011009 0.1002195,-0.02922 0.1433987,-0.051511 0.00698,-0.0036 0.063033,-0.034639 0.1245686,-0.068976 0.094751,-0.052868 0.1125701,-0.062509 0.1164091,-0.062967 0.0039,-4.498e-4 0.00871,-0.00315 0.035027,-0.01965 C 7.6882958,9.6208872 7.8561838,9.5010968 8.0174706,9.3702074 8.0837157,9.316453 8.1816017,9.2326267 8.1958095,9.2174876 c 0.019267,-0.020529 0.029567,-0.047375 0.029567,-0.077077 0,-0.037231 -0.016015,-0.068121 -0.047561,-0.091735 -0.014128,-0.010575 -0.029638,-0.01761 -0.047635,-0.0216 -0.012462,-0.00278 -0.034202,-0.00296 -0.046582,-3.969e-4 -0.015245,0.00315 -0.031265,0.00979 -0.043938,0.018216 -0.00322,0.00217 -0.018322,0.014816 -0.033519,0.028135 -0.1897792,0.1663191 -0.3783732,0.3086568 -0.5874957,0.44338 -0.051598,0.033242 -0.066081,0.041901 -0.1318208,0.078831 -0.03662,0.020579 -0.084318,0.047391 -0.10599,0.059588 -0.021674,0.012202 -0.040012,0.02219 -0.040756,0.022203 -7.408e-4,1.85e-5 -0.00645,0.00278 -0.012681,0.00617 C 7.0142169,9.7443923 6.8746492,9.7432572 6.7601901,9.6802241 6.7059807,9.6503612 6.6576714,9.6054411 6.6242208,9.5537637 6.6133175,9.5369233 6.1262583,8.6937261 6.118612,8.6784335 6.0979828,8.6372254 6.0851772,8.5929695 6.0799545,8.5448136 c -0.00177,-0.016496 -0.00151,-0.062768 4.762e-4,-0.079556 0.00995,-0.083996 0.044261,-0.1588792 0.1008307,-0.2200893 0.029823,-0.032276 0.069155,-0.061766 0.1089586,-0.081707 0.020968,-0.010504 0.075074,-0.035538 0.1219308,-0.056413 0.4502855,-0.2006401 0.8885327,-0.3129694 1.3141066,-0.3367815 0.1121997,-0.00628 0.2269207,-0.00658 0.3374694,-8.731e-4 0.3389246,0.017449 0.6754415,0.090422 1.0319076,0.223759 0.1949094,0.072915 0.3932954,0.1619906 0.6563387,0.2947136 0.04107,0.020722 0.08408,0.042544 0.21289,0.1080193 0.1534719,0.078011 0.2637719,0.1310799 0.3533179,0.1699915 0.18366,0.079802 0.327363,0.1218197 0.454783,0.132969 0.192621,0.016856 0.353159,-0.037001 0.500529,-0.1679304 0.01476,-0.01312 0.04448,-0.042272 0.05827,-0.057175 0.03094,-0.033443 0.06202,-0.075468 0.08573,-0.1159593 0.01094,-0.0187 0.03203,-0.061022 0.03994,-0.080173 0.05652,-0.1368398 0.06719,-0.2852946 0.03073,-0.4270291 -0.03674,-0.1426896 -0.11774,-0.267462 -0.234149,-0.360567 -0.03146,-0.025161 -0.07545,-0.053397 -0.11238,-0.072113 -0.08235,-0.04175 -0.16848,-0.065396 -0.262681,-0.072129 -0.0192,-0.00138 -0.0723,-0.00138 -0.09104,1.48e-5 -0.06888,0.00507 -0.132289,0.018843 -0.19342,0.04202 -0.05153,0.019542 -0.10576,0.048375 -0.147661,0.078527 -0.03617,0.026024 -0.04814,0.031569 -0.0744,0.034464 -0.02914,0.00322 -0.06252,-0.00748 -0.0842,-0.026968 -0.0058,-0.00522 -0.150791,-0.1551487 -0.157649,-0.163041 -0.01511,-0.017348 -0.0248,-0.040631 -0.02729,-0.065581 -0.0024,-0.024537 0.0055,-0.051974 0.02168,-0.074386 0.0079,-0.011006 0.03074,-0.032358 0.06477,-0.060615 0.101759,-0.084493 0.21249,-0.1489998 0.336808,-0.1962111 0.09919,-0.03766 0.209281,-0.062398 0.31752,-0.071354 0.03506,-0.00289 0.05311,-0.00356 0.09738,-0.00356 0.04453,-7.7e-6 0.0621,6.35e-4 0.09785,0.00359 0.298047,0.024698 0.573658,0.1610011 0.774314,0.3828975 0.134329,0.1485606 0.240589,0.338607 0.30101,0.53839 0.0839,0.2774101 0.08318,0.5716475 -0.0021,0.8678691 -0.117319,0.4075033 -0.389194,0.8134455 -0.811858,1.2121912 -0.13876,0.1309106 -0.288469,0.2563892 -0.465181,0.3899092 -0.03919,0.0296 -0.06164,0.04744 -0.08491,0.06741 -0.1922,0.16508 -0.346253,0.391602 -0.461186,0.678193 -0.131001,0.326648 -0.206929,0.731637 -0.217579,1.160492 -10e-4,0.04234 -0.0015,0.04869 -0.0033,0.05798 -0.0088,0.04306 -0.04153,0.0759 -0.08641,0.08665 -0.0064,0.0016 -0.02034,0.0017 -0.2686,0.0019 -0.19002,3.7e-4 -0.2641096,1.9e-5 -0.270187,-7.14e-4 -0.013041,-0.0016 -0.024066,-0.0049 -0.036006,-0.01085 -0.012491,-0.0063 -0.020727,-0.01212 -0.03021,-0.02171 -0.00791,-0.008 -0.014372,-0.01689 -0.019277,-0.02657 -0.00749,-0.0149 -0.00959,-0.02238 -0.013523,-0.04911 -0.020769,-0.141449 -0.07949,-0.272516 -0.1710789,-0.381813 -0.029511,-0.0352 -0.068724,-0.07375 -0.1048893,-0.103101 -0.1166314,-0.09462 -0.2608608,-0.153511 -0.4097786,-0.167308 -0.04995,-0.0047 -0.1096412,-0.0042 -0.1576304,0.0014 -0.2030293,0.02297 -0.3875805,0.12518 -0.5149219,0.285215 -0.082133,0.103209 -0.1372605,0.229249 -0.1567811,0.358451 -0.00406,0.02688 -0.00498,0.03176 -0.00735,0.03906 -0.00547,0.01684 -0.014615,0.03179 -0.027114,0.0443 -0.012859,0.01286 -0.027733,0.02205 -0.044542,0.02748 -0.016856,0.0055 0.00304,0.0051 -0.2893162,0.0051 -0.2566911,0 -0.2689437,0 -0.2761402,-0.0017 -0.02187,-0.0048 -0.039835,-0.01426 -0.055313,-0.02912 -0.010184,-0.0098 -0.017343,-0.0195 -0.02324,-0.03162 -0.00613,-0.0126 -0.00884,-0.02197 -0.011298,-0.03916 -0.00661,-0.0462 -0.014578,-0.08286 -0.026712,-0.122982 C 7.0237774,11.91499 6.9349429,11.783966 6.814372,11.687421 6.7089032,11.602981 6.5847023,11.548502 6.4512121,11.528111 c -0.05944,-0.0091 -0.124021,-0.01098 -0.1852709,-0.0054 -0.2995024,0.02708 -0.557519,0.230159 -0.6542223,0.514948 -0.016152,0.04758 -0.027005,0.09378 -0.034284,0.145971 -0.00278,0.01997 -0.00538,0.02889 -0.012578,0.04311 -0.010517,0.0208 -0.028328,0.03805 -0.050344,0.04877 -0.00551,0.0027 -0.013068,0.0057 -0.016806,0.0068 -0.017145,0.0047 -0.00326,0.0045 -0.293523,0.0044 -0.1482298,0 -0.2707427,-3.7e-4 -0.2722244,-4.76e-4 z M 9.8649671,9.3066504 c 0.02785,-0.024267 0.0513,-0.059837 0.06341,-0.096185 0.0084,-0.025138 0.01189,-0.046727 0.01188,-0.07292 -1.5e-5,-0.025479 -0.0033,-0.045973 -0.01143,-0.070669 -0.02724,-0.083019 -0.100309,-0.1427505 -0.18784,-0.1535188 -0.01459,-0.00177 -0.03933,-0.00177 -0.05362,2.62e-5 -0.05095,0.00646 -0.09734,0.029035 -0.13303,0.064716 -0.03962,0.039621 -0.063467,0.093285 -0.065809,0.1481214 l -5.556e-4,0.012681 0.042001,0.021037 c 0.119309,0.059736 0.316595,0.1590512 0.317309,0.1597206 10e-4,8.731e-4 0.0058,-0.0027 0.01766,-0.013004 z"
     fill="#ffffff"
     id="path42956"
     style="color:#f8f8f2;stroke-width:0.264578;fill:#8894b8" />
</svg>
