<?xml version="1.0" encoding="UTF-8" standalone="no"?>
<svg
   width="64"
   height="64"
   viewBox="0 0 16.933 16.933"
   version="1.1"
   id="svg21"
   sodipodi:docname="default-folder-games.svg"
   inkscape:version="1.2.2 (b0a8486541, 2022-12-01)"
   xmlns:inkscape="http://www.inkscape.org/namespaces/inkscape"
   xmlns:sodipodi="http://sodipodi.sourceforge.net/DTD/sodipodi-0.dtd"
   xmlns="http://www.w3.org/2000/svg"
   xmlns:svg="http://www.w3.org/2000/svg">
  <sodipodi:namedview
     id="namedview23"
     pagecolor="#505050"
     bordercolor="#eeeeee"
     borderopacity="1"
     inkscape:showpageshadow="0"
     inkscape:pageopacity="0"
     inkscape:pagecheckerboard="0"
     inkscape:deskcolor="#505050"
     showgrid="false"
     inkscape:zoom="15.921875"
     inkscape:cx="24.745829"
     inkscape:cy="32.09421"
     inkscape:window-width="1280"
     inkscape:window-height="1361"
     inkscape:window-x="1280"
     inkscape:window-y="0"
     inkscape:window-maximized="0"
     inkscape:current-layer="svg21" />
  <defs
     id="defs7">
    <linearGradient
       id="a"
       x1="42"
       x2="44"
       y1="51"
       y2="55"
       gradientTransform="scale(.26458)"
       gradientUnits="userSpaceOnUse">
      <stop
         offset="0"
         id="stop2" />
      <stop
         offset="1"
         stop-opacity="0"
         id="stop4" />
    </linearGradient>
  </defs>
  <circle
     cx="8.466"
     cy="8.466"
     r="7.408"
     fill="#44475a"
     style="paint-order:stroke fill markers"
     id="circle9" />
  <path
     fill="url(#a)"
     d="m15.164 11.613-7.327 4.23a7.408 7.408 0 0 0 .63.032 7.408 7.408 0 0 0 6.697-4.262z"
     opacity=".1"
     style="paint-order:stroke fill markers"
     id="path11" />
  <path
     d="M8.466 1.058a7.408 7.408 0 0 0-6.692 4.234h5.052l.318-.53c.15-.251.443-.529.793-.529h6.608a7.408 7.408 0 0 0-6.079-3.175z"
     fill="#7b7bbd"
     id="path13" />
  <path
     fill="#fff"
     d="M4.278 3.704a6.35 6.35 0 0 0-1.29 1.588h3.838l.318-.53c.15-.251.443-.529.793-.529h5.244a6.35 6.35 0 0 0-.523-.529z"
     style="paint-order:stroke fill markers;fill:#8894b8"
     id="path15" />
  <path
     d="M8.467 1.058A7.408 7.408 0 0 0 3.58 2.91h9.776a7.408 7.408 0 0 0-4.89-1.852z"
     opacity=".15"
     style="paint-order:stroke fill markers"
     id="path17" />
  <rect
     width="3.969"
     height=".529"
     x="9.26"
     y="4.762"
     opacity=".25"
     ry=".265"
     style="paint-order:stroke markers fill"
     id="rect19" />
  <path
     class="ColorScheme-Background"
     d="m 9.8680694,7.6701198 c -0.079702,3.175e-4 -0.15345,0.026458 -0.2229018,0.076064 -0.1752777,0.1263334 -0.53839,0.2579557 -1.1766847,0.2579557 -0.6415755,0 -1.0053704,-0.1316249 -1.1806534,-0.2579557 -0.069449,-0.049608 -0.135591,-0.072756 -0.2149644,-0.072756 -0.079371,0 -0.1723012,0.023151 -0.2682029,0.072756 C 6.4640179,7.928737 6.1465506,8.5180636 5.9745748,9.2869805 5.8290622,9.9431074 5.7761465,10.834392 5.8621318,11.193213 c 0.076064,0.31154 0.20835,0.448116 0.4431683,0.448116 0.3439516,-0.0066 0.7771718,-0.392238 1.0549788,-0.912769 0.1984283,-0.28839 0.6614189,-0.417689 1.1078944,-0.404143 0.4431684,-0.01654 0.9064976,0.115751 1.1049047,0.404143 0.2778071,0.520531 0.71071,0.906154 1.057943,0.912769 0.2315,0 0.363794,-0.136586 0.439861,-0.448116 0.08599,-0.358821 0.03307,-1.2501056 -0.112443,-1.9062325 C 10.786468,8.5180636 10.468996,7.9287423 10.128351,7.7465274 10.034098,7.6949346 9.9481122,7.6698023 9.86808,7.6704638 Z M 7.1437085,8.6649071 H 7.4744312 V 8.9956298 H 7.8051538 V 9.3263524 H 7.4744312 v 0.330723 H 7.1437085 V 9.3263524 H 6.8129859 V 8.9956298 h 0.3307226 z m 2.4803405,0 A 0.16535603,0.16535603 0 0 1 9.789405,8.8302631 0.16535603,0.16535603 0 0 1 9.624049,8.9956192 0.16535603,0.16535603 0 0 1 9.458693,8.8302631 0.16535603,0.16535603 0 0 1 9.624049,8.6649071 Z M 9.2933264,8.9956298 a 0.16535603,0.16535603 0 0 1 0.165356,0.165356 0.16535603,0.16535603 0 0 1 -0.165356,0.165356 0.16535603,0.16535603 0 0 1 -0.1653561,-0.165356 0.16535603,0.16535603 0 0 1 0.1653561,-0.165356 z m 0.6614188,0 a 0.16535603,0.16535603 0 0 1 0.1653558,0.165356 0.16535603,0.16535603 0 0 1 -0.1653558,0.165356 0.16535603,0.16535603 0 0 1 -0.165356,-0.165356 0.16535603,0.16535603 0 0 1 0.165356,-0.165356 z M 9.6240226,9.3263524 a 0.16535603,0.16535603 0 0 1 0.165356,0.165356 0.16535603,0.16535603 0 0 1 -0.165356,0.165356 0.16535603,0.16535603 0 0 1 -0.1653561,-0.165356 0.16535603,0.16535603 0 0 1 0.1653561,-0.165356 z"
     fill="#ffffff"
     id="path32674"
     style="color:#f8f8f2;stroke-width:0.264578;fill:#8894b8" />
</svg>
