<?xml version="1.0" encoding="UTF-8" standalone="no"?>
<svg
   width="64"
   height="64"
   version="1.1"
   viewBox="0 0 16.933 16.933"
   id="svg60526"
   sodipodi:docname="default-user-identity.svg"
   inkscape:version="1.2.2 (b0a8486541, 2022-12-01)"
   xmlns:inkscape="http://www.inkscape.org/namespaces/inkscape"
   xmlns:sodipodi="http://sodipodi.sourceforge.net/DTD/sodipodi-0.dtd"
   xmlns="http://www.w3.org/2000/svg"
   xmlns:svg="http://www.w3.org/2000/svg">
  <defs
     id="defs60530" />
  <sodipodi:namedview
     id="namedview60528"
     pagecolor="#505050"
     bordercolor="#eeeeee"
     borderopacity="1"
     inkscape:showpageshadow="0"
     inkscape:pageopacity="0"
     inkscape:pagecheckerboard="0"
     inkscape:deskcolor="#505050"
     showgrid="false"
     inkscape:zoom="15.921875"
     inkscape:cx="29.895976"
     inkscape:cy="32.031403"
     inkscape:window-width="2560"
     inkscape:window-height="1361"
     inkscape:window-x="0"
     inkscape:window-y="0"
     inkscape:window-maximized="1"
     inkscape:current-layer="svg60526" />
  <g
     transform="translate(.79372 -.79371)"
     fill-rule="evenodd"
     id="g60524">
    <circle
       cx="7.673"
       cy="9.2604"
       r="7.1438"
       fill="#44475a"
       style="paint-order:normal"
       id="circle60520" />
    <path
       d="m11.642 12.7c0-1.2998-2.2056-1.9629-3.0854-2.1986 0 0 0.036457-0.72877 0.12149-0.99604 0.085036-0.26726 0.097155-0.57093 0.13361-0.65595 0.036464-0.085 0.46592-0.47375 0.49025-0.83813-0.0058875-0.2175-0.048846-0.26894-0.15616-0.26894v-1.1295c0-0.60979-0.88904-1.1423-1.4725-1.1423-0.58358 0-1.4725 0.5325-1.4725 1.1423v1.1295c-0.10741 0-0.15038 0.0515-0.15616 0.26894 0.024335 0.36436 0.4537 0.7531 0.49025 0.83813 0.036367 0.085 0.048491 0.38864 0.13353 0.65595 0.085037 0.26723 0.12149 0.99604 0.12149 0.99604-0.87978 0.23576-3.0854 0.89887-3.0854 2.1986z"
       fill="#f9f9f9"
       stroke-width=".26458"
       id="path60522"
       style="fill:#f8f8f2" />
  </g>
</svg>
