<?xml version="1.0" encoding="UTF-8" standalone="no"?>
<svg
   width="64"
   height="64"
   viewBox="0 0 16.933 16.933"
   version="1.1"
   id="svg21"
   sodipodi:docname="default-folder-git.svg"
   inkscape:version="1.2.2 (b0a8486541, 2022-12-01)"
   xmlns:inkscape="http://www.inkscape.org/namespaces/inkscape"
   xmlns:sodipodi="http://sodipodi.sourceforge.net/DTD/sodipodi-0.dtd"
   xmlns="http://www.w3.org/2000/svg"
   xmlns:svg="http://www.w3.org/2000/svg">
  <sodipodi:namedview
     id="namedview23"
     pagecolor="#505050"
     bordercolor="#eeeeee"
     borderopacity="1"
     inkscape:showpageshadow="0"
     inkscape:pageopacity="0"
     inkscape:pagecheckerboard="0"
     inkscape:deskcolor="#505050"
     showgrid="false"
     inkscape:zoom="15.921875"
     inkscape:cx="24.745829"
     inkscape:cy="32.09421"
     inkscape:window-width="1280"
     inkscape:window-height="1361"
     inkscape:window-x="1280"
     inkscape:window-y="0"
     inkscape:window-maximized="0"
     inkscape:current-layer="svg21" />
  <defs
     id="defs7">
    <linearGradient
       id="a"
       x1="42"
       x2="44"
       y1="51"
       y2="55"
       gradientTransform="scale(.26458)"
       gradientUnits="userSpaceOnUse">
      <stop
         offset="0"
         id="stop2" />
      <stop
         offset="1"
         stop-opacity="0"
         id="stop4" />
    </linearGradient>
  </defs>
  <circle
     cx="8.466"
     cy="8.466"
     r="7.408"
     fill="#44475a"
     style="paint-order:stroke fill markers"
     id="circle9" />
  <path
     fill="url(#a)"
     d="m15.164 11.613-7.327 4.23a7.408 7.408 0 0 0 .63.032 7.408 7.408 0 0 0 6.697-4.262z"
     opacity=".1"
     style="paint-order:stroke fill markers"
     id="path11" />
  <path
     d="M8.466 1.058a7.408 7.408 0 0 0-6.692 4.234h5.052l.318-.53c.15-.251.443-.529.793-.529h6.608a7.408 7.408 0 0 0-6.079-3.175z"
     fill="#7b7bbd"
     id="path13" />
  <path
     fill="#fff"
     d="M4.278 3.704a6.35 6.35 0 0 0-1.29 1.588h3.838l.318-.53c.15-.251.443-.529.793-.529h5.244a6.35 6.35 0 0 0-.523-.529z"
     style="paint-order:stroke fill markers;fill:#8894b8"
     id="path15" />
  <path
     d="M8.467 1.058A7.408 7.408 0 0 0 3.58 2.91h9.776a7.408 7.408 0 0 0-4.89-1.852z"
     opacity=".15"
     style="paint-order:stroke fill markers"
     id="path17" />
  <rect
     width="3.969"
     height=".529"
     x="9.26"
     y="4.762"
     opacity=".25"
     ry=".265"
     style="paint-order:stroke markers fill"
     id="rect19" />
  <path
     class="ColorScheme-Background"
     d="M 11.197261,9.9345202 8.7190901,7.4915117 c -0.1426553,-0.1407317 -0.37414,-0.1407317 -0.5169592,0 L 7.6875793,7.9988667 8.34032,8.6424001 c 0.1517276,-0.050505 0.3256957,-0.016608 0.4465814,0.1025928 0.1216134,0.1199412 0.1556804,0.2929144 0.1031511,0.4430096 l 0.6291668,0.6201976 c 0.1522514,-0.051733 0.3277858,-0.018293 0.4494124,0.1017646 0.1698693,0.1674173 0.1698693,0.4388033 0,0.6063603 -0.1699915,0.16756 -0.4452321,0.16756 -0.6153029,0 C 9.2255693,10.390251 9.1939602,10.205155 9.2587448,10.04998 L 8.6719369,9.4715059 V 10.99373 c 0.041385,0.02021 0.080469,0.04714 0.1149751,0.08107 0.1698697,0.167447 0.1698697,0.438803 0,0.606519 -0.1698697,0.167393 -0.4453114,0.167393 -0.6150383,0 -0.1698697,-0.167703 -0.1698697,-0.439067 0,-0.606519 0.041989,-0.04134 0.090605,-0.07262 0.1424806,-0.09356 V 9.4449396 C 8.2624838,9.4240062 8.213976,9.392987 8.1718737,9.351361 8.0432173,9.2245672 8.012259,9.0383915 8.0782527,8.8826079 L 7.4347194,8.2480967 5.7354135,9.9231936 c -0.142724,0.1408484 -0.142724,0.3690334 0,0.5097624 l 2.4783032,2.443009 c 0.1426764,0.140703 0.374087,0.140703 0.5169592,0 l 2.4666091,-2.431711 c 0.142771,-0.14075 0.142771,-0.36906 0,-0.5097629"
     fill="#ffffff"
     id="path38178"
     style="color:#f8f8f2;stroke-width:0.264578;fill:#8894b8" />
</svg>
