<?xml version="1.0" encoding="UTF-8" standalone="no"?>
<svg
   width="64"
   height="64"
   version="1.1"
   viewBox="0 0 64 64"
   id="svg4313"
   sodipodi:docname="default-fileopen.svg"
   inkscape:version="1.2.2 (b0a8486541, 2022-12-01)"
   xmlns:inkscape="http://www.inkscape.org/namespaces/inkscape"
   xmlns:sodipodi="http://sodipodi.sourceforge.net/DTD/sodipodi-0.dtd"
   xmlns="http://www.w3.org/2000/svg"
   xmlns:svg="http://www.w3.org/2000/svg">
  <sodipodi:namedview
     id="namedview4315"
     pagecolor="#505050"
     bordercolor="#eeeeee"
     borderopacity="1"
     inkscape:showpageshadow="0"
     inkscape:pageopacity="0"
     inkscape:pagecheckerboard="0"
     inkscape:deskcolor="#505050"
     showgrid="false"
     inkscape:zoom="15.921875"
     inkscape:cx="27.76055"
     inkscape:cy="32.031403"
     inkscape:window-width="1280"
     inkscape:window-height="1361"
     inkscape:window-x="0"
     inkscape:window-y="0"
     inkscape:window-maximized="0"
     inkscape:current-layer="svg4313" />
  <defs
     id="defs4302">
    <style
       id="current-color-scheme"
       type="text/css">.ColorScheme-Text {
        color:#333333;
      }
      .ColorScheme-Background{
        color:#f8f8f2;
      }
      .ColorScheme-Highlight {
        color:#44475a;
      }</style>
    <linearGradient
       id="a"
       x1="42"
       x2="44"
       y1="51"
       y2="55"
       gradientTransform="matrix(.99995 0 0 .99995 .0013509 -.0033916)"
       gradientUnits="userSpaceOnUse">
      <stop
         offset="0"
         id="stop4297" />
      <stop
         stop-opacity="0"
         offset="1"
         id="stop4299" />
    </linearGradient>
  </defs>
  <circle
     class="ColorScheme-Highlight"
     cx="32"
     cy="32"
     r="27.998"
     fill="#44475a"
     id="circle4304"
     style="fill:#44475a" />
  <path
     id="shadow"
     class="ColorScheme-Highlight"
     d="m32 4.002a27.998 27.998 0 0 0-27.492 23h21.291l1.2031-2c0.56691-0.95241 1.6733-2.0039 2.9961-2.0039h28.506a27.998 27.998 0 0 0-26.504-18.996z"
     style="opacity:1;fill:#7b7bbd" />
  <path
     class="ColorScheme-Background"
     d="m16.17 14a23.999 23.999 0 0 0-7.5723 13.002h17.201l1.2031-2c0.56691-0.95241 1.6733-2.0039 2.9961-2.0039h24.186a23.999 23.999 0 0 0-6.3418-8.998h-31.672z"
     fill="#ffffff"
     id="path4307"
     style="fill:#8894b8" />
  <path
     d="m32.002 4a27.998 27.998 0 0 0-18.47 6.9994h36.947a27.998 27.998 0 0 0-18.481-6.9994z"
     opacity=".15"
     stroke-width="3.7794"
     id="path4309" />
  <path
     d="m57.312 43.892-27.692 15.987a27.998 27.998 0 0 0 2.381 0.12094 27.998 27.998 0 0 0 25.311-16.108z"
     fill="url(#a)"
     opacity=".1"
     stroke-width="3.7794"
     id="path4311" />
</svg>
