<?xml version="1.0" encoding="UTF-8" standalone="no"?>
<svg
   width="64"
   height="64"
   version="1.1"
   id="svg58487"
   sodipodi:docname="gnome-fs-loading-icon.svg"
   inkscape:version="1.2.2 (b0a8486541, 2022-12-01)"
   xmlns:inkscape="http://www.inkscape.org/namespaces/inkscape"
   xmlns:sodipodi="http://sodipodi.sourceforge.net/DTD/sodipodi-0.dtd"
   xmlns:xlink="http://www.w3.org/1999/xlink"
   xmlns="http://www.w3.org/2000/svg"
   xmlns:svg="http://www.w3.org/2000/svg">
  <sodipodi:namedview
     id="namedview58489"
     pagecolor="#505050"
     bordercolor="#eeeeee"
     borderopacity="1"
     inkscape:showpageshadow="0"
     inkscape:pageopacity="0"
     inkscape:pagecheckerboard="0"
     inkscape:deskcolor="#505050"
     showgrid="false"
     inkscape:zoom="15.921875"
     inkscape:cx="29.895976"
     inkscape:cy="32.031403"
     inkscape:window-width="2560"
     inkscape:window-height="1361"
     inkscape:window-x="0"
     inkscape:window-y="0"
     inkscape:window-maximized="1"
     inkscape:current-layer="svg58487" />
  <defs
     id="defs58469">
    <linearGradient
       id="c">
      <stop
         offset="0"
         stop-color="#dcdcdc"
         id="stop58451" />
      <stop
         offset="1"
         stop-color="#d3d3d3"
         id="stop58453" />
    </linearGradient>
    <linearGradient
       id="b">
      <stop
         offset="0"
         stop-color="#dbdbdb"
         id="stop58456" />
      <stop
         offset="1"
         stop-color="#f3f3f3"
         id="stop58458" />
    </linearGradient>
    <linearGradient
       id="a">
      <stop
         offset="0"
         id="stop58461" />
      <stop
         offset="1"
         stop-opacity="0"
         id="stop58463" />
    </linearGradient>
    <linearGradient
       xlink:href="#a"
       id="d"
       x1="11"
       y1="32"
       x2="53"
       y2="32"
       gradientUnits="userSpaceOnUse" />
    <linearGradient
       xlink:href="#b"
       id="e"
       x1="11"
       y1="32"
       x2="32"
       y2="32"
       gradientUnits="userSpaceOnUse" />
    <linearGradient
       xlink:href="#c"
       id="f"
       gradientUnits="userSpaceOnUse"
       x1="11"
       y1="32"
       x2="11"
       y2="11" />
  </defs>
  <circle
     cx="32"
     cy="32"
     r="26"
     fill="#fff"
     stroke="#000"
     stroke-width="1.857"
     stroke-opacity=".039"
     paint-order="stroke markers fill"
     id="circle58471"
     style="fill:#f8f8f2" />
  <path
     fill="#333"
     paint-order="stroke markers fill"
     d="M31 16h2v16h-2z"
     id="path58473"
     style="fill:#282a36" />
  <path
     fill="#c08589"
     paint-order="stroke markers fill"
     d="m32.707 32 15.557 15.556-.708.708L32 32.707z"
     id="path58475"
     style="fill:#fd7e7c" />
  <circle
     cx="32"
     cy="32"
     fill="#333"
     paint-order="stroke markers fill"
     r="1"
     id="circle58477"
     style="fill:#282a36" />
  <path
     d="M32 11a21 21 0 0 0-21 21 21 21 0 0 0 21 21 21 21 0 0 0 21-21h-2a19 19 0 0 1-19 19 19 19 0 0 1-19-19 19 19 0 0 1 19-19v-2z"
     opacity=".1"
     fill="url(#d)"
     paint-order="stroke markers fill"
     id="path58479" />
  <path
     d="m32 9 5 3-5 3z"
     fill="#d3d3d3"
     paint-order="markers stroke fill"
     id="path58481" />
  <path
     d="M32 11a21 21 0 0 0-21 21 21 21 0 0 0 21 21v-2a19 19 0 0 1-19-19 19 19 0 0 1 19-19v-2z"
     fill="url(#e)"
     paint-order="stroke markers fill"
     id="path58483" />
  <path
     d="M32 11a21 21 0 0 0-21 21h2a19 19 0 0 1 19-19v-2z"
     fill="url(#f)"
     paint-order="stroke markers fill"
     id="path58485" />
</svg>
