<?xml version="1.0" encoding="UTF-8" standalone="no"?>
<svg
   width="48"
   height="48"
   version="1.1"
   id="svg12"
   sodipodi:docname="user-black-desktop.svg"
   inkscape:version="1.2.2 (b0a8486541, 2022-12-01)"
   xmlns:inkscape="http://www.inkscape.org/namespaces/inkscape"
   xmlns:sodipodi="http://sodipodi.sourceforge.net/DTD/sodipodi-0.dtd"
   xmlns="http://www.w3.org/2000/svg"
   xmlns:svg="http://www.w3.org/2000/svg">
  <defs
     id="defs16" />
  <sodipodi:namedview
     id="namedview14"
     pagecolor="#505050"
     bordercolor="#eeeeee"
     borderopacity="1"
     inkscape:showpageshadow="0"
     inkscape:pageopacity="0"
     inkscape:pagecheckerboard="0"
     inkscape:deskcolor="#505050"
     showgrid="false"
     inkscape:zoom="21.229167"
     inkscape:cx="22.374877"
     inkscape:cy="23.976447"
     inkscape:window-width="2560"
     inkscape:window-height="1361"
     inkscape:window-x="0"
     inkscape:window-y="0"
     inkscape:window-maximized="1"
     inkscape:current-layer="svg12" />
  <rect
     style="opacity:0.2"
     width="40"
     height="36"
     x="4"
     y="7"
     rx="2"
     ry="2"
     id="rect2" />
  <path
     style="fill:#7b7bbd"
     d="M 4,9.9 4,40 c 0,1.108 0.892,2 2,2 l 36,0 c 1.108,0 2,-0.892 2,-2 L 44,9.9 Z"
     id="path4" />
  <path
     style="fill:#cbcccc"
     d="M 6,6 C 4.892,6 4,6.892 4,8 V 10 H 44 V 8 C 44,6.892 43.108,6 42,6 Z"
     id="path6" />
  <path
     style="fill:#cbcccc"
     d="M 16,38 C 14.892,38 14,38.892 14,40 V 42 H 34 V 40 C 34,38.892 33.108,38 32,38 Z"
     id="path8" />
  <path
     style="opacity:.1;fill:#f8f8f2"
     d="m6 6c-1.108 0-2 0.892-2 2v1c0-1.108 0.892-2 2-2h36c1.108 0 2 0.892 2 2v-1c0-1.108-0.892-2-2-2z"
     id="path10" />
</svg>
