<?xml version="1.0" encoding="UTF-8" standalone="no"?>
<svg
   width="64"
   height="64"
   version="1.1"
   id="svg59060"
   sodipodi:docname="user-trash.svg"
   inkscape:version="1.2.2 (b0a8486541, 2022-12-01)"
   xmlns:inkscape="http://www.inkscape.org/namespaces/inkscape"
   xmlns:sodipodi="http://sodipodi.sourceforge.net/DTD/sodipodi-0.dtd"
   xmlns="http://www.w3.org/2000/svg"
   xmlns:svg="http://www.w3.org/2000/svg">
  <defs
     id="defs59064" />
  <sodipodi:namedview
     id="namedview59062"
     pagecolor="#505050"
     bordercolor="#eeeeee"
     borderopacity="1"
     inkscape:showpageshadow="0"
     inkscape:pageopacity="0"
     inkscape:pagecheckerboard="0"
     inkscape:deskcolor="#505050"
     showgrid="false"
     inkscape:zoom="15.921875"
     inkscape:cx="29.895976"
     inkscape:cy="32.031403"
     inkscape:window-width="2560"
     inkscape:window-height="1361"
     inkscape:window-x="0"
     inkscape:window-y="0"
     inkscape:window-maximized="1"
     inkscape:current-layer="svg59060" />
  <path
     d="M31.855 2A30 30 0 0 0 2 32a30 30 0 0 0 30 30 30 30 0 0 0 30-30A30 30 0 0 0 32 2a30 30 0 0 0-.145 0zM32 3a29 29 0 0 1 29 29 29 29 0 0 1-29 29A29 29 0 0 1 3 32 29 29 0 0 1 32 3z"
     opacity=".05"
     style="paint-order:stroke fill markers"
     id="path59040" />
  <circle
     cx="32"
     cy="32"
     r="29"
     fill="#fff"
     opacity=".9"
     style="paint-order:stroke fill markers;fill:#f8f8f2"
     id="circle59042" />
  <path
     d="m29.599 49.43-.009-8.103h-5.554l-6.63-1.2 4.37 7.839c.215.38 1.499 1.465 3.667 1.465z"
     fill="#888"
     id="path59044"
     style="fill:#9ea0a6" />
  <path
     d="m24.036 41.327 1.424-2.558 1.821 1.085-1.291-3.734-1.292-3.725-3.774.704-3.767.703 1.523.911-1.241 2.218c-.588 1.06-.696 2.012-.033 3.196l4.37 7.839c.108.19.489.554 1.11.877-2.12-1.531-.895-3.915 1.15-7.516z"
     fill="#bebebe"
     id="path59046"
     style="fill:#cbcccc" />
  <path
     d="m21.644 29.266 6.788 4.056a1452.98 1452.98 0 0 0 2.773-4.991L35.534 23h-8.75c-.43 0-1.978.604-3.062 2.541z"
     fill="#888"
     id="path59048"
     style="fill:#9ea0a6" />
  <path
     d="m31.205 28.34 1.432 2.557-1.821 1.093 3.774.703 3.767.704 1.3-3.725 1.29-3.733-1.523.91-1.241-2.227C37.595 23.562 36.85 23 35.533 23h-8.749c-.215 0-.712.149-1.291.546 2.334-1.125 3.725 1.16 5.712 4.793z"
     fill="#bebebe"
     id="path59050"
     style="fill:#cbcccc" />
  <path
     d="m44.2 32.346-7.027 4.056a910.9 910.9 0 0 0 2.79 4.81l2.268 6.34 4.602-7.707c.224-.372.522-2.028-.555-3.907z"
     fill="#888"
     id="path59052"
     style="fill:#9ea0a6" />
  <path
     d="m39.963 41.211-2.94.041.034-2.119-5.165 5.977 2.491 2.905 2.5 2.914.025-1.771 2.55-.042c1.208-.016 2.077-.397 2.773-1.564l4.602-7.707c.116-.19.248-.695.207-1.399-.265 2.6-2.939 2.732-7.077 2.765z"
     fill="#bebebe"
     id="path59054"
     style="fill:#cbcccc" />
  <path
     d="M32 5a27 27 0 0 0-19 7.87c0 .71 1 2.13 3 2.13h32c2 0 3-1.435 3-2.152A27 27 0 0 0 32 5z"
     opacity=".35"
     style="paint-order:stroke fill markers;fill:#717380;opacity:0.7"
     id="path59056" />
  <path
     d="M50.799 12.656C50.417 13.287 49.486 14 48 14H16c-1.481 0-2.41-.7-2.795-1.324-.067.065-.138.126-.205.193 0 .71 1 2.13 3 2.13h32c2 0 3-1.434 3-2.151-.066-.066-.135-.127-.201-.192z"
     opacity=".1"
     style="paint-order:stroke fill markers"
     id="path59058" />
</svg>
