<?xml version="1.0" encoding="UTF-8" standalone="no"?>
<svg
   width="64"
   height="64"
   version="1.1"
   id="svg693"
   sodipodi:docname="application-vnd.google-apps.site.svg"
   inkscape:version="1.2.2 (b0a8486541, 2022-12-01)"
   xmlns:inkscape="http://www.inkscape.org/namespaces/inkscape"
   xmlns:sodipodi="http://sodipodi.sourceforge.net/DTD/sodipodi-0.dtd"
   xmlns="http://www.w3.org/2000/svg"
   xmlns:svg="http://www.w3.org/2000/svg">
  <sodipodi:namedview
     id="namedview695"
     pagecolor="#505050"
     bordercolor="#eeeeee"
     borderopacity="1"
     inkscape:showpageshadow="0"
     inkscape:pageopacity="0"
     inkscape:pagecheckerboard="0"
     inkscape:deskcolor="#505050"
     showgrid="false"
     inkscape:zoom="15.921875"
     inkscape:cx="29.895976"
     inkscape:cy="32.031403"
     inkscape:window-width="2560"
     inkscape:window-height="1361"
     inkscape:window-x="0"
     inkscape:window-y="0"
     inkscape:window-maximized="1"
     inkscape:current-layer="svg693" />
  <defs
     id="defs685">
    <linearGradient
       id="a"
       x1="49.571"
       x2="51.714"
       y1="52.714"
       y2="54.857"
       gradientTransform="matrix(2.3333,0,0,2.3333,-68.667,-72.001)"
       gradientUnits="userSpaceOnUse">
      <stop
         offset="0"
         id="stop680" />
      <stop
         stop-opacity="0"
         offset="1"
         id="stop682" />
    </linearGradient>
  </defs>
  <rect
     x="8"
     y="4"
     width="48"
     height="56"
     ry="5"
     fill="#2095f2"
     style="paint-order:stroke fill markers;fill:#13b1d5"
     id="rect687" />
  <path
     d="m56 46-14 14h9c2.77 0 5-2.23 5-5z"
     fill="url(#a)"
     fill-rule="evenodd"
     opacity=".15"
     stroke-width="8.8191"
     style="paint-order:stroke fill markers"
     id="path689" />
  <path
     d="m19.4 22c-0.7756 0-1.4004 0.59532-1.4004 1.334v5.332c0 0.73867 0.62479 1.334 1.4004 1.334h25.199c0.7756 0 1.4004-0.59532 1.4004-1.334v-5.332c0-0.73867-0.62479-1.334-1.4004-1.334zm0.01563 11c-0.78484 0-1.416 0.63118-1.416 1.416v14.168c0 0.78483 0.63118 1.416 1.416 1.416h14.168c0.78483 0 1.416-0.63118 1.416-1.416v-14.168c0-0.78483-0.63118-1.416-1.416-1.416zm19.918 0c-0.73867 0-1.334 0.63118-1.334 1.416v14.168c0 0.78483 0.59532 1.416 1.334 1.416h5.332c0.73867 0 1.334-0.63118 1.334-1.416v-14.168c0-0.78483-0.59532-1.416-1.334-1.416z"
     fill="#ffffff"
     id="path691"
     style="fill:#f8f8f2" />
</svg>
