<?xml version="1.0" encoding="UTF-8" standalone="no"?>
<svg
   width="32"
   height="32"
   version="1"
   id="svg23"
   sodipodi:docname="audio-input-microphone.svg"
   inkscape:version="1.2.2 (b0a8486541, 2022-12-01)"
   xmlns:inkscape="http://www.inkscape.org/namespaces/inkscape"
   xmlns:sodipodi="http://sodipodi.sourceforge.net/DTD/sodipodi-0.dtd"
   xmlns="http://www.w3.org/2000/svg"
   xmlns:svg="http://www.w3.org/2000/svg">
  <sodipodi:namedview
     id="namedview25"
     pagecolor="#505050"
     bordercolor="#eeeeee"
     borderopacity="1"
     inkscape:showpageshadow="0"
     inkscape:pageopacity="0"
     inkscape:pagecheckerboard="0"
     inkscape:deskcolor="#505050"
     showgrid="false"
     inkscape:zoom="31.84375"
     inkscape:cx="14.916585"
     inkscape:cy="16.015702"
     inkscape:window-width="1280"
     inkscape:window-height="1361"
     inkscape:window-x="0"
     inkscape:window-y="0"
     inkscape:window-maximized="0"
     inkscape:current-layer="svg23" />
  <defs
     id="defs5">
    <clipPath
       clipPathUnits="userSpaceOnUse"
       id="a">
      <circle
         cx="8.467"
         cy="288.533"
         r="6.879"
         fill="#d86eb0"
         stroke-width=".491"
         stroke-opacity=".039"
         paint-order="stroke markers fill"
         id="circle2" />
    </clipPath>
  </defs>
  <g
     transform="translate(-1.23 -1.23) scale(.53846)"
     stroke-width="1.857"
     id="g21">
    <circle
       cx="32"
       cy="32"
       r="26"
       fill="#d86eb0"
       paint-order="stroke markers fill"
       id="circle7"
       style="fill:#c7639f" />
    <rect
       rx="6"
       ry="6"
       y="20"
       x="26"
       height="20"
       width="12"
       fill="#f8f8f2"
       paint-order="stroke markers fill"
       id="rect9" />
    <path
       d="M23.5 33.5a.499.499 0 0 0-.5.5.499.499 0 0 0 .006.062A9 9 0 0 0 32 43a9 9 0 0 0 8.996-8.95.499.499 0 0 0 .002-.036 9 9 0 0 0 0-.014.499.499 0 0 1 0-.002.499.499 0 0 0-.5-.498.499.499 0 0 0-.498.498h-.002a7.998 7.998 0 0 1-7.998 8 7.998 7.998 0 0 1-7.996-8h-.006a.499.499 0 0 0-.498-.498z"
       fill="#f8f8f2"
       paint-order="stroke markers fill"
       id="path11" />
    <g
       clip-path="url(#a)"
       transform="matrix(3.77953 0 0 3.77953 0 -1058.53)"
       fill="none"
       stroke="#f8f8f2"
       stroke-width=".246"
       stroke-opacity=".937"
       id="g19">
      <path
         d="M0 287.74s2.284-.734 3.468 1.977c.674 1.544 1.623 2.229 2.772 2.283 1.48.07 2.673-1.226 3.459-2.385 1.602-2.362 4.189-1.867 6.244-.97"
         opacity=".35"
         id="path13" />
      <path
         d="M0 289.11s2.786-2.65 4.365-.149c.722 1.143 1.576 2.867 4.049 2.709 1.478-.095 2.956-.71 3.718-2.15 1.388-2.617 3.338-2.528 4.165-1.394"
         opacity=".35"
         id="path15" />
      <path
         d="M.732 291.07s2.337-2.2 5.24-1.353c1.297.379 2.937 1.847 6.056 1.504.824-.09 1.522-.563 2.183-1.464.957-1.305 2.015-1.371 3.385-1.112"
         opacity=".35"
         id="path17" />
    </g>
  </g>
</svg>
