<?xml version="1.0" encoding="UTF-8" standalone="no"?>
<svg
   width="32"
   height="32"
   version="1"
   id="svg34"
   sodipodi:docname="audio-speakers.svg"
   inkscape:version="1.2.2 (b0a8486541, 2022-12-01)"
   xmlns:inkscape="http://www.inkscape.org/namespaces/inkscape"
   xmlns:sodipodi="http://sodipodi.sourceforge.net/DTD/sodipodi-0.dtd"
   xmlns:xlink="http://www.w3.org/1999/xlink"
   xmlns="http://www.w3.org/2000/svg"
   xmlns:svg="http://www.w3.org/2000/svg">
  <sodipodi:namedview
     id="namedview36"
     pagecolor="#505050"
     bordercolor="#eeeeee"
     borderopacity="1"
     inkscape:showpageshadow="0"
     inkscape:pageopacity="0"
     inkscape:pagecheckerboard="0"
     inkscape:deskcolor="#505050"
     showgrid="false"
     inkscape:zoom="31.84375"
     inkscape:cx="14.916585"
     inkscape:cy="16.015702"
     inkscape:window-width="1280"
     inkscape:window-height="1361"
     inkscape:window-x="0"
     inkscape:window-y="0"
     inkscape:window-maximized="0"
     inkscape:current-layer="svg34" />
  <defs
     id="defs8">
    <linearGradient
       id="a">
      <stop
         offset="0"
         id="stop2" />
      <stop
         offset="1"
         stop-opacity="0"
         id="stop4" />
    </linearGradient>
    <linearGradient
       xlink:href="#a"
       id="b"
       x1="26.1"
       y1="34.496"
       x2="58"
       y2="34.496"
       gradientUnits="userSpaceOnUse" />
  </defs>
  <g
     transform="translate(-1.23 -1.23) scale(.53846)"
     stroke-width="1.857"
     id="g32">
    <circle
       r="26"
       cy="32"
       cx="32"
       fill="#ebeeef"
       paint-order="markers stroke fill"
       id="circle10"
       style="fill:#f8f8f2" />
    <path
       d="M48 38a16 15.986 0 1 1-32 0 16 15.986 0 1 1 32 0z"
       fill="#334d5c"
       id="path12"
       style="fill:#282a36" />
    <path
       d="M44 38a12 11.995 0 1 1-24 0 12 11.995 0 1 1 24 0z"
       fill="#efc84a"
       id="path14"
       style="fill:#ffb86c" />
    <path
       d="M38 38a6 5.995 0 1 1-12 0 6 5.995 0 1 1 12 0z"
       fill="#334d5c"
       id="path16"
       style="fill:#282a36" />
    <path
       d="M35 38a3 3 NaN 1 1-6 0 3 3 NaN 1 1 6 0z"
       fill="#f8f8f2"
       id="path18" />
    <path
       d="M38 14a6 5.998 0 1 1-12 0 6 5.998 0 1 1 12 0z"
       fill="#f8f8f2"
       id="path20"
       style="fill:#cbcccc" />
    <path
       d="M36 14a4 3.997 0 1 1-8 0 4 3.997 0 1 1 8 0z"
       fill="#334d5c"
       id="path22"
       style="fill:#282a36" />
    <path
       d="M34 14.001a2 1.998 0 1 1-4 0 2 1.998 0 1 1 4 0z"
       fill="#efc84a"
       id="path24"
       style="fill:#ffb86c" />
    <path
       d="M22 15a1 1 0 1 1-2 0 1 1 0 1 1 2 0zM44 15a1 1 0 1 1-2 0 1 1 0 1 1 2 0zM54 39a1 1 0 1 1-2 0 1 1 0 1 1 2 0zM13 39a1 1 0 1 1-2 0 1 1 0 1 1 2 0z"
       fill="#334d5c"
       id="path26"
       style="fill:#282a36" />
    <path
       d="M13.629 13.623A26 26 0 0 0 6 32a26 26 0 0 0 .426 4.633A16 15.986 0 0 0 16 22a16 15.986 0 0 0-2.371-8.377zM50.38 13.633A16 15.986 0 0 0 48 22a16 15.986 0 0 0 9.563 14.639A26 26 0 0 0 58 32a26 26 0 0 0-7.62-18.367z"
       opacity=".25"
       fill="#334d5c"
       id="path28"
       style="fill:#cbcccc;opacity:1" />
    <path
       d="M47.275 10.992a31.657 31.657 0 0 1 4.014 15.352 31.657 31.657 0 0 1-25.19 30.95A26 26 0 0 0 32 58a26 26 0 0 0 26-26 26 26 0 0 0-10.725-21.008z"
       opacity=".25"
       fill="url(#b)"
       paint-order="markers stroke fill"
       id="path30" />
  </g>
</svg>
