<?xml version="1.0" encoding="UTF-8" standalone="no"?>
<svg
   width="32"
   height="32"
   version="1"
   id="svg32"
   sodipodi:docname="camera-video.svg"
   inkscape:version="1.2.2 (b0a8486541, 2022-12-01)"
   xmlns:inkscape="http://www.inkscape.org/namespaces/inkscape"
   xmlns:sodipodi="http://sodipodi.sourceforge.net/DTD/sodipodi-0.dtd"
   xmlns="http://www.w3.org/2000/svg"
   xmlns:svg="http://www.w3.org/2000/svg">
  <defs
     id="defs36" />
  <sodipodi:namedview
     id="namedview34"
     pagecolor="#505050"
     bordercolor="#eeeeee"
     borderopacity="1"
     inkscape:showpageshadow="0"
     inkscape:pageopacity="0"
     inkscape:pagecheckerboard="0"
     inkscape:deskcolor="#505050"
     showgrid="false"
     inkscape:zoom="31.84375"
     inkscape:cx="14.916585"
     inkscape:cy="16.015702"
     inkscape:window-width="1280"
     inkscape:window-height="1361"
     inkscape:window-x="0"
     inkscape:window-y="0"
     inkscape:window-maximized="0"
     inkscape:current-layer="svg32" />
  <circle
     cx="16"
     cy="16"
     r="14"
     fill="#44475a"
     stroke-width=".51852"
     style="paint-order:stroke fill markers"
     id="circle2" />
  <circle
     transform="matrix(0,-1,-1,0,0,0)"
     cx="-8.2222"
     cy="-23.778"
     r="1.037"
     fill="#f8f8f2"
     stroke-width=".41481"
     id="circle4" />
  <circle
     transform="matrix(0,-1,-1,0,0,0)"
     cx="-15"
     cy="-18"
     r="6"
     fill="#f8f8f2"
     stroke-width=".52174"
     id="circle6"
     style="fill:#f8f8f2" />
  <circle
     transform="rotate(-90)"
     cx="-15"
     cy="18"
     r="4"
     fill="#007095"
     stroke-width=".47059"
     id="circle8"
     style="fill:#6272a4" />
  <circle
     transform="matrix(0,-1,-1,0,0,0)"
     cx="-15"
     cy="-18"
     r="2"
     fill="#49acdc"
     stroke-width=".44444"
     id="circle10"
     style="fill:#8894b8" />
  <path
     d="m6.9199 6.6992a13 13 0 0 0-3.9199 9.3008 13 13 0 0 0 3.9199 9.2852v-18.586z"
     fill="#44475a"
     stroke-width=".98531"
     id="path12"
     style="fill:#282a36;opacity:0.5" />
  <g
     stroke-width=".51852"
     id="g28">
    <circle
       cx="11.593"
       cy="25.593"
       r=".77778"
       opacity=".5"
       id="circle14" />
    <circle
       cx="14.704"
       cy="25.593"
       r=".77778"
       opacity=".5"
       id="circle16" />
    <circle
       cx="17.815"
       cy="25.593"
       r=".77778"
       opacity=".5"
       id="circle18" />
    <circle
       cx="20.926"
       cy="25.593"
       r=".77778"
       opacity=".5"
       id="circle20" />
    <circle
       cx="13.148"
       cy="27.667"
       r=".77778"
       opacity=".5"
       id="circle22" />
    <circle
       cx="16.259"
       cy="27.667"
       r=".77778"
       opacity=".5"
       id="circle24" />
    <circle
       cx="19.37"
       cy="27.667"
       r=".77778"
       opacity=".5"
       id="circle26" />
  </g>
  <circle
     transform="matrix(0,-1,-1,0,0,0)"
     cx="-8.2222"
     cy="-23.778"
     r=".51852"
     fill="#ff4d4d"
     stroke-width=".34568"
     id="circle30"
     style="fill:#ff5555" />
</svg>
