<?xml version="1.0" encoding="UTF-8" standalone="no"?>
<svg
   width="32"
   height="32"
   version="1"
   id="svg247"
   sodipodi:docname="computer-laptop.svg"
   inkscape:version="1.2.2 (b0a8486541, 2022-12-01)"
   xmlns:inkscape="http://www.inkscape.org/namespaces/inkscape"
   xmlns:sodipodi="http://sodipodi.sourceforge.net/DTD/sodipodi-0.dtd"
   xmlns="http://www.w3.org/2000/svg"
   xmlns:svg="http://www.w3.org/2000/svg">
  <defs
     id="defs251" />
  <sodipodi:namedview
     id="namedview249"
     pagecolor="#505050"
     bordercolor="#eeeeee"
     borderopacity="1"
     inkscape:showpageshadow="0"
     inkscape:pageopacity="0"
     inkscape:pagecheckerboard="0"
     inkscape:deskcolor="#505050"
     showgrid="false"
     inkscape:zoom="31.84375"
     inkscape:cx="14.916585"
     inkscape:cy="16.015702"
     inkscape:window-width="1280"
     inkscape:window-height="1361"
     inkscape:window-x="0"
     inkscape:window-y="0"
     inkscape:window-maximized="0"
     inkscape:current-layer="svg247" />
  <circle
     cx="16"
     cy="16"
     r="14"
     fill="#f8f8f2"
     stroke-width=".51852"
     style="paint-order:stroke fill markers"
     id="circle237" />
  <rect
     x="7"
     y="9"
     width="18"
     height="13"
     rx="1"
     ry="1"
     fill="#2f3337"
     stroke-width=".31225"
     id="rect239"
     style="fill:#44475a" />
  <path
     d="m8 10h16v10h-16z"
     fill="#6272a4"
     fill-rule="evenodd"
     stroke-width=".2952"
     id="path241"
     style="fill:#9576c5" />
  <path
     d="m5 21.037v0.5c0 0.277 0.23362 0.5 0.52381 0.5h20.952c0.29019 0 0.52381-0.223 0.52381-0.5v-0.5h-21.476z"
     fill="#f8f8f2"
     stroke-width=".51177"
     style="paint-order:stroke fill markers"
     id="path243" />
  <path
     d="m5 21.037v0.5c0 0.277 0.23362 0.5 0.52381 0.5h20.952c0.29019 0 0.52381-0.223 0.52381-0.5v-0.5h-7.3333c0 0.277-0.23362 0.5-0.52381 0.5h-6.2857c-0.29019 0-0.52381-0.223-0.52381-0.5h-6.8095z"
     fill="#cbcccc"
     stroke-width=".51177"
     style="paint-order:stroke fill markers"
     id="path245" />
</svg>
