<?xml version="1.0" encoding="UTF-8" standalone="no"?>
<svg
   width="32"
   height="32"
   version="1"
   id="svg8"
   sodipodi:docname="drive-harddisk-ieee1394.svg"
   inkscape:version="1.2.2 (b0a8486541, 2022-12-01)"
   xmlns:inkscape="http://www.inkscape.org/namespaces/inkscape"
   xmlns:sodipodi="http://sodipodi.sourceforge.net/DTD/sodipodi-0.dtd"
   xmlns="http://www.w3.org/2000/svg"
   xmlns:svg="http://www.w3.org/2000/svg">
  <defs
     id="defs12" />
  <sodipodi:namedview
     id="namedview10"
     pagecolor="#505050"
     bordercolor="#eeeeee"
     borderopacity="1"
     inkscape:showpageshadow="0"
     inkscape:pageopacity="0"
     inkscape:pagecheckerboard="0"
     inkscape:deskcolor="#505050"
     showgrid="false"
     inkscape:zoom="31.84375"
     inkscape:cx="13.880275"
     inkscape:cy="16.047105"
     inkscape:window-width="1280"
     inkscape:window-height="1361"
     inkscape:window-x="0"
     inkscape:window-y="0"
     inkscape:window-maximized="0"
     inkscape:current-layer="svg8" />
  <circle
     cx="16"
     cy="16"
     r="15"
     fill="#717380"
     style="paint-order:stroke fill markers"
     id="circle2" />
  <circle
     cx="16"
     cy="16"
     r="11"
     fill="#537bbc"
     stroke-width="1.2767"
     style="paint-order:markers stroke fill;fill:#168daa"
     id="circle4" />
  <path
     d="m14.551 19.802h2.9007v1.0877h-2.9007zm0 1.813h2.9007v1.0877h-2.9007zm1.4501-7.6149a2.5383 2.5383 0 0 0-2.5383 2.5383 2.5383 2.5383 0 0 0 2.5383 2.5383 2.5383 2.5383 0 0 0 2.5383-2.5383 2.5383 2.5383 0 0 0-2.5383-2.5383zm0 1.0877a1.4506 1.4506 0 0 1 1.4506 1.4506 1.4506 1.4506 0 0 1-1.4506 1.4506 1.4506 1.4506 0 0 1-1.4501-1.4506 1.4506 1.4506 0 0 1 1.4501-1.4506zm3.332 0.14538-2.051-2.0515 2.0515-2.051 2.051 2.0515zm-4.6151-2.0515-2.0515 2.0515-0.76892-0.76946 2.0515-2.0515zm-1.2821-1.2815-2.0515 2.051-0.76892-0.76946 2.0515-2.051z"
     fill="#f8f8f2"
     stroke-width=".99992"
     id="path6" />
</svg>
