<?xml version="1.0" encoding="UTF-8" standalone="no"?>
<svg
   width="32"
   height="32"
   version="1"
   id="svg6"
   sodipodi:docname="input-touchpad.svg"
   inkscape:version="1.2.2 (b0a8486541, 2022-12-01)"
   xmlns:inkscape="http://www.inkscape.org/namespaces/inkscape"
   xmlns:sodipodi="http://sodipodi.sourceforge.net/DTD/sodipodi-0.dtd"
   xmlns="http://www.w3.org/2000/svg"
   xmlns:svg="http://www.w3.org/2000/svg">
  <defs
     id="defs10" />
  <sodipodi:namedview
     id="namedview8"
     pagecolor="#505050"
     bordercolor="#eeeeee"
     borderopacity="1"
     inkscape:showpageshadow="0"
     inkscape:pageopacity="0"
     inkscape:pagecheckerboard="0"
     inkscape:deskcolor="#505050"
     showgrid="false"
     inkscape:zoom="31.84375"
     inkscape:cx="14.916585"
     inkscape:cy="16.015702"
     inkscape:window-width="1280"
     inkscape:window-height="1361"
     inkscape:window-x="0"
     inkscape:window-y="0"
     inkscape:window-maximized="0"
     inkscape:current-layer="svg6" />
  <circle
     cx="16"
     cy="16"
     r="14"
     fill="#44475a"
     stroke-width=".53846"
     style="paint-order:stroke markers fill"
     id="circle2" />
  <path
     d="m23 9v1h4.5273a13 13 0 0 0-0.57422-1h-3.9531zm0 2v1h5.3516a13 13 0 0 0-0.36328-1h-4.9883zm0 2v1h5.8359a13 13 0 0 0-0.20313-1h-5.6328zm0 2v1h6a13 13 0 0 0-0.042969-1h-5.957zm0 2v1h5.8281a13 13 0 0 0 0.12305-1h-5.9512zm-18.527 5a13 13 0 0 0 6.5352 6h2.9922c0.554 0 1-0.446 1-1v-4c0-0.554-0.446-1-1-1h-9.5273zm13.527 0c-0.554 0-1 0.446-1 1v4c0 0.554 0.446 1 1 1h2.9727a13 13 0 0 0 6.5488-6h-9.5215z"
     opacity=".45"
     stroke-width="3.6024"
     id="path4"
     style="opacity:0.35000001" />
</svg>
