<?xml version="1.0" encoding="UTF-8" standalone="no"?>
<svg
   width="32"
   height="32"
   version="1"
   id="svg34"
   sodipodi:docname="input-dialpad.svg"
   inkscape:version="1.2.2 (b0a8486541, 2022-12-01)"
   xmlns:inkscape="http://www.inkscape.org/namespaces/inkscape"
   xmlns:sodipodi="http://sodipodi.sourceforge.net/DTD/sodipodi-0.dtd"
   xmlns="http://www.w3.org/2000/svg"
   xmlns:svg="http://www.w3.org/2000/svg">
  <defs
     id="defs38" />
  <sodipodi:namedview
     id="namedview36"
     pagecolor="#505050"
     bordercolor="#eeeeee"
     borderopacity="1"
     inkscape:showpageshadow="0"
     inkscape:pageopacity="0"
     inkscape:pagecheckerboard="0"
     inkscape:deskcolor="#505050"
     showgrid="false"
     inkscape:zoom="31.84375"
     inkscape:cx="14.916585"
     inkscape:cy="16.015702"
     inkscape:window-width="1280"
     inkscape:window-height="1361"
     inkscape:window-x="0"
     inkscape:window-y="0"
     inkscape:window-maximized="0"
     inkscape:current-layer="svg34" />
  <circle
     cx="16.001"
     cy="16.001"
     r="14"
     fill="#44475a"
     stroke-width=".53846"
     style="paint-order:stroke markers fill"
     id="circle2" />
  <g
     fill="#f8f8f2"
     stroke-width=".9285"
     id="g16">
    <rect
       x="9"
       y="7"
       width="4"
       height="4"
       rx=".5"
       ry=".5"
       id="rect4" />
    <rect
       x="14"
       y="7"
       width="4"
       height="4"
       rx=".5"
       ry=".5"
       id="rect6" />
    <rect
       x="19"
       y="7"
       width="4"
       height="4"
       rx=".5"
       ry=".5"
       id="rect8" />
    <rect
       x="9"
       y="12"
       width="4"
       height="4"
       rx=".5"
       ry=".5"
       id="rect10" />
    <rect
       x="14"
       y="12"
       width="4"
       height="4"
       rx=".5"
       ry=".5"
       id="rect12" />
    <rect
       x="19"
       y="12"
       width="4"
       height="4"
       rx=".5"
       ry=".5"
       id="rect14" />
  </g>
  <g
     stroke-width=".9285"
     id="g24">
    <rect
       x="9"
       y="22"
       width="4"
       height="4"
       rx=".5"
       ry=".5"
       fill="#64c90e"
       id="rect18"
       style="fill:#44c367" />
    <rect
       x="14"
       y="22"
       width="4"
       height="4"
       rx=".5"
       ry=".5"
       fill="#f8f8f2"
       id="rect20" />
    <rect
       x="19"
       y="22"
       width="4"
       height="4"
       rx=".5"
       ry=".5"
       fill="#ff5a5a"
       id="rect22"
       style="fill:#ff5555" />
  </g>
  <g
     fill="#f8f8f2"
     stroke-width=".9285"
     id="g32">
    <rect
       x="9"
       y="17"
       width="4"
       height="4"
       rx=".5"
       ry=".5"
       id="rect26" />
    <rect
       x="14"
       y="17"
       width="4"
       height="4"
       rx=".5"
       ry=".5"
       id="rect28" />
    <rect
       x="19"
       y="17"
       width="4"
       height="4"
       rx=".5"
       ry=".5"
       id="rect30" />
  </g>
</svg>
