<?xml version="1.0" encoding="UTF-8" standalone="no"?>
<svg
   width="32"
   height="32"
   version="1"
   id="svg16"
   sodipodi:docname="network-wireless-hotspot.svg"
   inkscape:version="1.2.2 (b0a8486541, 2022-12-01)"
   xmlns:inkscape="http://www.inkscape.org/namespaces/inkscape"
   xmlns:sodipodi="http://sodipodi.sourceforge.net/DTD/sodipodi-0.dtd"
   xmlns="http://www.w3.org/2000/svg"
   xmlns:svg="http://www.w3.org/2000/svg">
  <defs
     id="defs20" />
  <sodipodi:namedview
     id="namedview18"
     pagecolor="#505050"
     bordercolor="#eeeeee"
     borderopacity="1"
     inkscape:showpageshadow="0"
     inkscape:pageopacity="0"
     inkscape:pagecheckerboard="0"
     inkscape:deskcolor="#505050"
     showgrid="false"
     inkscape:zoom="31.84375"
     inkscape:cx="14.932287"
     inkscape:cy="16.031403"
     inkscape:window-width="1507"
     inkscape:window-height="1226"
     inkscape:window-x="-233"
     inkscape:window-y="154"
     inkscape:window-maximized="0"
     inkscape:current-layer="svg16" />
  <g
     transform="translate(-1.23 -1.23) scale(.53846)"
     stroke-width="1.857"
     id="g14">
    <circle
       r="26"
       cy="32"
       cx="32"
       fill="#4bba4b"
       paint-order="markers stroke fill"
       id="circle2"
       style="fill:#44c367" />
    <g
       fill="#f8f8f2"
       id="g12">
      <path
         d="M32.062 20.5C25.994 20.5 20.531 22.656 16 26l16.062 17.5L48 25.937C43.487 22.63 38.085 20.5 32.062 20.5z"
         opacity=".5"
         id="path4" />
      <path
         d="M32 25.1a21.632 21.632 0 0 0-12.925 4.262L32.068 43.5l12.857-14.138A21.632 21.632 0 0 0 32 25.1z"
         opacity=".5"
         id="path6" />
      <path
         d="M32 29.7c-3.626 0-6.99 1.189-9.693 3.196l9.744 10.605 9.643-10.604A16.222 16.222 0 0 0 32 29.701z"
         id="path8" />
      <path
         d="M32.002 29.695c-3.626 0-6.992 1.19-9.695 3.199l.325.353a16.213 16.213 0 0 1 9.37-2.977 16.2 16.2 0 0 1 9.369 2.979l.322-.355a16.213 16.213 0 0 0-9.691-3.199z"
         opacity=".1"
         id="path10" />
    </g>
  </g>
</svg>
