<?xml version="1.0" encoding="UTF-8" standalone="no"?>
<svg
   width="32"
   height="32"
   version="1"
   id="svg12"
   sodipodi:docname="network-wired.svg"
   inkscape:version="1.2.2 (b0a8486541, 2022-12-01)"
   xmlns:inkscape="http://www.inkscape.org/namespaces/inkscape"
   xmlns:sodipodi="http://sodipodi.sourceforge.net/DTD/sodipodi-0.dtd"
   xmlns="http://www.w3.org/2000/svg"
   xmlns:svg="http://www.w3.org/2000/svg">
  <defs
     id="defs16" />
  <sodipodi:namedview
     id="namedview14"
     pagecolor="#505050"
     bordercolor="#eeeeee"
     borderopacity="1"
     inkscape:showpageshadow="0"
     inkscape:pageopacity="0"
     inkscape:pagecheckerboard="0"
     inkscape:deskcolor="#505050"
     showgrid="false"
     inkscape:zoom="31.84375"
     inkscape:cx="14.916585"
     inkscape:cy="16.015702"
     inkscape:window-width="1280"
     inkscape:window-height="1361"
     inkscape:window-x="0"
     inkscape:window-y="0"
     inkscape:window-maximized="0"
     inkscape:current-layer="svg12" />
  <g
     transform="translate(-1.23 -1.23) scale(.53846)"
     stroke-width="1.857"
     id="g10">
    <circle
       r="26"
       cy="32"
       cx="32"
       fill="#1c7cbf"
       paint-order="markers stroke fill"
       id="circle2"
       style="fill:#6272a4" />
    <path
       d="M17.23 18c-.681 0-1.23.567-1.23 1.272v22.456c0 .705.549 1.27 1.23 1.272H22l2.615 3h14.77L42 43h4.77c.681 0 1.23-.567 1.23-1.272V19.272c0-.705-.549-1.272-1.23-1.272zM20 22h24v17h-4l-3 3H27l-2-3h-5z"
       fill="#f8f8f2"
       paint-order="markers stroke fill"
       id="path4" />
    <path
       d="M27 42l-2-3h-5V22h24v17h-4l-3 3z"
       opacity=".35"
       fill="#f8f8f2"
       id="path6" />
    <path
       opacity=".5"
       fill="#f8f8f2"
       d="M23 25h3v-3h-3zM28 25h3v-3h-3zM33 25h3v-3h-3zM38 25h3v-3h-3z"
       id="path8" />
  </g>
</svg>
