<?xml version="1.0" encoding="UTF-8" standalone="no"?>
<svg
   width="32"
   height="32"
   version="1"
   id="svg12"
   sodipodi:docname="phone.svg"
   inkscape:version="1.2.2 (b0a8486541, 2022-12-01)"
   xmlns:inkscape="http://www.inkscape.org/namespaces/inkscape"
   xmlns:sodipodi="http://sodipodi.sourceforge.net/DTD/sodipodi-0.dtd"
   xmlns="http://www.w3.org/2000/svg"
   xmlns:svg="http://www.w3.org/2000/svg">
  <defs
     id="defs16" />
  <sodipodi:namedview
     id="namedview14"
     pagecolor="#505050"
     bordercolor="#eeeeee"
     borderopacity="1"
     inkscape:showpageshadow="0"
     inkscape:pageopacity="0"
     inkscape:pagecheckerboard="0"
     inkscape:deskcolor="#505050"
     showgrid="false"
     inkscape:zoom="31.84375"
     inkscape:cx="14.916585"
     inkscape:cy="16.015702"
     inkscape:window-width="1280"
     inkscape:window-height="1361"
     inkscape:window-x="0"
     inkscape:window-y="0"
     inkscape:window-maximized="0"
     inkscape:current-layer="svg12" />
  <circle
     cx="16"
     cy="16"
     r="14"
     fill="#f8f8f2"
     stroke-width=".51852"
     style="paint-order:stroke fill markers"
     id="circle2" />
  <rect
     x="9"
     y="5"
     width="14"
     height="22"
     rx="2"
     ry="2"
     fill="#282a36"
     stroke-width=".40562"
     id="rect4"
     style="fill:#44475a" />
  <path
     d="m11 6c-0.554 0-1 0.446-1 1v17c0 0.554 0.446 1 1 1h10c0.554 0 1-0.446 1-1v-17c0-0.554-0.446-1-1-1h-2.165l-0.5088 0.74025c-0.08168 0.11871-0.18207 0.25976-0.32617 0.25976h-4c-0.1441 0-0.24662-0.14093-0.32812-0.25976l-0.50685-0.74025h-2.165z"
     fill="#6272a4"
     stroke-width=".41188"
     id="path6"
     style="fill:#9576c5" />
  <rect
     x="13"
     y="25.5"
     width="6"
     height=".5"
     ry=".25"
     opacity=".25"
     stroke-width=".5"
     style="paint-order:stroke fill markers"
     id="rect8" />
  <circle
     cx="20.75"
     cy="25.75"
     r=".25"
     fill="#a02c2c"
     stroke-width=".5"
     style="paint-order:stroke fill markers;fill:#c7484a"
     id="circle10" />
</svg>
