<?xml version="1.0" encoding="UTF-8" standalone="no"?>
<svg
   width="32"
   height="32"
   version="1"
   id="svg22"
   sodipodi:docname="printer-network.svg"
   inkscape:version="1.2.2 (b0a8486541, 2022-12-01)"
   xmlns:inkscape="http://www.inkscape.org/namespaces/inkscape"
   xmlns:sodipodi="http://sodipodi.sourceforge.net/DTD/sodipodi-0.dtd"
   xmlns="http://www.w3.org/2000/svg"
   xmlns:svg="http://www.w3.org/2000/svg">
  <defs
     id="defs26" />
  <sodipodi:namedview
     id="namedview24"
     pagecolor="#505050"
     bordercolor="#eeeeee"
     borderopacity="1"
     inkscape:showpageshadow="0"
     inkscape:pageopacity="0"
     inkscape:pagecheckerboard="0"
     inkscape:deskcolor="#505050"
     showgrid="false"
     inkscape:zoom="31.84375"
     inkscape:cx="14.916585"
     inkscape:cy="16.015702"
     inkscape:window-width="1280"
     inkscape:window-height="1361"
     inkscape:window-x="0"
     inkscape:window-y="0"
     inkscape:window-maximized="0"
     inkscape:current-layer="svg22" />
  <circle
     cx="16"
     cy="16"
     r="14"
     fill="#f8f8f2"
     stroke-width="1.9598"
     style="paint-order:stroke fill markers;fill:#cbcccc"
     id="circle2" />
  <path
     d="m16 3a13 13 0 0 0-9 3.625v5.875h18v-5.8613a13 13 0 0 0-9-3.6387z"
     fill="#f8f8f2"
     id="path4" />
  <path
     d="m2.7617 20.5a14 14 0 0 0 13.238 9.5 14 14 0 0 0 13.242-9.5h-26.48z"
     fill="#8e8e8e"
     stroke-width="1.1494"
     id="path6" />
  <path
     d="m4.5176 8a14 14 0 0 0-2.5176 8 14 14 0 0 0 0.92773 5h26.131a14 14 0 0 0 0.94141-5 14 14 0 0 0-2.5312-8h-22.951z"
     fill="#44475a"
     stroke-width="1.0702"
     id="path8" />
  <path
     d="m4.0508 15a12 12 0 0 0-0.050781 1 12 12 0 0 0 0.16992 2h23.648a12 12 0 0 0 0.18164-2 12 12 0 0 0-0.046875-1h-23.902z"
     opacity=".35"
     id="path10"
     style="opacity:0.2" />
  <circle
     cx="25"
     cy="12"
     r="1"
     fill="#4fbc4f"
     style="paint-order:stroke fill markers;fill:#44c367"
     id="circle12" />
  <rect
     x="23"
     y="22"
     width="1"
     height="4"
     opacity=".35"
     style="paint-order:stroke fill markers"
     id="rect14" />
  <rect
     x="21"
     y="22"
     width="1"
     height="4"
     opacity=".35"
     style="paint-order:stroke fill markers"
     id="rect16" />
  <rect
     x="19"
     y="22"
     width="1"
     height="4"
     opacity=".35"
     style="paint-order:stroke fill markers"
     id="rect18" />
  <rect
     x="17"
     y="22"
     width="1"
     height="4"
     opacity=".35"
     style="paint-order:stroke fill markers"
     id="rect20" />
</svg>
