<?xml version="1.0" encoding="UTF-8" standalone="no"?>
<svg
   width="32"
   height="32"
   version="1"
   id="svg31"
   sodipodi:docname="printer.svg"
   inkscape:version="1.2.2 (b0a8486541, 2022-12-01)"
   xmlns:inkscape="http://www.inkscape.org/namespaces/inkscape"
   xmlns:sodipodi="http://sodipodi.sourceforge.net/DTD/sodipodi-0.dtd"
   xmlns="http://www.w3.org/2000/svg"
   xmlns:svg="http://www.w3.org/2000/svg">
  <sodipodi:namedview
     id="namedview33"
     pagecolor="#505050"
     bordercolor="#eeeeee"
     borderopacity="1"
     inkscape:showpageshadow="0"
     inkscape:pageopacity="0"
     inkscape:pagecheckerboard="0"
     inkscape:deskcolor="#505050"
     showgrid="false"
     inkscape:zoom="31.84375"
     inkscape:cx="14.916585"
     inkscape:cy="16.015702"
     inkscape:window-width="1280"
     inkscape:window-height="1361"
     inkscape:window-x="0"
     inkscape:window-y="0"
     inkscape:window-maximized="0"
     inkscape:current-layer="svg31" />
  <defs
     id="defs7">
    <linearGradient
       id="a"
       x1="164.79"
       x2="164.79"
       y1="170.34"
       y2="181.81"
       gradientTransform="matrix(.31818 0 0 .31184 -34.907 -32.845)"
       gradientUnits="userSpaceOnUse">
      <stop
         stop-color="#252525"
         offset="0"
         id="stop2" />
      <stop
         stop-color="#3d3d3d"
         offset="1"
         id="stop4" />
    </linearGradient>
  </defs>
  <circle
     cx="16"
     cy="16"
     r="15"
     fill="#f8f8f2"
     stroke-width=".55556"
     style="paint-order:stroke fill markers;fill:#cbcccc"
     id="circle9" />
  <path
     d="m6.7144 19h18.571c0.41704 0 0.71442 0.41624 0.71442 1h-20c0-0.58376 0.29798-1 0.71442-1z"
     display="block"
     fill-opacity=".417"
     overflow="visible"
     stroke-width="1.4445"
     style="isolation:auto;mix-blend-mode:normal;paint-order:fill markers stroke;fill:#cbcccc"
     id="path11" />
  <path
     d="m10 5.0554v2.9485l-2 0.00211v1.994h16v-1.994h-2v-3.006z"
     fill="#282a36"
     overflow="visible"
     stroke-width="1.0768"
     style="isolation:auto;mix-blend-mode:normal;fill:#44475a"
     id="path13" />
  <path
     d="m11 4h10v6h-10z"
     fill="#f8f8f2"
     overflow="visible"
     stroke="#282a36"
     stroke-linecap="round"
     stroke-linejoin="round"
     stroke-opacity=".059"
     stroke-width=".94994"
     style="isolation:auto;mix-blend-mode:normal;paint-order:markers stroke fill;stroke:#282a36"
     id="path15" />
  <path
     d="m8 20h16l3 4h-22z"
     fill="url(#a)"
     overflow="visible"
     stroke-width="1.0768"
     style="isolation:auto;mix-blend-mode:normal;fill:#44475a"
     id="path17" />
  <path
     d="M 9,20 6.5449,24.9102 A 13,13 0 0 0 16,29 13,13 0 0 0 25.4512,24.9023 L 23,20 Z"
     fill="#f8f8f2"
     stroke="#828282"
     stroke-linecap="round"
     stroke-linejoin="round"
     stroke-opacity=".059"
     stroke-width=".94994"
     style="isolation:auto;mix-blend-mode:normal;paint-order:markers stroke fill;stroke:#9ea0a6"
     id="path19" />
  <path
     d="m4.4785 10c-0.96793 1.8521-1.4751 3.9102-1.4785 6 0.00161 2.0893 0.50676 4.1474 1.4727 6h0.070313l2.457-3h18l2.4551 3h0.06641c0.96792-1.8521 1.4751-3.9102 1.4785-6-0.0016-2.0893-0.50676-4.1474-1.4727-6z"
     display="block"
     fill="#44475a"
     stroke-width="1.0568"
     style="isolation:auto;mix-blend-mode:normal;paint-order:fill markers stroke;fill:#282a36"
     id="path21" />
  <g
     id="g29">
    <rect
       x="22"
       y="12"
       width="1"
       height="4"
       opacity=".35"
       style="paint-order:stroke fill markers"
       id="rect23" />
    <rect
       x="24"
       y="12"
       width="1"
       height="4"
       opacity=".35"
       style="paint-order:stroke fill markers"
       id="rect25" />
    <rect
       x="20"
       y="12"
       width="1"
       height="4"
       opacity=".35"
       style="paint-order:stroke fill markers"
       id="rect27" />
  </g>
</svg>
