<?xml version="1.0" encoding="UTF-8" standalone="no"?>
<svg
   width="32"
   height="32"
   version="1"
   id="svg17"
   sodipodi:docname="scanner.svg"
   inkscape:version="1.2.2 (b0a8486541, 2022-12-01)"
   xmlns:inkscape="http://www.inkscape.org/namespaces/inkscape"
   xmlns:sodipodi="http://sodipodi.sourceforge.net/DTD/sodipodi-0.dtd"
   xmlns="http://www.w3.org/2000/svg"
   xmlns:svg="http://www.w3.org/2000/svg">
  <sodipodi:namedview
     id="namedview19"
     pagecolor="#505050"
     bordercolor="#eeeeee"
     borderopacity="1"
     inkscape:showpageshadow="0"
     inkscape:pageopacity="0"
     inkscape:pagecheckerboard="0"
     inkscape:deskcolor="#505050"
     showgrid="false"
     inkscape:zoom="31.84375"
     inkscape:cx="14.916585"
     inkscape:cy="16.015702"
     inkscape:window-width="1280"
     inkscape:window-height="1361"
     inkscape:window-x="0"
     inkscape:window-y="0"
     inkscape:window-maximized="0"
     inkscape:current-layer="svg17" />
  <defs
     id="defs7">
    <linearGradient
       id="a"
       x1="-55"
       x2="-22"
       y1="-32"
       y2="-32"
       gradientTransform="matrix(0 .56016 -1.0821 0 -18.628 41.809)"
       gradientUnits="userSpaceOnUse">
      <stop
         stop-color="#388dd4"
         offset="0"
         id="stop2"
         style="stop-color:#13b1d5;stop-opacity:1;" />
      <stop
         stop-color="#388dd4"
         stop-opacity="0"
         offset="1"
         id="stop4"
         style="stop-color:#13b1d5;stop-opacity:0;" />
    </linearGradient>
  </defs>
  <circle
     cx="16"
     cy="16"
     r="14"
     fill="#44475a"
     stroke-width="1.9598"
     style="paint-order:stroke fill markers"
     id="circle9" />
  <circle
     cx="16"
     cy="16"
     r="12"
     fill="#f8f8f2"
     stroke-width="1.6798"
     style="paint-order:stroke fill markers"
     id="circle11" />
  <path
     d="m5.1055 11a12 12 0 0 0-1.1055 5 12 12 0 0 0 12 12 12 12 0 0 0 12-12 12 12 0 0 0-1.1074-5h-21.787z"
     fill="url(#a)"
     opacity=".5"
     stroke-width=".77854"
     id="path13" />
  <path
     d="m3.3691 10a14 14 0 0 0-0.7793 2h26.814a14 14 0 0 0-0.77148-2h-25.264z"
     fill="#388dd4"
     stroke-width=".66667"
     id="path15"
     style="fill:#13b1d5" />
</svg>
