<?xml version="1.0" encoding="UTF-8" standalone="no"?>
<svg
   width="32"
   height="32"
   version="1"
   id="svg24"
   sodipodi:docname="uninterruptible-power-supply.svg"
   inkscape:version="1.2.2 (b0a8486541, 2022-12-01)"
   xmlns:inkscape="http://www.inkscape.org/namespaces/inkscape"
   xmlns:sodipodi="http://sodipodi.sourceforge.net/DTD/sodipodi-0.dtd"
   xmlns="http://www.w3.org/2000/svg"
   xmlns:svg="http://www.w3.org/2000/svg">
  <defs
     id="defs28" />
  <sodipodi:namedview
     id="namedview26"
     pagecolor="#505050"
     bordercolor="#eeeeee"
     borderopacity="1"
     inkscape:showpageshadow="0"
     inkscape:pageopacity="0"
     inkscape:pagecheckerboard="0"
     inkscape:deskcolor="#505050"
     showgrid="false"
     inkscape:zoom="31.84375"
     inkscape:cx="14.916585"
     inkscape:cy="16.015702"
     inkscape:window-width="1280"
     inkscape:window-height="1361"
     inkscape:window-x="0"
     inkscape:window-y="0"
     inkscape:window-maximized="0"
     inkscape:current-layer="svg24" />
  <circle
     cx="16"
     cy="16"
     r="14"
     fill="#f8f8f2"
     stroke-width=".51852"
     style="paint-order:stroke fill markers"
     id="circle2" />
  <g
     transform="translate(0,-1)"
     id="g22">
    <rect
       transform="matrix(0,-1,-1,0,0,0)"
       x="-26"
       y="-24"
       width="19"
       height="16"
       rx="1.357"
       ry="1.4545"
       fill="#8e8e8e"
       stroke-width=".37308"
       id="rect4"
       style="fill:#9ea0a6" />
    <path
       d="m21 7v10c0 2.77-2.23 5-5 5s-5-2.23-5-5v-10z"
       opacity=".5"
       stroke-width=".35715"
       id="path6" />
    <g
       stroke-width=".33334"
       id="g14">
      <circle
         cx="16"
         cy="17"
         r="2"
         fill="#3697c4"
         id="circle8"
         style="fill:#13b1d5" />
      <circle
         cx="16"
         cy="12"
         r="1"
         fill="#ff6e40"
         id="circle10"
         style="fill:#ff5555" />
      <circle
         cx="16"
         cy="9"
         r="1"
         fill="#76ff03"
         id="circle12"
         style="fill:#50fa7b" />
    </g>
    <path
       d="m12 25c-0.554 0-1 0.446-1 1h10c0-0.554-0.446-1-1-1z"
       opacity=".35"
       stroke-width=".5"
       style="paint-order:stroke fill markers"
       id="path16" />
    <path
       d="m8 19v1h1.5c0.277 0 0.5-0.223 0.5-0.5 0-0.277-0.223-0.5-0.5-0.5zm0 1.5v1h1.5c0.277 0 0.5-0.223 0.5-0.5 0-0.277-0.223-0.5-0.5-0.5zm0 1.5v1h1.5c0.277 0 0.5-0.223 0.5-0.5s-0.223-0.5-0.5-0.5z"
       opacity=".35"
       stroke-width=".5"
       style="paint-order:stroke fill markers"
       id="path18" />
    <path
       d="m24 19v1h-1.5c-0.277 0-0.5-0.223-0.5-0.5 0-0.277 0.223-0.5 0.5-0.5zm0 1.5v1h-1.5c-0.277 0-0.5-0.223-0.5-0.5 0-0.277 0.223-0.5 0.5-0.5zm0 1.5v1h-1.5c-0.277 0-0.5-0.223-0.5-0.5s0.223-0.5 0.5-0.5z"
       opacity=".35"
       stroke-width=".5"
       style="paint-order:stroke fill markers"
       id="path20" />
  </g>
</svg>
