<?xml version="1.0" encoding="UTF-8" standalone="no"?>
<svg
   width="32"
   height="32"
   version="1"
   id="svg18"
   sodipodi:docname="wiimotedev.svg"
   inkscape:version="1.2.2 (b0a8486541, 2022-12-01)"
   xmlns:inkscape="http://www.inkscape.org/namespaces/inkscape"
   xmlns:sodipodi="http://sodipodi.sourceforge.net/DTD/sodipodi-0.dtd"
   xmlns="http://www.w3.org/2000/svg"
   xmlns:svg="http://www.w3.org/2000/svg">
  <defs
     id="defs22" />
  <sodipodi:namedview
     id="namedview20"
     pagecolor="#505050"
     bordercolor="#eeeeee"
     borderopacity="1"
     inkscape:showpageshadow="0"
     inkscape:pageopacity="0"
     inkscape:pagecheckerboard="0"
     inkscape:deskcolor="#505050"
     showgrid="false"
     inkscape:zoom="31.84375"
     inkscape:cx="14.916585"
     inkscape:cy="16.015702"
     inkscape:window-width="1280"
     inkscape:window-height="1361"
     inkscape:window-x="0"
     inkscape:window-y="0"
     inkscape:window-maximized="0"
     inkscape:current-layer="svg18" />
  <circle
     cx="16"
     cy="16"
     r="14"
     fill="#282a36"
     stroke-width=".51852"
     style="paint-order:stroke fill markers;fill:#44475a"
     id="circle2" />
  <rect
     transform="rotate(90)"
     x="5"
     y="-21"
     width="22"
     height="10"
     rx="1"
     ry="1"
     fill="#cbcccc"
     stroke-width=".38872"
     id="rect4" />
  <g
     fill="#9ea0a6"
     stroke-width=".33334"
     id="g12">
    <circle
       transform="rotate(90)"
       cx="24"
       cy="-18"
       r="1"
       id="circle6" />
    <circle
       transform="rotate(90)"
       cx="20"
       cy="-18"
       r="1"
       id="circle8" />
    <circle
       transform="rotate(90)"
       cx="24"
       cy="-14"
       r="1"
       id="circle10" />
  </g>
  <circle
     transform="rotate(90)"
     cx="20"
     cy="-14"
     r="1"
     fill="#d35f5f"
     stroke-width=".33334"
     id="circle14"
     style="fill:#c7484a" />
  <path
     d="m15.5 7c-0.277 0-0.5 0.223-0.5 0.5v1.5h-1.5c-0.277 0-0.5 0.223-0.5 0.5v1c0 0.277 0.223 0.5 0.5 0.5h1.5v1.5c0 0.277 0.223 0.5 0.5 0.5h1c0.277 0 0.5-0.223 0.5-0.5v-1.5h1.5c0.277 0 0.5-0.223 0.5-0.5v-1c0-0.277-0.223-0.5-0.5-0.5h-1.5v-1.5c0-0.277-0.223-0.5-0.5-0.5z"
     fill="#717380"
     stroke-width=".5"
     style="paint-order:stroke fill markers"
     id="path16" />
</svg>
